<mxfile host="app.diagrams.net" modified="2024-04-19T14:38:30.621Z" agent="Mozilla/5.0 (Macintosh; Intel Mac OS X 10_15_7) AppleWebKit/537.36 (KHTML, like Gecko) Chrome/123.0.0.0 Safari/537.36" version="24.2.2" etag="Z5HFityZ0yymHvillMSE" type="device">
  <diagram id="9MSKCBKpOQx-qDhkApvh" name="PÃ¡gina-1">
    <mxGraphModel dx="2385" dy="1538" grid="1" gridSize="10" guides="1" tooltips="1" connect="1" arrows="1" fold="1" page="1" pageScale="1" pageWidth="827" pageHeight="1169" math="0" shadow="0">
      <root>
        <mxCell id="0" />
        <mxCell id="1" parent="0" />
        <mxCell id="f0welmkng9V9mcCABSlp-1" value="" style="shape=image;verticalLabelPosition=bottom;labelBackgroundColor=default;verticalAlign=top;aspect=fixed;imageAspect=0;image=data:image/png,iVBORw0KGgoAAAANSUhEUgAAB+IAAAFUCAYAAAAQz/WIAAAMPmlDQ1BJQ0MgUHJvZmlsZQAASImVVwdYU8kWnltSIQQIICAl9CaI1ABSQmgBpBfBRkgChBJjIKjY0UUF1y4iYENXRRQ7IHbEzqLY+2JBRVkXC3blTQrouq9873zf3Pvff87858y5c8sAQD/Ok0hyUU0A8sQF0rjQQObolFQm6SkgAyOAADow4/HzJeyYmEgAbeD8d3t3HXpCu+Io1/pn/381LYEwnw8AEgNxuiCfnwfxfgDwar5EWgAAUc5bTC6QyDFsQEcKE4R4gRxnKnG1HKcr8W6FT0IcB+JWAMjqPJ40EwCNS5BnFvIzoYZGL8TOYoFIDACdCbFfXt5EAcRpENtCHwnEcn1W+g86mX/TTB/U5PEyB7FyLgojB4nyJbm8qf9nOf635eXKBmJYw6aeJQ2Lk88Z1u1mzsQIOVaHuEecHhUNsTbEH0QChT/EKDVLFpao9EeN+PkcWDOgB7GzgBcUAbERxCHi3KhIFZ+eIQrhQgxXCDpFVMBNgFgf4gXC/OB4lc8G6cQ4VSy0IUPKYav4szypIq481n1ZTiJbpf86S8hV6WMaRVkJyRBTIbYsFCVFQawBsVN+TnyEymdkURYnasBHKouT528JcZxQHBqo1McKM6QhcSr/0rz8gfliG7JE3CgV3luQlRCmrA/Wyucp8odzwS4JxezEAR1h/ujIgbkIhEHByrljz4TixHiVzgdJQWCccixOleTGqPxxc2FuqJw3h9gtvzBeNRZPKoALUqmPZ0gKYhKUeeJF2bzwGGU++FIQCTggCDCBDLZ0MBFkA1F7T2MPvFL2hAAekIJMIASOKmZgRLKiRwyP8aAI/AmREOQPjgtU9ApBIeS/DrLKoyPIUPQWKkbkgCcQ54EIkAuvZYpR4sFoSeAxZET/iM6DjQ/zzYVN3v/v+QH2O8OGTKSKkQ1EZNIHPInBxCBiGDGEaIcb4n64Dx4JjwGwueAs3GtgHt/9CU8IHYSHhGuETsKtCaJi6U9ZjgKdUD9EVYv0H2uBW0NNdzwQ94XqUBnXww2BI+4G47BxfxjZHbIcVd7yqjB/0v7bDH64Gyo/ijMFpQyhBFBsfx6pYa/hPqgir/WP9VHmmj5Yb85gz8/xOT9UXwDPET97YguwfdgZ7AR2DjuMNQImdgxrwtqwI3I8uLoeK1bXQLQ4RT45UEf0j3gDd1ZeyXznOudu5y/KvgLhFPk7GnAmSqZKRZlZBUw2/CIImVwx32kY08XZxRUA+fdF+fp6E6v4biB6bd+5uX8A4Husv7//0Hcu/BgAezzh43/wO2fLgp8ONQDOHuTLpIVKDpcfCPAtQYdPmgEwARbAFs7HBXgAHxAAgkE4iAYJIAWMh9lnwXUuBZPBdDAHlIAysBSsApVgPdgEtoGdYC9oBIfBCXAaXACXwDVwB66eLvAC9IJ34DOCICSEhjAQA8QUsUIcEBeEhfghwUgkEoekIGlIJiJGZMh0ZC5ShixHKpGNSC2yBzmInEDOIR3ILeQB0o28Rj6hGKqO6qDGqDU6HGWhbDQCTUDHoZnoJLQInYcuRivQGnQH2oCeQC+g19BO9AXahwFMDdPDzDBHjIVxsGgsFcvApNhMrBQrx2qweqwZ3ucrWCfWg33EiTgDZ+KOcAWH4Yk4H5+Ez8QX4ZX4NrwBb8Wv4A/wXvwbgUYwIjgQvAlcwmhCJmEyoYRQTthCOEA4BZ+lLsI7IpGoR7QhesJnMYWYTZxGXERcS9xFPE7sID4i9pFIJAOSA8mXFE3ikQpIJaQ1pB2kY6TLpC7SB7Ia2ZTsQg4hp5LF5GJyOXk7+Sj5Mvkp+TNFk2JF8aZEUwSUqZQllM2UZspFShflM1WLakP1pSZQs6lzqBXUeuop6l3qGzU1NXM1L7VYNZHabLUKtd1qZ9UeqH1U11a3V+eoj1WXqS9W36p+XP2W+hsajWZNC6Cl0gpoi2m1tJO0+7QPGgwNJw2uhkBjlkaVRoPGZY2XdArdis6mj6cX0cvp++gX6T2aFE1rTY4mT3OmZpXmQc0bmn1aDK0RWtFaeVqLtLZrndN6pk3SttYO1hZoz9PepH1S+xEDY1gwOAw+Yy5jM+MUo0uHqGOjw9XJ1inT2anTrtOrq63rppukO0W3SveIbqcepmetx9XL1Vuit1fvut6nIcZD2EOEQxYOqR9yech7/aH6AfpC/VL9XfrX9D8ZMA2CDXIMlhk0GtwzxA3tDWMNJxuuMzxl2DNUZ6jPUP7Q0qF7h942Qo3sjeKMphltMmoz6jM2MQ41lhivMT5p3GOiZxJgkm2y0uSoSbcpw9TPVGS60vSY6XOmLpPNzGVWMFuZvWZGZmFmMrONZu1mn81tzBPNi813md+zoFqwLDIsVlq0WPRamlqOspxuWWd524pixbLKslptdcbqvbWNdbL1fOtG62c2+jZcmyKbOpu7tjRbf9tJtjW2V+2Idiy7HLu1dpfsUXt3+yz7KvuLDqiDh4PIYa1DxzDCMK9h4mE1w244qjuyHQsd6xwfOOk5RToVOzU6vRxuOTx1+LLhZ4Z/c3Z3znXe7HxnhPaI8BHFI5pHvHaxd+G7VLlcdaW5hrjOcm1yfeXm4CZ0W+d2053hPsp9vnuL+1cPTw+pR71Ht6elZ5pntecNlg4rhrWIddaL4BXoNcvrsNdHbw/vAu+93n/5OPrk+Gz3eTbSZqRw5OaRj3zNfXm+G307/Zh+aX4b/Dr9zfx5/jX+DwMsAgQBWwKesu3Y2ewd7JeBzoHSwAOB7znenBmc40FYUGhQaVB7sHZwYnBl8P0Q85DMkLqQ3lD30Gmhx8MIYRFhy8JucI25fG4ttzfcM3xGeGuEekR8RGXEw0j7SGlk8yh0VPioFaPuRllFiaMao0E0N3pF9L0Ym5hJMYdiibExsVWxT+JGxE2POxPPiJ8Qvz3+XUJgwpKEO4m2ibLEliR60tik2qT3yUHJy5M7Rw8fPWP0hRTDFFFKUyopNSl1S2rfmOAxq8Z0jXUfWzL2+jibcVPGnRtvOD53/JEJ9Am8CfvSCGnJadvTvvCieTW8vnRuenV6L5/DX81/IQgQrBR0C32Fy4VPM3wzlmc8y/TNXJHZneWfVZ7VI+KIKkWvssOy12e/z4nO2ZrTn5ucuyuPnJeWd1CsLc4Rt040mThlYofEQVIi6ZzkPWnVpF5phHRLPpI/Lr+pQAf+yLfJbGW/yB4U+hVWFX6YnDR53xStKeIpbVPtpy6c+rQopOi3afg0/rSW6WbT50x/MIM9Y+NMZGb6zJZZFrPmzeqaHTp72xzqnJw5vxc7Fy8vfjs3eW7zPON5s+c9+iX0l7oSjRJpyY35PvPXL8AXiBa0L3RduGbht1JB6fky57Lysi+L+IvO/zri14pf+xdnLG5f4rFk3VLiUvHS68v8l21brrW8aPmjFaNWNKxkrixd+XbVhFXnyt3K16+mrpat7qyIrGhaY7lm6ZovlVmV16oCq3ZVG1UvrH6/VrD28rqAdfXrjdeXrf+0QbTh5sbQjQ011jXlm4ibCjc92Zy0+cxvrN9qtxhuKdvydat4a+e2uG2ttZ61tduNti+pQ+tkdd07xu64tDNoZ1O9Y/3GXXq7ynaD3bLdz/ek7bm+N2Jvyz7Wvvr9VvurDzAOlDYgDVMbehuzGjubUpo6DoYfbGn2aT5wyOnQ1sNmh6uO6B5ZcpR6dN7R/mNFx/qOS473nMg88ahlQsudk6NPXm2NbW0/FXHq7OmQ0yfPsM8cO+t79vA573MHz7PON17wuNDQ5t524Hf33w+0e7Q3XPS82HTJ61Jzx8iOo5f9L5+4EnTl9FXu1QvXoq51XE+8fvPG2BudNwU3n93KvfXqduHtz3dm3yXcLb2nea/8vtH9mj/s/tjV6dF55EHQg7aH8Q/vPOI/evE4//GXrnlPaE/Kn5o+rX3m8uxwd0j3pedjnne9kLz43FPyp9af1S9tX+7/K+Cvtt7RvV2vpK/6Xy96Y/Bm61u3ty19MX333+W9+/y+9IPBh20fWR/PfEr+9PTz5C+kLxVf7b42f4v4drc/r79fwpPyFL8CGGxoRgYAr7cCQEsBgAH3Z9Qxyv2fwhDlnlWBwH/Cyj2iwjwAqIf/77E98O/mBgC7N8PtF9SnjwUghgZAghdAXV0H28BeTbGvlBsR7gM2hH1Nz0sH/8aUe84f8v75DOSqbuDn878AoZx8V8XS5bQAAACKZVhJZk1NACoAAAAIAAQBGgAFAAAAAQAAAD4BGwAFAAAAAQAAAEYBKAADAAAAAQACAACHaQAEAAAAAQAAAE4AAAAAAAAAkAAAAAEAAACQAAAAAQADkoYABwAAABIAAAB4oAIABAAAAAEAAAfioAMABAAAAAEAAAFUAAAAAEFTQ0lJAAAAU2NyZWVuc2hvdCl/PqIAAAAJcEhZcwAAFiUAABYlAUlSJPAAAAHXaVRYdFhNTDpjb20uYWRvYmUueG1wAAAAAAA8eDp4bXBtZXRhIHhtbG5zOng9ImFkb2JlOm5zOm1ldGEvIiB4OnhtcHRrPSJYTVAgQ29yZSA2LjAuMCI+CiAgIDxyZGY6UkRGIHhtbG5zOnJkZj0iaHR0cDovL3d3dy53My5vcmcvMTk5OS8wMi8yMi1yZGYtc3ludGF4LW5zIyI+CiAgICAgIDxyZGY6RGVzY3JpcHRpb24gcmRmOmFib3V0PSIiCiAgICAgICAgICAgIHhtbG5zOmV4aWY9Imh0dHA6Ly9ucy5hZG9iZS5jb20vZXhpZi8xLjAvIj4KICAgICAgICAgPGV4aWY6UGl4ZWxZRGltZW5zaW9uPjM0MDwvZXhpZjpQaXhlbFlEaW1lbnNpb24+CiAgICAgICAgIDxleGlmOlBpeGVsWERpbWVuc2lvbj4yMDE4PC9leGlmOlBpeGVsWERpbWVuc2lvbj4KICAgICAgICAgPGV4aWY6VXNlckNvbW1lbnQ+U2NyZWVuc2hvdDwvZXhpZjpVc2VyQ29tbWVudD4KICAgICAgPC9yZGY6RGVzY3JpcHRpb24+CiAgIDwvcmRmOlJERj4KPC94OnhtcG1ldGE+CvQEmUsAAAAcaURPVAAAAAIAAAAAAAAAqgAAACgAAACqAAAAqgAAtuGzgcXLAABAAElEQVR4AeydB5wUtRfH39E7SO+9S1OKCFio0pQuXWxgQRTpIFXpXRBFRAQERPxLB2nSQem99957L3f883LO3Mze7O7szO7dlt/w4SbJJJnk+zKzyXuTJKz19ErPCAcIgEBAEJjQ7G9ZzjYzKgdEeVFIEAABEAABEAABEAABEAABEAABEAABEACB4CIA/VRwyRO1AQEQAAEQAAEQ8B2BMBjifQcXOYOAtwlgoONtosgPBEAABEAABEAABEAABEAABEAABEAABEDAEwLQT3lCC3FBAARAAARAAARCmQAM8aEsfdQ94AhgoBNwIkOBQQAEQAAEQAAEQAAEQAAEQAAEQAAEQCCoCEA/FVTiRGVAAARAAARAAAR8SACGeB/CRdYg4G0CGOh4myjyAwEQAAEQAAEQAAEQAAEQAAEQAAEQAAEQ8IQA9FOe0EJcEAABEAABEACBUCYAQ3woSx91DzgCGOgEnMhQYBAAARAAARAAARAAARAAARAAARAAARAIKgLQTwWVOFEZEAABEAABEAABHxKAId6HcJE1CHibAAY63iaK/EAABEAABEAABEAABEAABEAABEAABEAABDwhAP2UJ7QQFwRAAARAAARAIJQJwBAfytJH3QOOAAY6AScyFBgEQAAEQAAEQAAEQAAEQAAEQAAEQAAEgooA9FNBJU5UBgRAAARAAARAwIcEYIj3IVxkDQLeJoCBjreJIj8QAAEQAAEQAAEQAAEQAAEQAAEQAAEQAAFPCEA/5QktxAUBEAABEAABEAhlAjDEh7L0UfeAI4CBTsCJDAUGARAAARAAARAAARAAARAAARAAARAAgaAiAP1UUIkTlQEBEAABEAABEPAhARjifQgXWYOAtwlgoONtosgPBEAABEAABEAABEAABEAABEAABEAABEDAEwLQT3lCC3FBAARAAARAAARCmQAM8aEsfdQ94AhgoBNwIkOBQQAEQAAEQAAEQAAEQAAEQAAEQAAEQCCoCEA/FVTiRGVAAARAAARAAAR8SACGeB/CRdYg4G0CGOh4myjyAwEQAAEQAAEQAAEQAAEQAAEQAAEQAAEQ8IQA9FOe0EJcEAABEAABEACBUCYAQ3woSx91DzgCGOgEnMhQYBAAARAAARAAARAAARAAARAAARAAARAIKgLQTwWVOFEZEAABEAABEAABHxKAId6HcJE1CHibAAY63iaK/EAABEAABEAABEAABEAABEAABEAABEAABDwhAP2UJ7QQFwRAAARAAARAIJQJwBAfytJH3QOOAAY6AScyFBgEQAAEQAAEQAAEQAAEQAAEQAAEQAAEgooA9FNBJU5UBgRAAARAAARAwIcEYIj3IVxkDQLeJoCBjreJIj8QAAEQAAEQAAEQAAEQAAEQAAEQAAEQAAFPCEA/5QktxAUBEAABEAABEAhlAjDEh7L0UfeAI4CBTsCJDAUGARAAARAAARAAARAAARAAARAAARAAgaAiAP1UUIkTlQEBEAABEAABEPAhARjifQgXWYOAtwlgoONtosgPBEAABEAABEAABEAABEAABEAABEAABEDAEwLQT3lCC3FBAARAAARAAARCmQAM8aEsfdQ94AhgoBNwIkOBQQAEQAAEQAAEQAAEQAAEQAAEQAAEQCCoCEA/FVTiRGVAAARAAARAAAR8SCAoDPFxwsKocKaSFCcsbjRUz+gZ3X54na7fu0x3Ht6Odp0DXKU3SvCMImj/+e0U/izc6HJIhGV7LjcVzlyKbj+4QbvP/Uv3Ht0JiXrHdiUx0IltCeD+IAACIAACoUggftz4lCFFFsqUMqf4n4OePYugczdPiP8n6cqd8xQh/IF4BFt/Ln+GYpQoXmIpCh4DHLy4g56EPwlE0XhUZn+Ro7+UwyN4iAwCIAACIAACIGCJAPRTlrAhkRcJuNPnRwi9/ZW7F+nqnQshrcP3IvKAyQrjwti112BcGDCPCgoagwSCwhCfNlkGGvjWDLfYLtw+RYv3TaMtJ1frFKZm02tv0Hfxe3T+5mltUMi486UvQp2rfKvW99ytE9Rv0YeqHw7fEcBAx3dskTMIgAAIgAAIGBEom6sytSjdgRLES2R0me48ukUTN35DBy7sMLzur4HB2J9T+kkK82ErvqAjl/cq3qA8+4sc/aUcQSlkVAoEQAAEQAAE/JCA0u9qM6OyH5YORQoFAmb1+fxh7tmbR2nKpqEhq8sPhfagraPyflLCMC5USPj+jHGh7xnjDoFJIKQM8YqI1hydT9M3RxmSzf5wK+n5HMqG+Lol3qeahZtrcVCXuY3o5v3rujB4vE9A6UhgoON9tsgRBEAABEAABLQEeIZF8zJf0it5ammDDd3Pnj2jhfum0ILdvxpe98fAYOzPKf0khXcoKFxiQo59a/1MGZJnVbDS9+t60Z5zm1U/O2KiHLobwgMCIAACIAACIBCrBJR+F/RTsSqGkL65p/r8x08f0M//DKQdZzaGNLdQqLzyflLqinGhQsLeGeNCe/yQOrQJhKQhnkX+g1AgKT+8nv5wc/pQNsTnTV+YulQZyxjkce7WcTEjvrXiDcrzo7tP6NLRW3T/+kOx0KnnRxiFyUS8TKqnB6dMkjoRZcibkqa0WSuTY6DjKUXEBwEQAAEQAAHPCJTM8Qp9VL6vR4lGrOxAhy7u8ihNbEUOxv5cKCpcYkKOQ+rNpOcSp1Ob6k9iBQheYUx7xEQ5tPeDGwRAAARAAARClQD0U6EqedTbkYAVff4jYYxv/0cdLFXvCDPI/BgXEvnCXoNxYZA9KEFeHX/pLyVMFl+SDlpD/JZTK+nI1T2UM3VBKp6lHCVNkFzXtFYfmUsztkQak41+uLedWUPHrhovZcnG1PVHFtOjp490eYaSJ+tzOSn7c/nkEv+8R/z9x/eCuvqnd16lB7ce07MIIX0x6y0mjzAxIy8sThglTpmAlgyNVO7DEB+TEsC9QAAEQAAEQpHAx6/0oRezvaqrOvcvNxz/ixLFT0KV89enfOmL667/e3I5Tdo4WBfmz55g68+FosKF25ev5WhG4RIT5fDnZwllAwEQAAEQAIGYIgD9VEyRxn38nYCRPn/H2XVCn79PjNcSU8lsr1OmFDmiVWPQsk/oxNXD0cIREDwEMC6MIF/YazAuDJ5nJBRq4i/9pewl0krcQWuI1854Z+VU7xo/69oXG9mHLPtChhn9cGvT6xJa8GRKmY1eyVubsqTMRamTppfG6xv3r9JR8aHAxmNL6Pq9K05zzZU2P1UQS6JmTJ6dUiVJQ3ce3qRTNw7T4cu7aNupdYbpMqfKTlUKNlKvXb5zllYfnk/FspSl4lnLU8K4iej2oxvqdXYs3juNrt69pAurUaQppUuWWQ1j5TPvf8r1qVrobTX89sPrNHfnL6pf6yiYsQSVy12dMqYQ5U+chm4/uEGnbx6h0zeO0MajS+hx+GNtdNVtpd5KYju8lTwczwdXniUSBvHfB/9NyRMnc7zsU/+dB3epcTex55b4AGDtxEPyXjDE+xQ5MgcBEAABEAAB6ll9PGVPnU8l8UT0WTr8WU98iPlQhqVLnpH6154mugeRq95w4IlrB2nQ0rZqGsVhpV8T6v05hZ3jOUmCpKJP+zKVyFaBsqbKTaeuH6YDF7fRphN/07jGf+miO1uC0Io8lIzt9DM96Rebkf93a3q67Zc75nP25jFac2gBlczxKhXKWJJypy0sPqi9Q0eu7KFl+2fR3Ue3lapS41KfUsJ4ialC7ppqGDuY+Rmxz+aT8Ef0+9bv5djGk/FB1udyifFNDcosxkapkqSlR08e0rX7l2jv+U1ipv1Kw4+dHetx5e55Wrrvd8qbvggVzlSSCqZ/QZaDxxlcD1fjK11l4AEBEAABEACBACMA/VSACQzF9RkBM/r8+i98SNULNdWV4X87x4v+4h+6MMUTW+MEK/3j3OkKSpuBUnaeAf33gTmKV/TjE1Kjkp9QnLC4Miwi4inN2vaDqot37F8b2Q94vKE9PBnPaNPZ4arNR+vGuDDKzoNxIcaF2mcD7kgC/tJfKlgpcpu/kDDEM/pRDefqZsXvvbCFxqzqJqVi5oc7Unye/32r+DtU+/lWThM+CX8ilsnvKRRPW3Vx4oTFEfuStne5L+nOs+tp8r9Do81GL53zdWpdrpea38nrh4j3wcmfvoQMuyUM58kTphI/xHHUONO3jqI1hxeq/rhx4tK3DedTgniJ1LAZ276l1YfmC8WdfqnWO49uUcc/66vx2BE/bgJ67+UuVCp7RV241nPu1gkav643Xbp9Xg22U2/OxCpvtQBOHAfYEC+Ov8ZspmRJUjqJ5Zvgu/dvUY3Py8jM18EQ7xvIyBUEQAAEQAAEHAh0f+M7ypWmkBrKyxh2mfM2PXhyXw0rm6uy+EAvleq/dOus+PJ8k+q3068J5f6cCtDBkT55JupYZZRumXQlyt4Lm6lIpsj+khLmaIi3Iw/O02o/00q/2Iz8O89u5LZfHi2fa4foyt1zVDpHJQWTer754CoNXvaZasT+sekK3YcmakSN47Pfa0hlnpnxQRzx0QorAyvnb6DJQe/kMny7qiudu3lSd8GxHjyOuHj7lJzppIsoPPcf36WhK9rR+ZunHS/BDwIgAAIgAAIBTwD6qYAXISrgJQJm9PlZUuWgPjUn6e649tgCmrZptC4stsYJdvrHlQvVo8YvfKbW48S1A+Kj8Ch/6qTpaHCdmep1dnSZ24hu3r8uwxz710b2Ax5v8GFlPMPp7HLlPIwOjAv1dh6MCzEuNHpOQj3MX/pLhULJEM8zNPrVmqxre3/uGi9mUUR+/Wbmh1uX2KTHUSHlLBkb4zv8WUc3++Ptkh9TlQJRs9qdpT0iZsYPW9FBd9nxh1R3UXjYEH/1znnKk66Iemnr6VU0YX1/1Z8rbUHqXm2c6mdH9/lN6drdy24Vfhy35UsdXH5EwHH4YGV2lzkN1brbqbcd3pGlcf7XXx5cGOKdywhXQAAEQAAEQMCbBIxmT1y6c0Z+BHnsyn5Tt7LTrwnV/pwzsLzuQI/qP1CO1PmdRYkW7miItyMPO/1MK/1iM/K3onCJBskh4PDlnTR8RUcZ6m1DfN0S71PNws0d7hjdy4b03gtb0W2xEphyuOOhxFPOu8/9Q44zeJRrOIMACIAACIBAIBOAfiqQpYeye5OAGX2+kTF6wd4ptGD3VF1RYmucYKd/7G1DvA6I8LD9QDHEWxnPcH52uDqWR/FjXKiQiDwrcnIcrzpOnPR0PIVxoZ4zfIFHwF/6S0FviF+8f7qYZf4v5c9QgsrnqqFbYp2bTf8lbej09WOyBRn9cPOP8u6zGw1b2MXbZ1TDsWGE/wI/KNedXspZRY1y88E1WrTvVzHLPAE1KP6xbkb6yJWd6ODFHTJuhhSZqW/NycSz0pXjuNjfZs3R+ZQjTQGqlE8/+3zM6q66GfWuXqwPntyj41cP0MHLW2UZlPyVl7bir/58Y6pfvI3ipfO3TlLfRR9Iv7sXe7bUeahX9QlqWnawQu3Q5R1yCcoMySOXY1AijF/fh7afXk92622Vt1IOV2flwV38Lc+IT+Eqqtev3b1/m2p+ETnDC4Z4r+NFhiAAAiAAAiBgSKBwphepfcVhhte4X7T66Dz69/hyevjkgWEcu/2aUO3PGcIUgcWylqXPXh2gu8z91xNX91OBDC9Q4vhJddfYozXE25WH1X6m1X6xGfnzzHF3/XJn+fDHsLx/Zm6x6kOSBMl07AYt+1RwPUQfv9JH7K+ZhApnLKW7fu3eRboktr56LJam/3FtPwp/Fu62HLyVw9e1pojxTTxdXrzMPW/dxat1aY8Nx/+iKf8OV4Oc1SPiWQRdu3eB0iTNpBtbPRNbOn36+xsUHhGu5gEHCIAACIAACAQDAeingkGKqIM3CBjp8x23mm1U8iOqWuBt3e0c48TWOMFu/9iXhnjFfsDjDavjGbtcdULTeDAujIKhlRPGhRgXRrUMuJiAv/SXgt4Q76q5Tdk0lDYcW6pGMfrhVi8aOGZsGy2WaF9gcEUf9PWbv8i93ZXQf08up0kbB0tv7aItKOtzeZVLtGjPVDpz47j0v5a/NjUv9aV67apQLvVe8C49FXu58NHipfb0ap431evaL5Q40EhRdfr6EZq+dbRQqh2U6YxWCei1sKW6TPznFQeL5T1Lq/dYvH+aug+8uxe749d84aLcQ1d8LhV6nKHjUq9bxGz8n8RsfLv1tspbraQLR9SDuylWlqav+cVLsnQwxLsQEi6BAAiAAAiAgBcJxI8bn9q+1j+aEVJ7i4fCmLnhxF+06tBsunznovaS7X5NqPbndBA1Hsf+7+OnD+kb8WHtpdvn5FKJXauOoeyp82lS6A3xsdXPtNovNiN/rqy7frlRPgcubqOxq3vIsUW+9M9T5ypjdNzm7ZkkxibT1bAh9WbqtgP4aeM3Yi/31ep1drgrR/k8b1Crl7ro0oxa1YkOXNghPz7+7LWB9HymKIO/40fCRvU4Kva1/35tb7mv/esF3qJmJb/Q5d99fjOxmtclXRg8IAACIAACIBDoBKCfCnQJovzeImCkz+dtXI9d2yf2R09M+dMVU7dpVe55/f5l+mpeC/khqRIWW+MEu/1jXxjiHe0HzMjqeMYuV0U+jmeMC0lMLtXbeZiRu/GY0XgK40LH1gV/MBHwl/5SSBvi2fD725YxUmnDjcvoh9tVo1P2SncVh691qDycCooZOsrBS9AvPzSL1h1d5FIp1Kx0O3o9X10lGc3e/RMt2Ru1p0uO1Hnpq+o/qtfdLTXCX0d1n9dMzkpXEwnHwDrTKK2YPaIcygcKkfvDzxMz9xMrl2jQsraqEd/di73HG99TTjFzXzn2X9xKo1d2VbziA4SclDvt86r/vNjj8ejl/WS33lZ5qwVx4fCXBxeGeBdCwiUQAAEQAAEQ8DIB7hO1KtuZyuas6jJnnpU7URgnt55aq8az269xHCiHSn9OBejg6FvrZ7GyUk41dNuZNfTjuq9Vv9FHptoZ8XblYbWfabVfbFb+7vrljvnwBwxfLWhBtx7cUNn1rD5e9xHDnvObpKFeieANQ3zjUp/q9oY/dmUvDVkeZTjPm74wdakyVrmlPHf4s546XnOsx73Hd6jb3MbqKmWpkqSmoXUjtx1TMhmw5CM6df2o4sUZBEAABEAABIKCAPRTQSFGVMILBDzV5995dJNG/P0lnb95Wnf32Bon2O0fe9sQ72y8aXU8Y5erTkgaD8aFxnYejAsfyVaCcaHmYQlxp7/0l0LaEM9t8OKd0zTgr4+l8sbTH26zhvg3nn9bLP/+kWGT5y+X1h6bT5tOrBRleKiL07nKKMqXvpgaxksqsjFbOXjpRq2hm8Pbzaql5uOoqLrx4Ap1ndNESa6e3y75idiHvqHq/+fEMvrlnyGUK20BsT/892o4G/o7z25AEWKJRz7cvdiH1ptFqRKnUdPP3jWBluz7XfU7c9itt1XezsqjDVce3EXfihnxiT1fmj4sjHewIeJlMj097j64TbUwI95TbIgPAiAAAiAAAl4j8HzmklQpf32xWtBLpPymO2buaIy3268J1f6cI1fFP6LBn7rly2duH0srD85VLsvzhGZ/6/xaQ7xdeVjtZ1rtF5uVv7t+uZl8HPdu5OXiByz5RGXpDUN8pyojdDOS5u+dTAt3/6regx3fN1lC8eLEV8NGrOxAhy7ukn539Ygnlrz/vknUimecCIZ4FSUcIAACIAACQUQA+qkgEiaqYouAp/r8CRu+Fh9Or4l2z9gaJ9jtH3vbEO/MfmB1PGOXazRB/ReAcaGxnQfjwsgGgnGhsycn9ML9pb8U9Ib4vw//KfZN30RJE6SgwmKZw6KZXxbKu5S6Fjdrx3e04sAcwxnxW8Ws+SNiuUOjg/O94rD8qFG81EnTUsfKI8X+9FmMLsuw2w9v0OhVnensjRNqnNEN50Xbq1G96MTRa2ErsTTnWXnVnaJKyaJAxuLUsdJIxUs3xPI8Xec2JUdFo+Meje5e7I5KtMn/DqaNYg9Vd4fdelvl7a5cfF19cEf/GytL09dqX1YWEzPizUgLcUAABEAABEDANwRY2fNqvjepQu5alCxh9A/zrt27JFch4rvb7deEan/OmeR+aLJMLmGuXJ+4sT9tPrlK8cqzK0O8XXlY7Wda7Reblb+7frmZfKoXaUL1i7VWWV65e56+mt9S9XvDEO/If9qWEbT2yGL1HuwYXPc3Sp0kvRr2uxir/S3Gany4qwcULio2OEAABEAABIKcAPRTQS5gVM80AU8N8Zzx2DXdaM+5Lbp7OPZTdRedeLR6eKvjBMf7eto/jilDvNXxjGP9nKDUBWu56i5oPBgX+s4Qj3GhpqHBGfAE/KW/FPSG+B/W9aIdZzaqDSZ10nTUt+YkShQ/iRq278JW+nZVV0NDvGN6NZGHjiQJkoklTTtRiSwVnM6geiD2Fx0g9ri8fOeCzP0HMZsjrpjV4cnRe9G7dPHWGZnEnaJKyZeXWx3ZYC4l1jDpNq8JtSjTQcz4KqNEI0cW7hR+45supzhhcdT0kzcNoY3Hlql+Zw679eZ8rfB2Vh5tuL88uDDEa6UCNwiAAAiAAAjEDgE2+lUsWIcaFv8kWv+u0+z6dPvhLbLbrwnl/pyRVB37l0b7lLsyxNuVB5fJSj/Tsdxm+8Vm5e+uX24mn6qFG1CjEp+q2G8+uEpd5jRW/d4wxDvy/0V8qPuPw4e6/d+aSuk1HzDP3f0zLd47Q5bDXT1giFfFBQcIgAAIgECQE4B+KsgFjOqZJmBkiF9x6H+0T0ygS57oOSqY8UUql6u6Lr9bD69TN7FqbPizcDXcsZ+qXnDh0OrhOZqVcYLjfT3tH8eUId7qeMaxfi5wqpccuaoXNA7H8mBcGAkH48JIDhgXah6WEHf6S38p5Azx3O4c9zS5dOcs9VrQyqeGeKW98/4UZXNXo5dzVqNMKXIower5j53f0/L9f0p/n1oTKUvKXOq1dccW0vpj+hkj6sX/HGeuH6OnEU+lz52iSpu2TYWeVCp7RTWIlYPNSn6u7g//NOIJffm/uuqy9xzR3YvdcYmYObsn0l97f1Pv4cxht97afD3hrU3nzK19cJPG8NL093hpesyIdyYahIMACIAACICA1wnwB4UV8tYQRvaoDwsPX9pJF/776FG5Ye1iLemtIu8qXnkeu6a7mGWxmez2a9Cf02GlUQ3nipWukquB07eOojWHF6p+drgyxNuVh/ZGnvQzrfaLzcrfXb/cTD5vFW9FtZ9/R63ihdsnqc/CD1S/NwzxfWr9JMY3udU8/9w1npbu0+/p/m2jBboPhLUfA7urBxQuKlo4QAAEQAAEgpwA9FNBLmBUzzQBI0O8tv/IGTUq+RFVLfC2Ls/hYp/4w5d2q2GxNU6w2z+OKUO81fGMN7mqwhIOjAt9NyMe40JtS4M70An4S38p5AzxvEP36EbzhXInqdqGLtw+JZRM78eIIV69qXA8n+lFavvaQN0eiHvO/0tjV38lo31Qrju9lLOKmmTx/uk0d+ck1e/O4U5RpU1fJmdF+rBcTzXo4p3TlDF5dtW/98IWGrOqm+pnhzuFn+MP7eZTf9PEDQPVPDKmzEYvZKug+i+LDyK2nVpHduutZujgcMfbIbqhV3lwF4z6l5Inib4U7aNHj+jBgwcUERFhmF7ZT9bZHvFx4sShxIkTU8KECaOlv3P/Nr35JZamjwYGASAAAiAAAiDgIwIZUmSlb2pP0eW++shcmrFlrC7sxewV6OMK/XRhypLpdvs16M/psJLjbOm1R+fTtM3fqpH44wmeHaE9tHvE25WHNl+t210/02q/2Kz83fXLHfO5+eCamO2uV0Z++mo/KpE1qm9+5PIuGraig1pNR0P8lE1DacMx/X7s7srxfrluVDZnVTVPx62vUiZ+jobV+596nR09F7RQVwxzrIfjHpYwxOvQwQMCIAACIBDEBKCfCmLhomoeETBjiOftxEbUn61bxYy3s/196/fqvWJrnGC3f+xoiD936zj1WxS13RSvDjy4zky1nuzoMrcR3bx/XYa5618rCa2OZ3zFFeNC7xjiMS5UWjjOwUrAX/pLIWWIT5owOTUp+ZnOuM0NzNdL0/Myj4rh/9kzErM+ZtLj8Meybbd97RsqnqWc2s6PX91Pg5e1k37HPdp52Zye81uIWemP5PWiWUpTSc0s9sfhD2mmUAxH8E3EYfaHlOMyG+6QaJeS53DlmL51tJhttEDxyrM7RVvzMl/Qa3nfUtOEi5n6XwlF2vV7V2SY4w/xiWsHadDSttH2pve03lZ5qwV14Yh6cP+hZAYz4rdv305Lly6la9euUdy4cXUdPM7WmSGeDfNsvE+ZMiVVq1aNypQpE60Ud8WM+De/fFmGY2n6aHgQAAIgAAIgAAJeJ5AofmIa00g/25r7JcNXtKdLt8/J+3Hf6YPyPai0pk/GFxTjL/pzkWLxtD8XmSr6X8dVnHj59K9E//hJ+BMZueGLH1G1gnoDsyILjmBXHlb7mVb7xWb78+765Y75MIupm4aJ1baWsFMuozm07u9iNaxE0s9/Vh2ZQ79t+U71Oyrf/hIfCc9x+EjYXTmqFW5IDUt8oub5RIyJus9rKrZxuCnD6r/wAVUv1Ey9/vjpQ/r8j9qmxzcwxKvo4AABEAABEAhyAtBPBbmAUT3TBMwY4jmzXjV+pGzP5VXzdVz9KbbGCXb7x6/mq0UtSkd9PMv9585zGhFvgRsnLIyalf6cXtXo5xmAFUO81fGMXa6qwBwcGBd6xxDPWDEudGhc8AYVAX/pLwW9If5J+COh2LkhlUrJE6YybEQzt4+llQfnGs6Iv37/Ml29e94wHdu7f9rwjao4MorEM/BHOiyhyUqrBbunyjJ1rDxSdALyqEm1s94LZXqBvqw4XL3Gjm1nVtPS/TMpftwE9PErX5O2TpfunBFL7L+rxndUuDnOGFEj/ufoXGUU5UtfzDFY+nnPeMWArkRwp2gzKj+vPrDp5ApKkzSj2J/nDYor9lZVjhWH/qBZ28aTUTqz9bbDWymHq7Py4M4f+Y/hjPhNmzbRihUr6N69exQ/fnyKFy+qfq7yDQ8PJ55NnyhRIqpSpQqVL18+WnSeEf9WBxjio4FBAAiAAAiAAAj4kECvGhN0fTW+FSs1dpxdJ853KW/aopQjdX5dCVj5wcqN+4/v2+rXcKah2J/TwXTwOCqa+DL3Ew9d3km5Uheml3NVc0gR9VEEX4itfqbRfc30i83K312/3DEfZsEfL6w5Opcu3j5NL+WoIsYBxTlYPcat7Um7zv6j+h2VXdzOV4sVCY5f3UfbT6+X8dyVI3+GotSp8mg1T3acvH6Idp/bKD8G4I9448eNWhnq6JU9NHR5ezW+Yz0cxzcwxKuo4AABEAABEAhyAtBPBbmAUT3TBMwa4huX+pQq52+gy7fDn/Xo7qPbMsyovx4T+mi7/eMimUvR568P0dXr4KUddOzqXiqS6aVoY1WOaMUQb8THzHjGKJ1ZrrpKOXgwLvSeIR7jQofGBW9QEfCX/lLQG+LdtZqzN46JGUvtpULV6IfbXfq+i9+j8zdPu4z28at96cWsr+jiRDyLMJx9PmzF53Tk8j41bpeqoylvuqKq35VjxrbRtPpQ1Kx1d4oqx7wcv8BTrjsuaaOEu1O0cbz2lYZQ4YyllCROz7wH/ZBln9Gp60dlHDv1tsPbaQH/u6B9cJMljtqfVEnHy9KvW7eONm/eTE+ePKEECRLoZsYbzYhnI/zjx4+Jl6UvVaoUvfbaa5Q0adTWCUredx/cgSFegYEzCIAACIAACMQQgRezl6ePyvdTV7Uxc9slB36j2TsmqlHt9GtCtT+nwnNwJI6fhAbWmaHbJ94hSjSvdkY8X7QjDzv9TCv9YrPyd9cvd8wnGiSHgCt3z1Hvhe9ReES4euXNYu/Qm0VaqX6t45OZ1WRcd+XgNB0qD6OCGV7UJnfqHv73F2Lvzr3qdcd6wBCvooEDBEAABEAgxAhAPxViAkd1nRIw0uc77hHPicvmqkLvv9xdl49jvNgaJ9jpH6dKkpoGvTVTTHaLq6ubK48VQzznZ2U8w+nscOX0RgfGhd4zxBvxVcIwLlRI4ByoBPylvxTShvjd5/6RM9qVpd6NfrjdNTAzhvgsqXLQl5VGUIpEz7nMbuvpVfTzhkEU/ixK4ZUmWQaRdhilT5bFZdpDl3bSd2t6qMvWc2R3iirHDDOkyCL2QZ3qGEwL902h+buih5tRtHFn4IuKQylLylzR8lUCeFn2qZuH6faYtFNvO7yVMjk7H1x5jp6Jf/NGbBAz4lMaRrt16xbt37+fFi5cKGfE837vvEy90aEY4dkQX716dSpSpAilTp3aKCrduX+L6nQsT2Hi39qJB2WcNjMqG8ZFIAiAAAiAAAiAgPcI8CyDD8v1kjN2XeXKfZo5eybSkr36Pfjs9GtCtT/ninO53FXp3bLdDKPwalapk6TXXXM0xNuRh51+ppV+sVn5u+uXO+bDgB49fUAJ4yXWsWIPfyA7ZnU3Onhxp+5akgRJqEOlkZQ9dT5dOHs8McSnTppWjg8ypcgRLR9twJ+7xostvf7QBrkd32BGvA4XPCAAAiAAAkFMAPqpIBYuquYRASN9vqOBnTPkfnyfmpN0eTvuEx9b4wQ7/WOu0DtlO1KF3DV1dVM8J68dopxpCiheebZqiLcynuEb2uGqK7iDB+PCJg5EiDAujESCcWG0phGyAf7SXypYKdK+G9Z6eqXIjcUDWCTuvgDjZUTP3jhCp28epZNiP/ItJ1ep+w1ytd2ld0TDytavFjQXS9dfcrwUzc+dgjcKN6FSYv/QpAmiZlJzHlfunacl+2aoezQ6Jub922s835TKix9UbVqeVX/t3gWxpOQCWr7/D2Ee1h/Fspalz14doAbycjF9Fr6v+o0c/d+aGs3oP3Dpx4LXkWjRHZe+uXbvotjjsXm0eAnjJaSqhd+WHQJWjPJe8bwk/YMn9+jApe1imf7JdO7myWjprNabM7LDO1pBNAFmHlyOzkvT//PPP7R8+XJKnDixXKaeZ7xrD5Y9G+B5Fv3rr79OFSpUoOTJo9qGNi67YYh3JAI/CIAACIAACMQcAVYeNCjRWu4rmE58IMl7wysH71N+5sZRWnl4Nu07v00J1p2t9mtCuT+nA+jgeVkY4xu+8LHcpon7VA+f3pfL08/cOpY6Vh5BLCPlGLDkI3XVJSXMqjw4vZ1+pqf9YrPyd9cvdzTE33p4nSas70uNX2wn27SyatP5WydpxtZvxSz03Qoq3Zm51SvxgZzRnjJRamnI5yXqv/jjLfkxsbtyKJmxUb+aGBu9mudNSpYwhRiTRa0WxktpLtk/g/Zf2K5EV8/ueMQNi0vfNpqv2+u+96J36eKtM2oecIAACIAACIBAMBCAfioYpIg6eIOAkT5/9KrO0fqS3E8c8/ZCud2rct+dZ9fT92v7KF55jq1xgtX+MRc6ftz41LhUW3o5Z3V1nHry+gHac34TrT48l0Y3jFpBl/XyvIe8siS/u/61Do7weDqeUdLb4arkYXTGuFBPxd14DONCjAv1LSb4ff7SXwoqQ3wgNBtW2iZPlJISxU8qDNJP6NaDG2J/xsemih4nLEykTSU7DGzIvn7vstzb0VRiP4mUKH5i0SGIKzsFyg++u6LZqbcd3kblUpaymDdio+Ee8UoaVghfv36deM/4tWvXyr3fec94RcnJ13np+ocPH9JLL70kjfBp06ZVryv5aM+8R3ydjuVk0LqJh+QZM+K1hOAGARAAARAAgZghwIqO9Mkzyz7c3Ud3xF7wd03f2E6/xvRNfBwxpvtzzqrDyrTUydLR46eP6M7Dm7oPbJ2lcQy3Iw+7/UwrHB3Lb9ZvpHDpPLuRTJ4kQTLKkCIz3bx/jW6I/zF9sCGel9JMID7e5TLwHoU4QAAEQAAEQAAEXBOAfso1H1wFAbsEYnOcYLV/zOOjROKDVza2P3zywC4Ct+mtjGfscHVWIIwLnZGJHo5xYXQmCAluAv7SXwqqpemDu8mgdv5AIOrB3UDJEqdwWSQ2tt+5c4cWL15MO3fuJF6ino3xfDx9KjpEwghfqFAhqlu3LqVIkcKlEZ7T3H3Ahvjy7CQY4iUG/AEBEAABEAABEAABEDBBwJXCxURyRAEBEAABEAABEPAzAtBP+ZlAUBwQAAEQCAACGBcGgJBQRK8S8Jf+EgzxXhUrMgt2AsqDO3c47xHv2hDPLCIiIujq1as0d+5cOnbsmJwZz+GPHj2irFmzUoMGDShDhgzkuGw9x3E8eEZ83U4wxDtygR8EQAAEQAAEQAAEQMA1AShcXPPBVRAAARAAARAINALQTwWaxFBeEAABEIh9AhgXxr4MUIKYJeAv/SUY4mNW7rhbgBOIenDXu50Rr1RVMcZPnz6dzp8/L4N5GfpWrVpRunTpKG7cuEpUl2eeEV+3UwUZBzPiXaLCRRAAARAAARAAARAAAQ0BKFw0MOAEARAAARAAgSAgAP1UEAgRVQABEACBGCaAcWEMA8ftYp2Av/SXYIiP9aaAAgQSASsPLi9RHx4eLmfEz549Wy5LX79+fSpQoIA0wiv7xrvjAEO8O0K4DgIgAAIgAAIgAAIgYEQAChcjKggDARAAARAAgcAlAP1U4MoOJQcBEACB2CKAcWFskcd9Y4uAv/SXYIiPrRaA+wYkAeXBnTNsnekZ8UpFeV/4ixcvyuXqM2XKpO4Xr1x3d2ZDfL3Or8homBHvjhaugwAIgAAIgAAIgAAIKAQSxE1A2VLnUbx0//FdunDrjOqHAwRAAARAAARAILAIQD8VWPJCaUEABEDAHwhgXOgPUkAZYpKAv/SXYIiPSanjXgFPwM6Da7fyMMTbJYj0IAACIAACIAACIAACIAACIAACIAACIBD4BKCfCnwZogYgAAIgAAIgAAK+JeAv/SUY4n0rZ+QeZAT85cHFjPgga1ioDgiAAAiAAAiAAAiAAAiAAAiAAAiAAAiYJAD9lElQiAYCIAACIAACIBCyBPylvwRDfMg2QVTcCgHlwZ09dK3HS9Pz/ZT94HnfeE8PnhFfv8urMhkM8Z7SQ3wQAAEQAAEQAAEQAAEQAAEQAAEQAAEQCA4C0E8FhxxRCxAAARAAARAAAd8R8Jf+EgzxvpMxcg5CAnYfXDtIYIi3Qw9pQQAEQAAEQAAEQAAEQAAEQAAEQAAEQCA4CEA/FRxyRC1AAARAAARAAAR8R8Bf+kswxPtOxsg5CAn4y4OLGfFB2LhQJRAAARAAARAAARAAARAAARAAARAAARAwQQD6KROQEAUEQAAEQAAEQCCkCfhLfwmG+JBuhqi8pwS0D27SRMk9TW5rafp7D+9gaXqPiSMBCIAACIAACIAACIAACIAACIAACIAACAQXAeingkueqA0IgAAIgAAIgID3CfhLfwmGeO/LFjkGMQHlwf1zyBpLe8TbQcNL0zfo+prMAjPi7ZBEWhAAARAAARAAARAAARAAARAAARAAARAIXALQTwWu7FByEAABEAABEACBmCHgL/0lGOJjRt64S5AQOLjyLIlp7TSlz0JKmjhZjNbq3oO71KpfbaJnz2jtxEPy3m1mVI7RMuBmIAACIAACIAACIAACIAACIAACIAACIAACsUsA+qnY5Y+7gwAIgAAIgAAI+D8Bf+kvFayUVcIKaz290jP/x4YSgkDsEji98yo9uPWYnkU8E/bwmH1kwsQHAGFxwihxygS0ZOguCQKG+NhtD7g7CIAACIAACIAACIAACIAACIAACIAACMQ0AeinYpo47gcCIAACIAACIBBoBPylv5S9RFqJDob4QGtBKG+sEHh09wldOnqL7l9/SFbM8MKULsstzPgel59TJkmdiDLkTUlT2qyV6WGI9xgjEoAACIAACIAACIAACIAACIAACIAACIBAQBOAfiqgxYfCgwAIgAAIgAAIxAABf+kvJUwWX9Y2TMzu9dwyGAOgcAsQAAEQAAEQAAEQAAEQAAEQAAEQAAEQAAEQAAEQAAEQAAEQAAEQAAEQAAEQCEQCMMQHotRQZhAAARAAARAAARAAARAAARAAARAAARAAARAAARAAARAAARAAARAAARAAAb8lAEO834oGBQMBEAABEAABEAABEAABEAABEAABEAABEAABEAABEAABEAABEAABEAABEAhEAjDEB6LUUGYQAAEQAAEQAAEQAAEQAAEQAAEQAAEQAAEQAAEQAAEQAAEQAAEQAAEQAAG/JQBDvN+KBgUDARAAARAAARAAARAAARAAARAAARAAARAAARAAARAAARAAARAAARAAARAIRAIwxAei1FBmEAABEAABEAABEAABEAABEAABEAABEAABEAABEAABEAABEAABEAABEAABvyUQturczGd+WzoUDARAQEfg9cyNpX/1+d914fCAAAiAAAiAAAiAAAiAAAiAAAiAAAiAAAiAQEwQgH4qJijjHiAAAiAAAiAAAsFAAIb4YJAi6hAyBDDQCRlRo6IgAAIgAAIgAAIgAAIgAAIgAAIgAAIg4JcEoJ/yS7GgUCAAAiAAAiAAAn5IAIZ4PxQKigQCzghgoOOMDMJBAARAAARAAARAAARAAARAAARAAARAAARiggD0UzFBGfcAARAAARAAARAIBgIwxAeDFFGHkCGAgU7IiBoVBQEQAAEQAAEQAAEQAAEQAAEQAAEQAAG/JAD9lF+KBYUCARAAARAAARDwQwIwxPuhUFAkEHBGAAMdZ2QQDgIgAAIgAAIgAAIgAAIgAAIgAAIgAAIgEBMEoJ+KCcq4BwiAAAiAAAiAQDAQgCE+GKSIOoQMAQx0QkbUqCgIgAAIgAAIgAAIgAAIgAAIgAAIgAAI+CUB6Kf8UiwoFAiAAAiAAAiAgB8SgCHeD4WCIoGAMwIY6Dgjg3AQAAEQAAEQAAEQAAEQAAEQAAEQAAEQAIGYIAD9VExQxj1AAARAAARAAASCgYBbQ/zD+4/oyZOnsq6JEiek+Animaq3Nl3iJAkpXnxz6UxlbiLSvTsPKCIighIkiE8JEycwkSL2o3B5zxy7QGePX6B0mdJQrgJZKX7C+LFfMA9KEP40nC6du0aZc6T3IBWimiXgyUAH7cksVd/HY1nwO4mPJEkTUdx4cX1/Uxt3CLTnOND42hANkgYAAbTHABASiggCIAACIAACIAACIAACIGCLgDv9lKIXDgsLo2Qpkpi+V6DpI0xX7L+IGC96SgzxA4EA2nUgSAllBAEQiE0Cbg3xn77Zkw5sPyrLWLlueeo5rp3b8j55/JRaVmgvDLJXZdxPerektz+q5TadtyI8e/aMKmVtKrMr9VoxGjajh7ey9kk+R/edotFf/UxH956kRw8eq/eIEzcOZcudiZq3q0dVG1RQw/3VwZ3slq9+SVcvXKdXa71E/SZ86a9FDdhyuRvocMXQnvxPvFvX7KHOzQbIgrUf+AHVaVXV/wr5X4kC8TkOJL5+K3gUzGsE0B69hhIZgQAIgAAIgAAIgAAIgAAI+CkBd/oprT75z50/Uup0Kd3WJBD1EW4r5RAB40UHIPAGBQG066AQIyoBAiDgQwJuDfGf1PqKDu48phZhwtLBlK9ITtVv5Phz4hL6rs9k9dLHvVpQ449rq35fO7SG+JKvFqXhv33l61vS9vX7aN+2Q/I+jVrXokRiFQAzx7rFm2nA59/pDPBG6eq++wa17dsyxlcWMCqLs7BDu47RxzUjWSdJlogWHZrsLCrCLRJwN9BBe7II1sfJtqzeTV2aD5R3+WLA+1T33Wo+vqPr7F29rwLxOfY3vq7p42qwE0B7DHYJo34gAAIgAAIgAAIgAAIgAALu9FNaffL/doynNOlTuYXmC32EK/2H2wL5IALGiz6AiixjnQDadayLAAUAARDwcwIeG+LLvF6chkzv7rRa/PVi07Lt6Oa122qcUDDEj+01mWZPWiLr/Nu/YyljtnRq/Z05ePZ77cLv01OxggAfxV8uTBXeKE3FXipIxw6cpn+Wb6ON4j8vy8RHp2EfUa1mFaXbH//wBxAjuvxEh/ccp1pNK/v1rF9/5GemTK4GOmhPZgjGThx/65C6el8F4nPsb3xjp5Xhrv5CAO3RXySBcoAACIAACIAACIAACIAACPiKgCv9FN/TiiHeF/oIV/oPX7FxlS/Gi67o4FqgEkC7DlTJodwgAAIxRcBjQzwXbOQfvemFcoUNy/jrt7Np0tBZumswxOtwqB7tsi3l3yhF/Sd1Uq8pjvm/rqBR3SZKr7M4Slycg5+Aq4EO2pP/yt/fOqT+NhC1Kzl/42u3Pkgf2ATQHgNbfig9CIAACIAACIAACIAACICAewKu9FOc2ooh3v1dPY/hb/oPjBc9lyFS+D8BtGv/lxFKCAIgELsELBniC72Qh75fGLnfsbb4t2/cpWYvt6N7dx5og8mVIZ5ne+/69yBdOH2Zbl2/Tc+lTUmZc2YUs8ILUFhYmC4f9uwX+9VzmtRiSaMsOTPI66ePnqfDu49TlfqR+6i7W5qer+/fdoQiIp7J9FyfePHjSbf2z4EdR4nz5nplz5uZ8hXNFW1PI75+6/odmjVhIa3/a4tM3uv7zyldpjTSnff5HJQ4aSJttqp7woAZ9Nv386W/x5jPDPeBDw+PoFoF3pVL1ydMnIAW7J9E8RNELytnYqa8ys1dcaxUtxzt23pERk2eKinlzJ9VSaY7P7j3UO5HzoEZs6ajdJlTyzI8fRJOKVMnl8x0Cf7zHNl7ko4fPE23rt2hTGLlgFyFslPmHOkpTpw4RtHVME/qpyYKMoergQ7ak2ftidvhiUNn6MaVW5QqbQrKkTcLFSyRx1aL4Wdi29o9dOHMFdm2S5R/npKlSEKedEittPOTR87RCbGKxpUL1yl5yqSUSTxPvLKG4zNl9n3FZTB6jpX3Rqo0KShbnkySFb/vd2zYS3dv36fcBbNTHvHOixvX9bPs6XtfEYo3+PpC7lbrw/WyUx6zclf4OTsbyfX2zXu0Y/0eevzoKeUulE38z677Tebf0cN7TtCR3SdEe8tA+Yvlkm3P2T2UcE/at1IuV7/3Sr7K2crvi1X5xXZ7tCL/i+LdlDBxQtHXSqEgwxkEQAAEQAAEQAAEQAAEQAAEPCbgSj/FmVk1xDvTRygFNDsOMqv/UPK1Oi5U0juevTFe9GT87Hh/R79ZbpyOddEHhP6dx/3pMqU2XPX1ptDpnjl2Xt6G9QVJkyfW3VIZz2v1RxdOX6Gta3cTa/tZd1Tohby6NM48nnBQ7utOj6DE05YPehDn9hhFNt5o1/6gB1PqgzMIgAAIxBQB04b4uPHiUsU3y9KKORtk2fr99CW9WvMlXTl/7D+dZv6wQIZVrf8KLZ+9TrqdGeLXL9lCY3tPocvnruryYU+ugtmo68iPqUDxKMOY1sBeo/Hr9Iq4/7i+U+jciYvS2L348GSZjzae0R7xk4f/QVNG/SnjZhfGt/GLB+iM5WeOXaAB7cbSoV3HZRztn7daVqXP+r1D8RPGl8EdG/cX+8Pv1UbRuYdO70GlXy+mC1M8vwz7g6aOjixHm6+aUdNP31Iu6c5HhLHjoVjGnj9MKFI6v+4aezwpL8fX8jHi+L/tP1CdIh9KQ1zajKnpj23fc7Jox6IZq2h45x9leJseovxt36JKWZvK/I24cyd48Jffy86cY2Z5i+SkPuPbU9ZcGR0veVy/aBkEUYCrgQ7aU5SgXbUnbodDOvwgP8aJShHp4g9nOg5tY8kgv2L2ehrT6xe6IwyYyhEnThjxu7BinXLUreVgGexsj3hPn2PO7Mr56/IZ3Lx6l3JL9Zwpe3r6ctCHuveP2feV0XOsfW+8Ln4LWn5Rn0aK1Tp4QBQhBmnKwR8A9J3Qwamhz9P3vpKvXb6+krvV+tgpj6dyVxganR3l2uyzujSq+0Q6tPOY+rEapytfvRT1+LYtxRcfrY3r+yutXviP/AhNyZM/vurz45dOV8vxtH1ry2X0O6X83iv3t/r7YlV+sdkercr/+37T6A/x0SD35zoOaU01mryu4MMZBEAABEAABEAABEAABEAABDwi4Eo/xRlZNcQb6SM4P0/HQWb1H5y31XEhpzU67I4XPR0/G5VBCfOUG6fjSR5vl/pUZlGzSUXqPOIjJTv1PH/qcqE7+Fn6v5nYkSrUKK1e047nX631Er3XqRH1aT1STnZTIwnHixWKSD1CCjEJzOjwlIP2vq70CNp4rN+CHiSKvpE9Rrlqt137ix5MqQ/OIAACIBCTBDwyxP+6bjS982p7aaDlGeKTVg5XZz5eu3STmpVrR48fPqGSrxSVs9OHfPmDrIuRIZ6/PPuiQV91f/T0WdLKGdR7Nh+Us785YQYRNnHFUDmjlP3aH8o8hbPTuZOXiPek54NnnSuKeW08R4Pw2sWbxI//KJmGZ3v/sGigOrOeA5+I/do/fbMnHRWzZflIk+E5Sp8lDZ06fJbu330ow4qUKUBjZveVhvGuLQaL2a67ZNnkxf/+KLP5h//ek14Us2KNju3r91HHxt/IS2w0GzS1K+XIl8UoqtMwT8vLGWn5OOPYvdVQ+nfFdnnfCUsGydUAHAvR8/3htGHpVhn86/rR0ojurMPMnafP6vSSqwtwAubDbK9evK5mmyRZIhonVlrIqWFgpX5qhkHocDXQQXty3564Hbar21tnQOR2eO3SDbW1JEqSkEbM7EmFS+ZTw9w5/lmxg756d6j6HogjZoQnEB/rKO+ndJnTiEHjNZmNkSHeSjt/9PCxeKZ6q++qePHjilnLOcTqIpfUjwF4FQ1evSS3+LCJD7PvK6PnWPve4A90Hj18pN5HZq75wx8f9BjbVhMS6bTy3ueUdvn6Su5W62OnPFbkHk0QmgCtXPlZeMxyvXVfEyPKWadVNTohVjPZvelgVKDGxcb43zePEzOuE2hCPf9d5cTacjn7nVJuYvX3xar8YrM9WpU/z+6oVfA9tX/lbGUjhSnOIAACIAACIAACIAACIAACIOCKgCv9FKfzpiHeyjjIrP7D6rjQGRu740Ur+iFnZbHCjfPypiE+a+5MQp/+gK5fvimLyTPQb167rRZZq2NXA4XDCgezegRtPOhB3NtjWC5227U/6cG07QxuEAABEIgpAh4Z4lecmk7avXU6iZmjtZpXkmUd1e1nmv/rcun+YdEAOikM164M8cM6/kiLZ66S8T/p3ZLe/qiWdPMSJ5yXMpv+y8Ef0lstq8hr2h9KGSD+VKzzMlVv9DrlKpBNLo3O4dp4WkP8cbF0c9u3eknjGBvKhv32VTQj+Q9fT6NZPy6U2X/UswU1+aS2dLNBrf9nY1XDMy8/X0nMclUOLZff/h1ruGyPElc5PxKz3OsVb0NcZz7YANjwg5pUuUEFnTFaiW90tlJeLR8lT0eOS/9YS4PbR86E5y8X3/mygRJVnrkzx7PmuQ68BNHP4oMJPowMeBzeqekAuWQ3u/krya4jP5EfWPAyub8Mm0XL/oxcPaFh61rUtm9LjiYPK/VT0gbj2dVAB+0pCblrT12bDyJl9njluuWpVYeGcol1Xh6Ln/u5k5fKZsNtesLSweqHRq7aEi/Z9V7FjnLlBo5Xs2klavd1K7HdRVzaJj62mTLyD90qEEaGeCvtfNu6vdSpSX9ZNF5Sf9QfveU7hJ/v8d9MV99jLdrVow+6NdZVwd37yug5NnpvNPiwplwpJX+x3LR51U7q/eEIOYua369zdv9Ejl81W3nve4OvL+TOQK3Uh9PZKY8dufO9HQ9HufIqDk0+eYv4q/Ds4qMo/i0YJVY+0B7Pl8pPDYXsX6pUQg7Q+7YZKbZ5OCujdPv2U3qj4ava6GSlfTuWizN0/J1SbmL198WK/GK7PdqRf5vq3ejInpMSm7NZDQpTnEEABEAABEAABEAABEAABEDAFQFX+ilO501DvJ1xkDv9h5Vx5xvKQwAAQABJREFUoTMu3hgvWhk/OyuPVW7eNMRz2VjP8F6nt8WWrK9Qhqxp6aBYgY/1WcrWtl//1EGseltGVw0rHMzqERzjQQ9C0jbhzB7jjXbtT3owXUODBwRAAARiiIDHhvgbV29T83Kfyxc0z4qcJmZCXxNftb3z6pdy73Y2svKSNEtmrXFpiB/YbhydPXmBkqdISv1/6azb95yNYrzXPB/1P6ghjVrsdvyh7CCWVn2zRWW+pDu08RRDPO/j/nHNHtJQx5HbD/yA6rSqqkt3+dw1alwmchZnuWolaYAol/bgDkITcZ33QuZ9039ZNVy97K5jp0Z0cBwW++vyktU3rt7SXclXNCfVbFyJqgijPO8xbXRYLa+WD+drxPHOrXtUX3wkwPtEs5GPP67QHptW7lSX2tYa6o0MeLwP0Xuvd5TJeV/pSX8PE0bKeGp2vAdPcyFv5spfIvLS+HxYrZ+acRA63A100J6InLUnXo7r7dKRS2s9lzYlTdswmpIki9rDijuWrat2UQ2K34pVL3iZdXfHns2H6PN6fWQ0fm5//GuQXPFBScerhXxQpbM6C9/REG+1nf/2/XyaMGCGvI32oygO4OeXP6ThJeOLlC5AzdvVVYojz+7eV0bPseN7w/GenPE3bcfQyrkb5T14yw/t1iIcaOW9b5evr+RutT52y2NH7lIwDn+0cuWVSrqO/iSaIZ1XieH94fjgNj52zte6We9rF4mVZtpErjTT7LM61Lp7U/UuVtu3tlycmdHvFIdb/X3htIHYHu3In1ktEMsHJhJ7xDdoXZNSp0vJGHCAAAiAAAiAAAiAAAiAAAiAgMcE3OmnvGmItzMOcqf/sDIudAbLrv7C6vjZWXmscvO2If79Lm/L7Q215eQJWYM+HyeDeCu8/j93Ui9b5WBWj6CNBz1IlH7emT3Gbrv2Nz2Y2tDgAAEQAIEYJOCxIZ7LNnnE/8Qsz//JYvLe4DzTfMWc9dL4NGnlMGmkdmeId1XHiIgIqpqzhTQila38glyyneNrfyh56Zqxc/oZZqONx4b4Ib92o87NBtKODftk/DrvVKP2g96PlnbTql3UrcUgGT54Wnd6qWLxaHGGdZpAi39bKcOXHJ2qGiPcdeyiZaQJOH/qMn3fb6pY5mW7bq9ljsJL/FasXZbe6dCIMmVPp0lFZLW8Wj6uOHZrOYQ2rdwh7/nnzh91SvvR3SfRvKnL5LVfVo9QZ/AbGfD+mLBY1o8jf9ClMbX4op5Mp/1z/cotObs+rphJy1sB8GG1ftp8g83tbqDD9UV7IjJqT5vF8931v+f70z7vUKM2NaM1D94XrNcHI2S40cc60RKIgKmjZ8tVHfha276tqGHrGtGiad+HjoZ4q+18zcJ/qe9Ho+W9qtQrT91Gfyr3fo52c4MAd+8ro+dY+94oUe55MQO/V7Scp4+dSxMHz5Th3/ws9girXjpaHGcBzt77dvn6Su7O6qGEO6uP3fLYkbtSNu1ZK9cXxDYqI2dFl+vwzhNo0YzI3z2jDyx4iTH+GI+PauIL9+5jorYlsNq+teVy9Ttl9fdFy8DI7Ux+sd0evS1/o7ojDARAAARAAARAAARAAARAAATcEXCnn/KmId7OOMid/sNVPZ2NC52lsTtetDp+dlYeq9y8aYjnreZ+WjZEN2GFy8srz9Yp+qHc4pa3uZu75ye1GlY5mNUjaONBD6JiFytcGttj7LZrf9ODRdUYLhAAARCIOQKWDPG8lHqzlz/X7enCReblaHlZWj60hiejPeJlJIM//GN4R8yQ5pmrvNS2MqOdo2p/KLXhjtk4xsueJwvN+WWJjMY/sMNm9DA0WGkV+uP/GkjpMkUahLX5/yGWr575wwIZNFkYoJU93e107JT8eWWBZWIZ4CWzVtPpo+eVYHnmmeK837x2/3Sr5XXkM1ws0W90/DVzNQ3tOF5e6jLiY6rR5HU1WuMyn4kZ61cpe94sNGVNpOGSLxoZ8LRGnHEL+lPhF/Oq+bhyWK2fqzwD/Zq7gY62fmhPWhoklmpfJJbI/lUG8rYUpcRHOo4HL23ftGzkahzOPthxTMNbcPD7jg9+bxQQy7Q7HltW76YuzQfKYEdDvNV2fvPaHapXrLV6Kx7c1G5WhV6pVYbSpE+lhhs53L2vjJ5jM++NhdP+phFdIwdPfX9sT6+Jj4jMHJy3s/e+Xb6+krurermqj93y2JG7UZnNyPWngb/RjHHzZHJe8SF/sVy6rHjFmbpFI9tipbrlqNe4z9XrVtu3mXLxTaz+vqgFNHC4kl9st0dvy9+g+ggCARAAARAAARAAARAAARAAAbcE3OmnvGmItzMOcqf/cFZRV+NCZ2nsjhetjp+dlccqN28a4l3p79uJ1SX3ilUm+VhwYJK6IqxVDmb1CGbiQQ9SlBR7gd127W96MGfPC8JBAARAwJcELBniuUCzf15CY3tPVsvG+yH/um60uje6GUM8z1pdu3ATbVm7S+wze41uXLktl2gPfxqu5qv9wTbzQ8kJtfHUjIQjbabU9PPyoZTiuWTaYNU9sstEWjB9hep35xgiZs2X+W/WvNWOnbN77BfLALNRftHMlfT08VMZjb8QnLp2lFp+q+XV8tHydSwLL/HNy9OzPF6pUYa+nthBRjm2/xR9WLWrdLf8oj7xEkPKYWTA6yX2jV7/1xYZ5bdN31FGsR+QmcNq/czkHahx3A10nNUL7YloaIfx9NfvqyUifo54mwTHg9s6r8bBz0hRsSz9GLE8vbuj5/vDacPSrTLa75vHqSs6aNO5MsTbaecr522kweJDgCePnqi342W1Sr9enGo1rUjl3yhl+NGRu/eV0XNs5r2xaPpKGt5lgiyLM0O8p+99u3x9JXcFuKf18UZ5rMpdKbP2bEauPw0ShvjvnBvib9+4S3WKfCizdTTEW23fZsrFN7T6+6Iw8FR+/tAevSl/hQPOIAACIAACIAACIAACIAACIOAJAXf6KW8a4rlcVsdB7vQfnLen40JOY3TYHS9aHT8blUUJs8ItpgzxuvH8v2NVm4JVDmb1CGbiQQ8SZYi32679TQ+mPBs4gwAIgEBMErBsiH8ijMOtXutAF05fluWt9151+rz/u2rZ3RniV8zZQKO7TyTed1050mdJK5c/T/Fcctq8aqcM1hqKzfxQciJtPCVvPvNe6z8uGUyZc6TXBqvuLs0H0ZbVu6Q/TpwwEuvmqNeMHP0ndaaXq7wgL5np2Bnl4S5s96aDYqns4cSGDj4GTumq3tNqebV8tHyNytJVMNksmCROmojm7Z1I8RPEo1+/nU2Ths6S0ScuH0J5CudQkxoZ8Do1HUDb1u6Rcebs/olSpUmuxnflsFo/V3kG+jV3Ax139UN7iny+XbXDNwu9T3dv3xdbQaSnGf+McYeUOjUR7XtdZPuet+9nSpEqabQ0rgzxdtv5kb0nxYdRf9EasU83r1aiPdgQ32d8e/ncasPdva+MnmMz7w13hngr731v8vWm3Jmnlfpo5W2nPFbkrm0DituMXO0MQLX19eR31Uy5uA5Wf184rRX5+Ut79Jb8mQMOEAABEAABEAABEAABEAABEPCUgDv9lLcN8Vw+K+Mgd/oPK+NCZ6y8OV70ZPzsrDxKuKfcYsoQP/iL72np/9bKYv6yarjc6pY9vtYjmNE3QA8SZYj3Zrv2Bz2Y8lzgDAIgAAIxScCyIZ4LuVYYfni52jhiX282SqdOl1ItuytD/PGDZ6jNG93kTGtO0PLzelS10auULXfUDNU38rSU+8RoDcVmfig5P128V4oKw28K+nvuBr5EuQtlp3Hzv6FESRJKv/aP9gutP7b9QGkzPqe97NLtrmPnMrGbi9p9l7Uz0K2WV8dHLM+tLDVjVIxFM1aJpX9/lJeGzRDLeb9WlD6t/RUd2HGMMufMQNM3fKtLZmTA6/fxaFq94F8Zj/cFyvt8lOFel9jBY7V+DtkEldfdQMdMZUO1PY3uMYnmTVkmEf389zDKXTBbNFy8HUb1vO/IcJ5VPnR692hxHAN6tx5J6xZvlsHTN44x/NDHlSHeW+2c99fauHyb/EpcmaHPhTJaYt/d+8roOTbz3nBliLf63rfL11dyt1ofb5fHE7k7tl32m5GrnQGo1fZtplxcfqu/L1bl52/t0a78mSEOEAABEAABEAABEAABEAABEPCUgDv9lC8M8UoZPRkHudJ/WB0XKuVwPNsdL1odPzuWw5nfLLeYMsT3eHco/bN8uyzuX0emqLp6qxzM6hHMxIMeJMpeYLdd+5sezNnzgXAQAAEQ8CUBW4Z4VwVzZYj/vt80+mPCQpn8k94t6e2PakXLymuGeGFo7v9zJ2r7Vi86fuC0vE/luuWp57jIfaC1N9buQTP6zz5UvGwh7WWXblcdO6OE9+8+oLrF2tCziAhKmToFzdo6juLEiWMUlTat2kXdWgyS116pKZaI/ylyiXir5TXT4VAKwnv/1i/xEUWER1D996tTC7EUfQPh5zyata1DrXs0VaLKs5EBT/uD+83EjlShRmldGmceq/Vzll8whDsb6KA9uZfuvCnLaXSPn2XEQVO7UtnKkatZaFOeOXaB3nn1Sxn09ke16ZPeLbSXDd3DOk2gxb+tlNfGzOlHRcsUiBbPlSHeF+2cBzI8oOHDaGa/u/eV0XNs5r3hyhBv9b1vl6+v5G61Pr4qD8vandw5juNhRq52BqBW27eZcnFdrP6+WJWfv7ZHZmFF/pwOBwiAAAiAAAiAAAiAAAiAAAh4SsCZfkrJx5eGeOUefHY3DnKl/7A6LtTeX+u2O160On7WlsGs2xU3rSG+upg413X0p9GynT91OY3qHqljc9T1mh3Pf1SjOx3efYLSZU5Ds7aMU+9hlYPZ+5qJBz1IlCHebrv2Nz2Y2tDgAAEQAIEYJBArhnjtF28zxZ7hGQz2DK+Wu6Xc99j2jPj/ZnyfO3mJPqnZne7cui/xftrnHWrUpqYO9dY1e6hzswEyrHX3ptTsszq66+zhpZ/v341c/vm5dClU4/kPX0+jWT9GflwwfvEAKlA8T7S0jgE885Zn4PLxw6IBVLCEcZrfxs2nCQNnyHhvtaxKXw7+QLqtltdMh0Pe4L8/nZsNpK1rdlOmHBnk6gVDO46XV4zqaWTAWyr2uh/c/nuZpmHrWtS2b0tt9tI9Z9JSOrrvpHS3++Zd+RWk1frJTIL0j6uBDtpTlNCN2tOufw9S+wZ9ZaQmn7xJH/VsHpXgP5d2INFNDDTeEAMOd8fsn5fQ2N6TZbQW7erRB90aR0uifQa+GPA+1X23mhrHaju/cv463b/3gBImSqDuo6VmKhytXutIp4+ek0Fz9/wkPviJ2hLC3fvK6Dk2895wZYi3+t63y9dXcrdaH7vlsSN3bftQ3GbkamcAarV9mykX10H7bHny+2JVfrHdHr0tf6Ud4AwCIAACIAACIAACIAACIAACnhBwpZ/ifLxpiLczDnKl/7A6LnTGye540er42Vl5rHLjSVl1i7aW2ZapWIKGTOsW7RbTx8yliUNmynBXhvh8RXPSj38NEru/6rd/ZWN/49Jt5USvUq8Vo2Ezeqj3sMrBrB7BTDzoQaIM8Xbbtb/pwdSGBgcIgAAIxCCBWDHED2w3jpbPXierOXxmTyr5ShG1yhFihvjYXlNo7uSlMsxbhnjO7N+/d1CPVkPljzwvpz/i955U4uXC6r1vXL1Nb5f+lJ4+fir3RJ+yZiSly5Ravf70yVNqXa0bnTx8VobN2vK9+Gov8job/sb0+kWGf/VdO6pSr7yazpmjw9vf0I4N++Rl3su5p0jnuGQ+d0w6NekvDGrnZbxOQ9tQreaVpNtqec10OLRlXjjtbxrR9ScZlD1vFmncy5A1Hc3cNFYbTbqNDHg3r92mBi98LGfVx40XlyauGEo582VR0148e5ValP9CblXAxsI5uyfIDprV+qkZB6HD1UAH7SlS4M7a0+2b96hesdayHcZPGJ+miuc7Y7Z0aiu5c+setazQnnjAwcfPop3yVhbujmP7T9GHVbvKaOmzpJXpkqVIoibjpc4+r9ub7t15IMMcDfFW27kib36XTRJL7efQPFPhT8OpSdl2dFW8P7gsc/dOpLginnK4e18ZPcdm3huuDPFW3/t2+fpK7lbrY7c8duSuyF97NiNXOwNQq+3bTLm4HlZ/X6zKL7bbox3579t6mGaOX0ApUiajd75sYPgRpLZtwA0CIAACIAACIAACIAACIAACzgi40k9xGm8a4u2Mg1zpP6yOC50xsTtetDp+dlYeO9yUyT6sp+VtGJMmT6zehrdn/PrTb+npk3AZ5soQzxG026wqmYz/Zjr9LsanfDT4sCZ91i9ym0j2W+VgVo9gJh70IFGGeLvt2t/0YNzGcIAACIBATBOIFUO81rD7YoUiYob0O5QlV0ba9c8Bmjtlqbo/DMPwpiGe85sy8n80ecT/2Cn3jp+wZLBqTOew+b+uoFHdJrJTzlBv1KYWvVTpBTp34qK4tpwWzYhcgpqXteblrZVj08qd1K3lYOnlPdDf6/S2nIGap3COaMZ1ozQcli1PJqr/Xg3KLgxqbEjjGeLcKVEMg2kzpqZp60dTwsQJlCwslddMh0O9gXDcvHZHLEffhiIinqnBjdrUpk/7RF+228iAx4nG9ZlK/5u4WKbPnjcz1Xu3OhUrW1DuNb9w+go6uPOYvFaj8evUZeTH0s1/rMpDzSDIHK4GOto2yNVGeyJybE9jek6mOb8ska2Cjex1WlWTW1CwgWqRWF5+/7Yj8lr56qXklhbSY+LPF/X70u5NB2XMoi8VpA+6NJGG780rd4h8V9H1KzfVXBwN8XzBSjv/9dvZNGnoLJnvC+WfJ17FI1+RnHT98i1aOG0F/Tpmjrz2Wu2y1PfH9tKt/NG2FaP3ldFzbOa94coQb/W9z2W2y9cXcrdTHzvlsSN3Rf7asxm52hmA8r2stG8z5VLqYeX3xY78YrM92pF/q9c6qB/11f+gBrX7upWCEGcQAAEQAAEQAAEQAAEQAAEQ8IiAK/0UZ6Q1xNd99w1KljxqwoLjjao2fIVYV8iHkT7CzjjIlf5jxez16sQjT/TTjuXX+u2OF62Mn7X317rtcNPWo/Trxalmk4pildl7tEnouf5ZsV1OclHu5c4Qz/GqNXiFXqlRRurg1wpD/ozv5snkceKE0c9icknO/FmV7OTZCgezegQz8aAHiTLEs0C07cGK3tOf9GC6hgYPCIAACMQQgVgxxF+9eEN2yK5evG5YzXLVStLOjfvkEvDeNsTzj22Pd4fRv6LTwEehF/LQt7P7UfwE8dSyDPjsO1oxZ73qd3SkSpNCLMvTnfIXy6Ve4tny7Rt+TWzQ0x5Dp/eg0q8X0wbp3BuXbaOBn3+nzpbVXdR4+F79f+6s+2hAuexpec10OJS8lXPHxv1p+/q9ipe+m/c1PV8qv+pXHEYdZr7GS/p3FR8q7PnPWKnE15650/3d/G8oecqk2mDytH66xEHmcTfQQXuKErhRe7p7+z51bTFINbhHxY5y8czyEb/3ojQZUkUFunEd2XtSLnuvbFvhGJ1XvNiwdKsMNjLE8wVP2zl/oNO+QT91hQ7Og2fHR4RHsFMePBu+/y9dxMcGBZUgeXb3vjJ6js28N1wZ4q2+97nAdvn6Qu526mOnPHbkrmsE/3nMyNXuAJRv5Wn7NlMupT5Wfl/syC8226NV+YeL90LdIh8Stz0++AOcn5YNURDiDAIgAAIgAAIgAAIgAAIgAAIeEXCnn9Ia4t1lzJMHeBIBH0b6CKvjIM7Plf4jV8FslvTTnK+zw+54kfP1dPzsrCx2uPGqst3fMR4zJk6aiF6r9RItmbVG3tqVIT6tWGn2yaMn6iQzx7K+074Bvde5kWOw9HvKwawewUw86EH0hni77dqf9GCGjQ2BIAACIOBjAm4N8Z/V6S2NywkSxaelx341XZzlf66XBmZO0LZvK2rYuoYu7YXTV+jrT0bToV3H5VLxvFcMd4Bef7MsNW9Xl96r2EnO3NLuRcM/lFWyN5Mzs7XhuoyFx108fvl/VKM7nRf7xvPBe8HzbFLleHj/EU0Ts0nnTVmmKq35Ghu1ipUtRB0GtzY00rFif+qoP+nAzqN0/MBpaRBjg96LFZ5XsjY8nzl2gX4cMJ2OCmPepXNX1Ti8jHvO/FmoRLki1LpbE91MeDWScHhaXnd8tHkrbu2XiDwzf9bWcdH29+G4VXM2l0sTGcnn0cPHNGPsPJo3dZmuA5YkWSKq3bwKNW37llylQLmncva0fkq6YDy7G+hwndGe3LenGWPn0jyxwsXtG3fVZsLLbNVoUolatq9PKVLpPwZRI7lw8KoOY3pOkqs8cDQ2ihconlvsB/8G5S6YXWxrEbmCRochrenNFpWj5WSlnV+7fJN4X66lf6yWHy4pmfKqGUVKF6COQ9pQpuxRy+8r1/ns6n1l9BybeW/89fsaGtrhB3kbx4EYB1p578vMxB9v8PW23O3Uh+VttTx25K7wVM5m5MorL/CX9HxMXD6EeKUX7cFfxb9V+AMZVLX+K9RjbFvtZen2tH2bKZf2JlZ+X+zILzbbo1X584wDVibw4biqj5Yl3CAAAiAAAiAAAiAAAiAAAiDgjoA7/ZSiT3aXD1/X6g+M9BEcx+o4iNO60n/YGRdy3kaHN8aLVvTSRmWxw41XDBjXd6rcEo7z5u0YS71ajOq99wadOnKO+rcdI285cHIXernqi+rteTzPH1TwUbbKi1Ln/l3vybRv22F6/PCJDH8ubUq5ZVrdd6tJv9EfX+kRzOgboAcpISYhdtOJxRvt2h/0YLpKwQMCIAACMUTArSHe1+XgfZMvnrks9mpOr9tvxtf3NZM/71d/9cINun3zrjDMJRMdjjRmktmKc//uAzonPhDgpXl4P3btTH13GcdGed2Vyeg6d3iuXbpJd+/cl1xTp0tpFC1aWKDUL1rBvRjgbqDjeKtQaU+f1u4pDbWNP36TPu7V3BGDoZ/bIS/jfuf2PUqaLLH8uCZOnKh91A0TmQjkvaxuXrtFGbOmI/5K2NPDSjvn2a7XxIdA/K5KIurCxnf+uMlfDzvvfbt8fSF3O/WxU55Akzu3Ryvt25N2bOX3xY78YrM9WpH/h1W70LH9p6nl5/Xo/a6NPUGLuCAAAiAAAiAAAiAAAiAAAiCgEvBUP6UmtOmwMg4yc0s740Jn+dsdL3pz/GyHG+twuSzpxOx2MwePy7WG+EFTushkTx4/peMHT4uJbkmFHSCd3NLRTH7e5GDmft6O4+vyQw/iv/pPb7cl5AcCIBC4BGLdEB+46FByEIh5ArE10In5mpq/49rFm6hP61EyAc9C/0yswFHv/TfMZ4CYIAACIBACBP6cuIS+6zOZ4ieMTxOWDIq2B18IIEAVQQAEQAAEQAAEQAAEQAAEvEQA+ikvgQzCbJwZ4oOwqqgSCIAACIAACJgiAEO8KUyIBAL+QQADnehy4C9LeUmspbPW0u/jFxBvnTBz83emv6yNniNCQAAEQCC4CCyavpKGd5kgK+Vse4zgqjFqAwIgAAIgAAIgAAIgAAIg4EsC0E/5km5g5w1DfGDLD6UHARAAARDwPgEY4r3PFDmCgM8IYKCjR3vlwnVa9sdaKlKmoFia/iiN/2Ya8f7oiw7+QnHjxdVHhg8EQAAEQpQAf6zUtfkg+mLgB/RylRdClAKqDQIgAAIgAAIgAAIgAAIg4C0C0E95i2Tw5QNDfPDJFDUCARAAARCwRwCGeHv8kBoEYpQABjp63PN/XUGjuk3UBdZuXpk6Dm2tC4MHBEAABEAABEAABEAABEAABEAABEAABEDAOwSgn/IOx2DMBYb4YJQq6gQCIAACIGCHAAzxdughLQjEMAEMdPTAr1+5ResWb6ZzJy9RgoTxKGeBbFS5bjkKCwvTR4QPBEAABEAABEAABEAABEAABEAABEAABEDAKwSgn/IKxqDNZO+WwxQeHk7PpU1J2fNmDtp6omIgAAIgAAIgYIYADPFmKCEOCPgJAQx0/EQQKAYIgAAIgAAIgAAIgAAIgAAIgAAIgAAIhCgB6KdCVPCoNgiAAAiAAAiAgMcEYIj3GBkSgEDsEcBAJ/bY484gAAIgAAIgAAIgAAIgAAIgAAIgAAIgAAJE0E+hFYAACIAACIAACICAOQJhYt+WZ+aiIhYIgAAIgAAIgAAIgAAIgAAIgAAIgAAIgAAIgAAIgAAIgAAIgAAIgAAIgAAIgIA7AjDEuyOE6yAAAiAAAiAAAiAAAiAAAiAAAiAAAiAAAiAAAiAAAiAAAiAAAiAAAiAAAiDgAYGwE7f2YEa8B8AQFQRik0DOFEXk7U/e3hubxcC9QQAEQAAEQAAEQAAEQAAEQAAEQAAEQAAEQpQA9FMhKnhUGwRAAARAAARAwGMCMMR7jAwJQCD2CGCgE3vscWcQAAEQAAEQAAEQAAEQAAEQAAEQAAEQAAEi6KfQCkAABEAABEAABEDAHAEY4s1xQiwQ8AsCGOj4hRhQCBAAARAAARAAARAAARAAARAAARAAARAIWQLQT4Ws6FFxEAABEAABEAABDwnAEO8hMEQHgdgkgIFObNLHvUEABEAABEAABEAABEAABEAABEAABEAABKCfQhsAARAAARAAARAAAXMEYIg3xwmxQMAvCGCg4xdiQCFAAARAAARAAARAAARAAARAAARAAARAIGQJQD8VsqJHxUEABEAABEAABDwkAEO8h8AQHQRikwAGOrFJH/cGARAAARAAARAAARAAARAAARAAARAAARCAfgptAARAAARAAARAAATMEYAh3hwnxAIBvyCAgY5fiAGFAAEQAAEQAAEQAAEQAAEQAAEQAAEQAIGQJQD9VMiKHhUHARAAARAAARDwkAAM8R4CQ3QQiE0CGOjEJn3cGwRAAARAAARAAARAAARAAARAAARAAARAAPoptAEQAAEQAAEQAAEQMEcAhnhznBALBPyCAAY6fiEGFAIEQAAEQAAEQAAEQAAEQAAEQAAEQAAEQpYA9FMhK3pUHARAAARAAARAwEMCbg3x9+8/oCePnxhmmyJlcgoLCzO85m+BERERdOf2XVmspMmSULx48fytiJbLw3U7fvQknThyijJlyUD5CuWlhAkTWM4vNhI+ffqUzp25SDlyZY2N2wfMPT0Z6KBd+I9YA+39E2jPY6Dx9Z+WGVwlQTsILnmGam24r8ptOYHoxyVOnChUMaDeIAACIAACIAACIAACfk7AnX5K0Sez3pj1x2aPQNNHmK1XoMXD+DrQJIbygoDnBGL6fRvT9/OcCFKAgO8IuDXE16vSnHZu2W1YghSpktOLZUrQC2WKU4v3G1PqNKkM4/lD4LpVG+mduh/Jonwzsie1+KCxPxTLVhn27zlIvTsOpH27D9DDBw/VvOLGjUu58uagtp1aU923a6vh/urgznnlkrXp4vnLVL1OVfph6kh/LWqsl8vdQIcLiHYR62KKVoBAev8E4vMYSHyjNQ4EeI0A2oHXUCKjWCLw7Nkzyp2qmLx7hUrl6Nc5P8ZSSXBbEAABEAABEAABEAABEHBNwJ1+SqtP3nxkNaVLn8Z1huJqIOoj3FYqQCNgfB2ggkOxQcAkgZh+38b0/UxiQDQQiDECbg3xdSs1o13b9rgtUL6CeWja/ImUPkNat3FjI8LavzdQq/ofy1t/PeIravlhk9goRrR7blizibZv2SXD3/+kJSVNmjhaHKOAJQtWUIc23enB/SgDvFG8d9o0pZ4DO1P8+PGNLvtF2O7te6lOxaayLEmTJ6W9Z//1i3L5YyHcDXTQLvxRakT+9v5x9d4JxOfR3/j6ZysM/lL5uh24em6Cn27w1dAf5ak1xJev+DJNmzsh+MCjRiAAAiAAAiAAAiAAAkFBwJ1+SqtP3nR4lSl9sS/0Ef7Y7w+EBoDxdSBICWUMdAKx+X6K6fetL+4X6PJH+UOLgEeG+L7DulOq1JGz3h8/fERHDx+nWb/OoZvXb0lqOXJnoz9XTKc0aZ7zO4q+7kBYrXC/roNo8vgZMvna3UsoW44sbrN6IGa/F89eTt0y4KUKpala7UpU5uUX6cC+w/T3X6vF/zXEy33wMfi7ftS4ZX23+cZWBFY89/iiH+3ZuZ+atGoQFKsV+Iqlq4EO2oWvqNvP19/eP67eO4H4PPobX/stBjlYIeDrduDqubFSXqSJXQL+KE8Y4mO3TeDuIAACIAACIAACIAAC5gm40k9xLlYM8b7QR/hjv9885diLifF17LHHnUOHQGy+n2L6feuL+4VOS0FNg4GAR4Z4oy8Yr127QY2qtaQTR09JHiMnDKR6jd/0Oza+7kBYrbCVF652eaAqNSvST7+NiXb76b/Mop7tv5HhzuJES4QAvyfgaqCDduG/4vO394+V947/0vW/FQf8mVUwl83Xz1mwPTfB3BbM1M0f5QlDvBnJIQ4IgAAIgAAIgAAIgIA/EHCln+LyWTHE+6Je/tjv90U9vZ0nxtfeJor8QCA6gWB7PwVbfaJLDCEgYJ2AbUM833rZopX0UbMvZCmavtuQBn7bRy3RDrG/fHj4U7EXUDriGfN8HDt8gvbu2k91GtVS42kdvOf54QNH6crla5Q2XRrKky8nFS9ZVBvFqfvu3fu0YfU/dPb0ecqaPTO9/EoZSpEyuculocPDw4nLSfSMMmTKYDgrnT84OHHkhLxvgcL5KXmKZE7LwOU/tP8oXbt6XeZVUMTPnisrxYkTR03DDG5cv0E/jZ1Kyxb+LcPH/DKMMmVOL90FixSkZMmSqPG1jsF9RtGPoyfJoFE/DTLcB57rVDRrWbl0feIkiWjnqY2UIIHx8vQ7t+6mY0dOivLcFKxzUZEShZ3u3eRKnm82qEHbN++U5UqZKgXlK5hXW2zVzTI6uPeg9GfJloUyZclAXAaewf9c6ucoT/5calytwwxXbXzF7Un9lDT+enY10EG7cP68GcnTznvGKD8Os/L+cczLSns9cugYHdp3hC6cv0SpxLOXLWdWKlOupO6dw/cx+95x9jwqz3/qNKkpt3gv83Hn9l36Z91mun3rDhUsnI8KFS1AcePGldec/eFnfdOGbeI9fY6ui3dr2rSpxe9DdiotVvUICwtzlswrfH0hd6v14YraKY9ZuTsF+t8FI7mePnmO1q/eKOVR6Pn8VKJU5L7VRnkp6YP1d97sc6Nl4w9y1ZbHldtOOzL7vvJ2P8uoPmbrEdPy5LJye3DXL+R47gzxfH375l0iXgRHl31j7dZDZ079n72zgJPi5gL4o1Ao7hR3K9bSAqU4xd39DneX43DncCiuh7u7U1yKe6EtVlpKi7sU+b68bGfIzo3sZnaPvbuX3+9uMplJ5r1/ZCd5k+QWRI8Rnb07J+DX6R8RIAJEgAgQASJABIgAEfAWAbPxKXymrCHeaDxC0cNb7/12+vWKbHhU+sfiuAn1rz+Mo4d2f8zV8iLmoZXf1X6wVTp43R35PNmvli3v7sjriv54j6v9ZTE9d+VX6qWr41bupi/K5oo+MvXAnXLnqr6h3d5aPS+0yoOSX94oz0radCQCWgIeMcSjwTxfpmI8bTSa7zqxkfvFAcVa/lWhTMWSMLT3KLhx9SbEZEbmC7eOOsmDjVD3dv3gNBtk1LpsObMyA39/U4P8+pWbYUD3YfD44RM1Ohq/q9WtCBWqlYWmtdrycO0e8Wi8KvBFSX6ttn81GDl5sBpf8Syew2aYd3HMMJ++eDzTpYRyST2i/AFt+8IZbtRXg7knW66sMGXeWEibITU/b1C5ORxm+8MbuflrpkOREgV1L48bNhkmjZzBr/UY3AVad2qqe9/Fs5fg5cuX7FokyJM/d4h7rjHjexe2zzzu0aF1DZrVhn7De0C0aFHVS1b5eeTybvgmXSF48+Yt+6AhCfx02fGBgZrAf57lC9dAz/aOjzUU+dPHy8UHoPX2RHWHq/gsd/UT4/qq36yjQ+XiQ65p69uHKw5jtJ12RkxL9Mu2P0oaMuX19q1/oGfHAbB/1yElGfWYOm0KGDKun1M74mq7o1cfxfpfoVoZaN+9JfRhbeLZE+fZx1bv1OfiBwBTFowzNAThh1uDAofDX3/+rcZRPFmYIX/UlMGQ6+scSpB6tMvX7u+LKojGI6uPHXnczXeNyE6nYr6WrVIKuvZuC238uvCPs8QbCxT9FqbMHwfx4scRg50Mh+H1d97VeoNgfCVfnTLJ4MROOXK3vfLUe5aeKu7qEVr5ibK6+/4i1ke996Efhk+BiSOmcwwZ2UeLa/csUz/aDOo7GoLZx51RokTh78u1/Krp4aIwIkAEiAARIAJEgAgQASLgEQJm41P4AFlDvN54BKbnzfd+2X49yiU68X2e+tf64+ih1R9zt7yI+Wjkd7cfbJQOhsvI56l+tUx5l5HXTH+85m5/WUnPXfnFeunKuJW76StyuaOPO/XA3XLnjr6h3d4aPS80ywM+yxvlWSkHdCQCRgQ8YojHGZG5Un3Hn5EkaWI4+stu7hcr/hc5ssDv12/Ci+doGIYQhnhsVGqyJe5xVrbiMK07f99VTiFGzOiwcN0s+Drfl2qY4vlx2z5oUbcDNwpgGM7IjPZZVPV5OOsaKxk6bxjiUf4apf3g0YPH/Bk4qxPl/+f2HX6O/2LGjglrf1wMmbJkgMY123DjGTISnTIbdNGGWVCgyLfiJdV/iBnw/ZghHx0a22avnAoZM6dXr7vi+fffN1CtRH34+ZxjZjrKmjxVMvjt8lV4/vQ5TwKN9yu2zVdnqLqSn03rtIM92/bz+Jv2r4DsX34RQpwW9TrCri17ePieU5v5xwlGDbG7XJWHyeinxPXlo1lHh8qFcX1T8tRuO6Okoz3aaX8wLZny+urVa6hRyk+tw59+GgWysnb25o0/1I+RPov+GazbvQTQwI3O1XZHrz6K9R8/tHn16pX6HJ648A8/fho3Y7gQ4vDiF5l1yjeGN6z9QZc8ZVJIz9quE0dOwauXr3hYCtYObTm0mq9kwgPYP7t8vZXvsvrYkUcm3xWOekcxX9NlTAPPWPt/9597/NYEieLDg3sP1Wja3wS8IMYPr7/zrtYbX8pXNdMMPHbKkUx75akBA606MnqERn6inFge3HkvxDhifdIa4rdu2AVt/bvgbRCXfRCzfvcydaUp/Fo/Z8rv1Hb0qzw52fvmEn4v/SMCRIAIEAEiQASIABEgAt4gYDY+hc/zpCHem+/9sv16Pabi+zz1r/UN8aHRH5MpL3r5KYbJ9IPF+KJfVj5P9KtlyrusvKLOWr9MfxnTkJFfrJdW41Yy6aNc7urjaj2QKXfu6Ks3/iuT367qo/c8GX4YB51Mfsno53ga/ScC9gh4xBB/9NAJqFu+CZcEZ0pOnjeG+8WKr4hZqUZZqFG/KmT+IiNfklwJb1SjtTqrs3Kt8tCpRxu+9DEu3zN7ynxYMHMpvzUrWyJ304EVTksf42zM0t9W5Y0e3lSnYXXoN6InW4o9Clum/ihMGDnNaZa6NwzxflVbwqE9R7iMpdls+dFTh3BDEi4TOp7NYFqz1LFKQLP2/tA3KJDfh/9k9s54yQxWeTMWhedsiXd0+IFCkzZ+UKV2BW7k54EW/4b1GwOzJs7nd/Uc0hVadXTk33P2oUTn5j1UQzkul1+pell+nyv5uXrpBgho3Yff36VPO+gY2NpJEmzsvmaz5l++eAWYl1sPr+bXjRpiWa4y+jkJ6qMnZh0dKhexwaq+2WlnjIqE3fYH05Uprwf3/gT+VVpwsXDrjsUbZ0NM1hZgPR3ef6xav9sFtICAfh2dxLdqd/Tqo179b9LWDypULQM5c2eHfTsPQmu/zvD+/XvePp+4uj/E7Oke7fvDioVruSy9gwKgRftG3I9L+vfvNgTWLtvEz4eO7wcNmtTmfk/w9Ua+o3Ay+mA8O/LYyXd8ttZp8xVXkenStz1Uq10R8KOIsyfPA7bDz9gHd+imLfoBylZyrCCD59r4GBZef+et6o0v5Svmg5mzU45k2itPDBjo6WNHD2/mJ8oq8/4i1ifREH/54q/8wyv8mBU/NF2wbkaIjzUrFqkNuBISOqPVnfhF+kcEiAARIAJEgAgQASJABDxAwGx8CpP3pCHem+/9sv16PYTi+zxep/618cqy3uyP2SkvevmKYTL9YKO0ZOXzRL9aprzLymukP4bL9Jcxnoz82nqJ6RiNW8mkj+nJ6mNVD2TKnTv66o3/2slvK330nmeHn0x+2dEPZSVHBGQJ2DbEo2G1XoUmbI/v81yGIeP6gl+zOtyvrfhBbGn5+o1rhZAVZ6oXyOYY2E/I9rXcc3oLxGazxxWHhpjyBWuwfeOv8iCcpY17CSvuxE+noFYZh0EHZ2Bv3LdcncWN9/zDZtWXK1ADHrK9iNF52hCP+0mUzleVp437Jm87sgbEPTsfsaXyi3xZFp6yPZTFFQMwglUDxRPV+XfhzM98duv9uw+crqL+OABblRlR4sSN7XRNOcEloQtmL8VPS5QvBsFLJymX+BFXOCiYozSXN1PWDLDj6Doe7kp+Pn70hH8kgMvTo3EQZ+OKbs+OA+oWAaKhXq8hluUqq58op6/6rTo6VC4AjOqb3XbGqEzYbX9ky+v0CXNgZP8fuFjDJw2Eug1rqCJiPezWpg+8f/ce8rC2sm2XZuo19Fi1O3r1UVv/tc/EdDs1C4QNq7aiF9bvWRpiifmurXrBdbY1CbZNs1i7EzXqp/xe/IcfXRVl7SS6xm0awAD2MRU6u3y9le8om4w+duWxk+8os9Zp87Vrvw7QIaCl021rl2+Eri1787BSFb6HmUsmqNe18cPr7zwqbFZvfC1f1Qwy8MiWI9n2yhMDBnqqyOqBaXkzP2XfX8T6pBjiH9x/BFWL12Efmv3FEYjv2SITfOYSto0SroTStG1DSJwkoXiZ/ESACBABIkAEiAARIAJEwKMErManPGmI99Z7PwKR6dcbgRTf53na1L/mqPS2ePVmf8xOedHLW9l+sF5aGCYrnyf61TLlXVZeI/1l+8uYnoz82nppNG4lm74dfczqgWy5c0dfvfFfO/ltpg/y1XueHX4y5cGOfqgDOSIgS8AtQ/y4mcMgQcIE/FmvX7+Ga1duwJLZy9XBwVhxYsGWg6sgVZoU/B6x4uOStiu3L9CVcx/b37gxmxGPrs+w7tC8XcMQ9+H+HK3qd+Lh2kHIiaNnwA9DJ/Nr/Ub0gKZsdrjWrVqyHrq36cuDPW2ID56yAIJ6j+Zpd+vfEdp3c8xSFWW4e+c+nwUeJUpkvhyzcs2qgVLu0zv+fv1PGNp7FOzZvt9pj2a8FwdiK1YvAx0C2/Dl68X4e9nM1SZsaXx0c1dNg2KlComXub9nhwGwfMEa7v/57+MQnaXnan42qdUW9jKDO7pjv+11Ggzu120oLApezq/tOLZOncGv1xDLcpXVjwvl4/+sOjooPpULAL36ZredMSoadtsf2fK6Zd0OaNeoGxcLV8MYM20o3xvYSE4x3Krd0auPYv3PXzgfLN00W0yS+6f+MBtGDxzP/TOYsbY0M9q66nAmfeZEX/O2rHiZIjBnxRQe1S5fb+W7lV5G+tiVx06+68ks5isu0bX54EqnD9kwDq6U8k36wvCafXgXP0E8OHXd0b7jNTF+eP6dR13N6o2v5SvKa+Zky5Fse+WJAQM9fWT1wLS8mZ+y7y9ifUJD/LxVU6FhtVZwZP8xrr5f8zowZKzjXVaPB4URASJABIgAESACRIAIEIHQImA1PuVJQ7y33vutWBn1643iie/z1L/WX5peYefN/pid8qLIJx5l+8FiGqJfVj5v9asV2YzKu6y8Srrao2x/WZuO9txIfrFemo1badPTnhulb0cfs3ogW+7c0Vdv/NdOfpvpgzz1nmeHnzaPxHOj/LKjn5g++YmAuwTcMsSbJZ6IzbxZsHYG4IuG4sSKr8zsUa6Jx1mT58OwPo7l7BesmwmF2eCj1uGS00VyOWZLagciu7frB6sWOWZtb9i7jC+TrI2//8dD0Ki6w9jvaUN8r44DYdl8xxLra3Ythtx5c2kfb3hu1UAZRhQu3GH7+a5ZtgFWsSWfr/52Q7gCfAY+7jeP+9IrbvbUhTC01yh+irySpkiqXFKPwSxPZk6Yy893Hl/P96B3NT9XLloLge3687ijpgyGWn7V1HRxJj5+0ZUxczrYeXyDGq7XEMtyldVPFcaHPVYdHVF0KhciDQC77Yxzah/O7LY/suX1PlvhI0/6Iqog2PbWbVwDylYuBUk+T6SG63ms2h29+uhK/V86fxX07jiIP3LK/LFQvmppvceHCMO0cSWDgtlL8g+WxN8Lu3y9le8hlBACzPSxK4+dfBdEVL2u5CveXKtMQ7Y6wWke7+zNw+qKK67Gt6u33XLgiQ6rWb2xq5+n81XNYAOP7PNk2ytP8NdTRVYPTMub+Sn7/qKtTxkzp4X5MxxbM31XJB9/z44SJYoeCgojAkSACBABIkAEiAARIAKhSsBqfMqThnhvvfebATPr1xvF077PL2Jj3HqO+tfe7Y/ZKS96+SXbD9ZLC8Nk5fNWvxplMivvsvJiunpOtr+sl5YSZia/q/VSSUvvaJa+HX3MxiVky507+uqN/9rJbzN9kKve8+zw08srDDPLLzv6GT2PwomAKwRsGeIjRYoEWbJl4obnVp2bQZp0KZ2e6WrFD2zfD1YudBjSfzyxke8N75QQO3n79i2fLYlp4rL0uDy94lrU66juaX7o4k6nGefKPd40xLdq0Bl2bPqRP+rA+e2QMnVy5bGWR6sGyjIBzQ2nj5/jRnmczf7m3zf8avyE8QG5xk8Ql5/36TwYlsxdqYlpfDpv9XQoWrKg08xH0VCmjYkGNdzDHvOsTKUSMH2RY4bspQu/sC0GavLb2we2hG59OqhR9RpiWa6y+qnC+LDHqqNjJDqVCwC77YwRW7vtj53yunHNNgho3Qf+ff2vKh62y0VYfa3jXx1KVSiuO0veqt3Rq4+utOfLFqyGXh0GclmMDPG4WsHW9Ttg/+7D8DfbluQeO8ctNrC9UJzYvtjl6618V2R1Vx9PyCOb74rM4tGVfMX7xfZ4/7ltuivfiPkmPgP9dvW2Ww480WE1qzd29UNGnsxXTM/KyTxPtr3yBH8jfWT0wLS8mZ9ifXHnvVCsj6K+SZMngS2H1qjvceI18hMBIkAEiAARIAJEgAgQgY9BwGp8ypOGeNTPG+/9Cjd3+/VKPO1RfJ836x+L/QXqXwOIDJCpr/WvZfvB2vIhnsuUZ0/1q2XKu4y8or6iXyz/7vSXlTTcld/Veimbvh19zMYlZMudO/rqjf8iB9n8NtMH09V7nh1+mKa75QHjyOqHcckRAVkCbhniF28MhsTCTMtkKZJBrFgxDJ/tasVvWL0VHPjxME/nxLX9kJAZjvVcrtQF+L7lqdOmgH1nt6m3+FVpAYf2/sTPT984BPHix1GvKR5vGuL9qraEQ3uO8EeZya/IIh6tGijxXnf8x4+cgpb1O8KjB495tODlk6FE2aLcL/L+5JNPQixDrH0OLjGNcV3NT4zfiG01sJ9tORCTlY9T1w/yvaAnjZkJ44Y49qPfcmiV0+oJeg2xLFdZ/bR6++K5VUfHSmYqF/LtjBFbu+2P3fJ68dwlmDdjCWxlS9U/f/bCScyS5YsDGsTFvdjxBqt2R68+ulL/rQzx61dtgb5dhsCzJ89UOZOnTMp+VxJDPPah0D62bQY6scPqSb5m7bPR74sqqI5HRh8xv+3II5PvOiq43K4HtOkDq5c4VjHZcXQtZMqakSfnSrnAG+3qbbcceKLDalZv7Oqn5I2n8lVJz+ro7vNEPd15f/AEfzNd3NUD0/Jmfsq+v4j1SdQ3dtzYsHHfihAfvIr3kJ8IEAEiQASIABEgAkSACIQmAavxKU8b4lE3T7/3Y5oy/XqMp+fE93lxXEN7L/WvvdsfU3jLlBclrniU7QeLaej53ZXPE/1qO+XdXXn1dMYw2f4yxpWR39V6KZu+HX1cHZdwZ/zFHX31xn+RAzqZ/DbTB9PUe54dfjLlAeVAJ6OfIyb9JwJyBNwyxB/9dY/lkseiGK5W/P4BQbBw1jIedduRNXyWvZgO+l++fAXZkublwYVLFIAFa2aot7T27wLbN+zi53vPbNUdqPSmIb594wDYvHY7fz7ur5stZ1ZVNiuPVQNlFd/surhfszgDXfyy8MjlHyFpsiRmyajXXM1PjLB84Rro2X4Aj7tg3Qy23UABqFaiPpw5cR7SpE8Fe09vUdNFj15DLMtVVj8ngXz0xKqj44rYEbVc2G1njNjabX88VV5fvHgJP27bBxtWblFXCEGZtVt5YJhVu6NXH12p/2aG+F9+/g0qFq6tznxv370lVK9bGdJlTIMicZf18zx8H3Kxw2qXr7fyXVYfT8vjTr4rnMWjK/mK9zer2x52b93Ho1746xjEjBmd+12Nb1dvu+XAEx1Ws3pjVz8OU/hnN1+FpFzyuvo82fbKE/xdUcRVPTAtb+an7PuLU30qlh8SJk7A23SUN2v2zLB61yKIEcNR9zCMHBEgAkSACBABIkAEiAAR+FgErManvGGIV3T11Hu/bL9ekUN7dHqfZ9uuGi1NT/1r7/bHtPniTnnRxsVz2X6wXlp6Ya7KZ7df7any7qq8erpimGx/WVZ+V+ulbPqy+iALs3EJ2XLnqr74fL3xXwwXnTv5baYPpqn3PFl+svkl6oZ+d/TTxqVzIuAOAZ8wxC+avRz6dR3K5Z69Ygp8X+bDvseKMtfY3ucl8lTipy06NoLeQwKUS9CzwwDApdjRrdw+H/Lk/1q9pnhcNcTXbFAFRk91yKLExePiOSv4TE70T188HspULIFe7sQBeO015R6jo1UDpY339OlzyJOhCPzv/XvAJeePXNoF+FWUntvLZpc2qdmGXypTuSRMX/gD9wdPWQBBvUdz/7Itc+Hbgnn0oocIc6chf3D/EeTLVAzevXsHjVvXh3YBrfg5ptG6S1PoMbCLU/p6DbEsV1n9nATy0ROjjg6VC+sMs9vOGD3BbvvjjfL6IzOYNmeGU3TaFUQwzKrd0auPrtR/M0N8UN/REDxpAT4eegcFQIv2jbhf/KdniLfL11v5LquPt+RBjlb5LrJW/K7kK95bqWgduHDmZ0iW4nM4/LPjwzcMdzW+Xb3tlgOxwyrzO4+6mtUbu/ph+kZOJl+N0nIl3Ox5su2VJ/i7Irt4j5keeJ8381P2/UVbn2ayFYlqlPSDyxd/5apVrlUeJgSPFNUkPxEgAkSACBABIkAEiAAR+CgEjManFGG8aYhXnoFHO+/9sv168fmiX/s+b2SIp/61d/tjYp5o/VblRXs/nsv2g/XSsgozk89uv9rT5R11MZPXSFfZ/rKs/K7WS9n0ZfVBPmbjErLlzlV98fl6478YbuSs8ttMH0xT73my/GTzy0g3DLfSzywuXSMCVgR8whB/7PBJqFOuMZe1Zacm0Gtw1xByi4bwMdODoEa9yuo9uCzzoMDh/LxdQAsI6NdRvaZ4Vi/dwPdSxvPBY/uAf/O6yiVAo/E36Qvz86KlCsG8VdPUa4pnyrhgGDNoAj/VGtvFtJu194e+QYFKNPU4f+YS+PncZX7ef2QvdTbhsH5jYNZEx3736/cshVxf51DjGHm+YCsDvGIrBKBbt3sJfPlNTt1bp0+YAyP7O4zvDZrVhqHj+vH7Duw5DA2rtuL+wEGdoU3nZiHiP2NLXD9/9pyHJ06SkBv73WnIMaJ/tVZwkO0DnTpdSmgf0BIC2/Xn6enpqdcQy3KV1Y8L5+P/zDo6VC4+ZJ5efbPbznxI3dlnt/2RLa+32f7qz58/h2jRoqn7dYuSlcpbGa78ep0Hnbx2ABIkjKdetmp39OqjK/XfzBAvfvF98MIOSJEqmSqP4smS5Bu+3704I94uX2/lu6w+duWxk+8KZ/Eo5mv2L79gyx9rdrgAADaVSURBVF8vD7FdCXb2CmYrxY3uhb4vAAvXfliRRowv5pv4DPTb1dtuObD7O486mNUbu/p5Ol9RXjMn+zzZ9soT/PX0kdUD0/Jmfsq+v+jVp9+v/QGVi9eBJ4+ecgR9hwdCs7b+ejgojAgQASJABIgAESACRIAIhBoBs/EpFMKThnhvvffL9uuNIIvv89S/Nh5HR37e7I/ZKS96eSvbD9ZLC8Nk5bPbr5Yt77LyGukv21+WlV+sl2bjVrLpy+qDfMzqgWy5c1VffL7e+K+d/DbTx+h5svxk88uOfqgDOSIgS8AnDPGPHj7hs7xx9nTUaFFh1/ENToalx4+eQPGvK8LD+w+5nlsPr+ZLdCpKX7rwC5QvWJOf4n7DWw+vgThsP03F4VIVNcs0VPcl1hri8T7FiBk/QTy2//xWiB0nlhIdtm3cBR2bdIc3b97yMK0h/v69B/Bt5u/57O8oUaLAlsOrIFOWDGr8P2/+BcVzV+BLMuMs9pNX96mGDjQYDuzu+Ihg/OyRUKVmeTWekad+pWZwZP8xfhn3gB7PZkcpywQrcdBw4l+5OVxlKwmgGz5pINRtWIP77919AAWylYQ3/77he7jvZLyTJf+cX8N/b968gQqFasFvl6/yMJz9iLMg3WnIMeLS+augd8dBPI2MmdNxo2DK1MnhwHnHMv78wn//9Bp+Wa6y+ony+KrfrKND5cKRa0b1zW47Y1Qm7LY/suVVye/IkSPDtp/WQMbM6VUR3759C4VzloG//7oDuLfw6esHAO9TnFW7o1cfXan/Zob4rq16wdplm7gIC9fPgkJs2WXFvWcrfAzqMQIWzFzKg8QXY7t8vZXvsvrYlcdOviu8xaOYrxgubmOi3De8/1iYOWEeP23S1g/6D++hXHL5d8Gu3nbLAQps53ce45vVG7v62cnXk0fPwMyJ8yBe/DjQsUcb3Y9cUH7RyT5Ptr3CZ9vlL8qv+GX1wPjezE/Z9xexPort4O7t+6F5nfa8vmFbvmjDLMhfyLFdk8JCphwocelIBIgAESACRIAIEAEiQATcJWA2PoVpedIQ7633ftl+vREr8X0e76H+tf44OrLxZn/MTnlB2bTOTj9Ymxae25HPTr9atrzbkVdPf9n+sqz8Yr0U+9la2WTTl9UHn29WD2TLnav64vP1xn/t5LeZPkbPk+Unm1929EMdyBEBWQI+YYhH4QcGDoP5MxxGGNwH069FHb5k+qmjZwGNO6ePneU6lqrwPeBSnVqHM+pxRhq6vN99DQH9O/JZ3Pt2HYRl81fDvTv31Sh6hngxPu5BX8e/Ojx+/AT2bD/A/vZzI7uSgNYQj+FDeo+COVMW8lsyZEoLDVvVh3wFvoGzpy7A0rmr4OzJ8/xaLf+qMGryEO7Hf3t2HICmtdryc9xbvkvvdmzJ+XiQNUeWEMZ1JZIYB8PSs+c1Ys/LwAxx75gB7mf2YQIaTZQPFz5ne8DvOb0Zokf/TEkCFs9lS+13dsiBM+qbtW8IxUoWgt+v3eTL8CMzdMXZNgFz2HYB6NxpyPH+++zDiXwZiwEa2RTXvEND6DO0u3KqHvUafrwoy1VGP1UYH/aYdXSoXFjXN7vtjFHRENsPmfZHprxOGjMTxg2ZxEX6rkg+CBzQCfCL67v/3Iel81bC5NEz+bXyVUvDlPljnUQXy4peu6NXH12p/2aGePHDnAJFv4V+bFZn2gxp4OjBE7AgeKm6/zgKqn0xtsvXG/luRx878tjJd6dC8N+JmK/K9er1KkFptv0KfqCFH6JNGzebX8JtULYdWQ2ZsmZUbnXrd8GO3vhAu+VAjC/zO29Vb+zoZydfS7Jte5SP7hq3aQADRvRU88fIY+d5Mu2VNv9k+OvpYkcPb+Ynyirz/iLWR207OGHkNBg/bCrHkCBRfNi0fyX/SFLhIlMOlLh0JAJEgAgQASJABIgAESAC7hIwG5/CtERDfMOW9ZwmPGmfVa1OJTammY4H641HeOu9f8OqzeoEInfHKbQ64Ln4Pq9cp/51yC1ekY03+2N2youSb9qjbD9Ymw6e25HPzriG7DiWHXn19Mcwmf6yrPxivdT2s0X5ZNOX1QfjWdUDmXLnqr74/NBsb3ESqd7zUI7QLA/eKM+oAzkiYEXAZwzxTx4/hcZsP3PF4K4neMYs6dksoGD4PGniEJcvnrsEdco3gedsD3U9hzPHd23Zwy/pGeJxtlGz2u30ovJZ4+WYMWvVonX8up4hHpdyb8rkP37klG4aGIgG+tW7FkPceHHUe3D2ed0KTeEUm9EmuvlrpkOREgXFICf/ri17oQubYfrsyTOncO1Jjq+ysQ8XJjoN1ir3dGnZC9Ytd8xQVcLEIw70zl89HTANdO405Eo6Ddis/MP7jiqnsGrHQvjm26/Uc8Vj1BDLcsV03dVPkcWXj1YdHSoXH3JPr77ZbWc+pO7ss9v+YGrulldckqpu+cbqyhWYBs6UxJVFFIez4YOXTeIfBSlheLRqd/Tqoyv138wQ//ftO1C1eD34hx31XInyxeCnA8d5G659MbbL1xv5bkcfO/LYyXc97mK+Jk2eBF6/+hcePnikdyt06NEKuvZu73RNjK/NN6cb2YkdvTEtu+XA7u+8Vb2xo59svmJ9z52uMDxl71Do8MOazQdXcr/ZP9nnKWm6215hPLv8lWeLRzt6eDM/UUaZ9xez+oTXcOm1Pdv2cwRf5ckJy7fOh6hRP+Xtvkw5EFmSnwgQASJABIgAESACRIAIuEPAanxKNMRbpYuTB3ASATq98QhvvfdnzpZJepxCTyfxfZ761+bj6N7sj9kpL3r5qoTJ9IOVuOLRjnx2+tWy41h25BX1Fv0y/WVZ+cV6aTZuJZs+6iWjD8azqgd4j7vlzlV9Me3QbG/RzqX3PJRDhp9sfnmjPKMO5IiAFQFLQ3yN0v6qkfgEW1I9YaIEVmmq17HiZ0zwFZ8RbbT3unoz87x48ZLNvAuGRbOXw6MHj9VLsdgy8XUaVmP7jLfmS6+qFzQenHU+kO0Vf+aEY/Y5GqVyfp0dGraoC1nYyxUut44uaEJ/qN/Y4ReTWL9yMwzuORIe3HMsgY/L3Bdm++Hil5u413Knpo6934OXTYYS5YqKUbn/1avXMHXcLFgUvEKdjY4XYsaOCfWb1IRWnZrq8sOGY9Ko6VzuXy7+xgdU8YODgmzWqJm7xpadH95/HFw6fxlu/XFbvRWXx8+UNQPkL5IXuvfv5DQTXr2JeZD3FDardmHwcnUQH6+j8S5fwW8g6If+Th89uJufmJb45RbOzD9yaZe6LD9eV1zmRLn50v965USWq7v6KbL48tGqo4OyU7kwr2922xmj8mG3/ZEpr3f+uQdTx86EVUs2OH2EFD3GZ/D1t7lh2PgBkDptCl2RzdodvfroSv1fuXgdBLbtx5+n98HSzRu3oGPT7nCOrRSC6UWKFIm3zeWrl4F2XZtD6XxV+MxevXbAE3zt/L7oQbSjj51yaCfftXpgPuCLMLriZYtAjwGd+TYBp9gqNK/Zbxq6hIkTQKeebcC/eV1+Lv5zpVyI99vRG9OxWw7s/s6b1RuUz45+svk6bfxsGDVgPD7eaRUbHmDyT/Z5mKRMe4Xx7PLHNLTOjh7ezE+U0933F6v6hB97VC5Wh61e9AfH0KZrM7YaSmfuly0HPDL9IwJEgAgQASJABIgAESACbhKwGp8Sx5OtkhbHD/TGIzC+t9777fTrtXpR/9q9cXRv9sfslBdtvirnsv1gJb54tCOfnX61bHm3I6+ot+h3t7+McWXkt+pnizLJpK/El9EH47pSD7xlvwnt9tboechBhp9sfnmjPKMO5IiAGQFLQ7xZZG9dwwYSK8QTtjR8rNixuDEYl8R11eEeGg/u3YfkqVJArFgxXI2m3vfP33f5xwPivunqRRc8KD+m8fTJU/bhQDxInCShC7Hs3fKUrQRw8/pNvhw/LlGPM6Rcdbh0PO4l/ejhIy4vfoDgi06Wa1jRzxXmVh0dbRoRpVxUK9GAG+hadmoMvQZ302LQPbfbzugmygLttj8y5RVnxf5z+y6vwzFjxeLGdzRy+6p7ylby+PPmLUiZOoXp8nR68tvl6418t6OPHXk8ke/4fNEQP2f5FI7933/fwC8Xf4U4ceNAyjTJ+WoLevkhG2ZHb3ym3XJg93feSm87+snka/mCNeES25amffeW0K1vByvxnK7LPE9JQKa9wrje4G9HD0Ufo6Od/MQ0MX5ovBfaKQdGulM4ESACRIAIEAEiQASIABHQI+Du+JReGjJh3nrvt9OvV/TA937qXys0PHe00x/zRnmR7QfrEbEjn51+tWx5tyOvnv4YJtNflpXfSAZtuJ30ZfTRPl/v3JPlTi99vTBv5Lfec8QwGX6y+fUx9BN1JX/EIuCThviIlQWkLRFwncDH6ui4LmHo37l1wy5o69+FPxhXweg3IhAatawf+oLQE4lAGCSAL7h6AwVhUJUIK/Lc6YthcI8REDVaVLZv+HK2Ik7GCMsiIitO5SAi5z7pTgSIABEgAkSACBCB0CdA41MhmVP/OiQTCiECRIAIEAEiQAQAyBBPpYAIhCEC1NEJmVn4ReCVX67C6qUbYOaEeYBbIBy6uMPjM3hDPplCiEDYJ0ADBWE7D5ctWA29OgzkShhtuxO2NSTpXSFA5cAVSnQPESACRIAIEAEiQASIgCcJ0PhUSJrUvw7JhEKIABEgAkSACBABMsRTGSACYYoAdXScs+v2X//AmmUbIW/+3HDm5HkY3ncs4P7o5/44AlGiRHG+mc6IABEIQYAGCkIgCVMBV369Bo2rt4ZBY/pAibJFw5TsJKznCFA58BxLSokIEAEiQASIABEgAkTANQI0PhWSE/WvQzKhECJABIgAESACRIAM8VQGiECYIkAdHefsWjx3BfTtPMQpsF7jmjBswgCnMDohAkRAnwANFOhzoVAiQASIABEgAkSACBABIkAEiAARMCZA41Mh2VD/OiQTCiECRIAIEAEiQATIEE9lgAiEKQLU0XHOrrt37sP2jbvg9+s3IWrUqJA5WyaoXKMcRIoUyflGOiMCRMCQwImfTsO7d+8gUeKEkCFzOsP76AIRIAJEgAgQASJABIgAESACRIAIEAEkQONT+uWA+tf6XCiUCBABIkAEiEBEJkB7xEfk3CfdwxwB6uiEuSwjgYkAESACRIAIEAEiQASIABEgAkSACBABIhCuCND4VLjKTlKGCBABIkAEiAAR8CIBMsR7ES4lTQQ8TYA6Op4mSukRASJABIgAESACRIAIEAEiQASIABEgAkSACLhDgMan3KFF9xIBIkAEiAARIAIRmUAktn/N/yIyANKdCBABIkAEiAARIAJEgAgQASJABIgAESACRIAIEAEiQASIABEgAkSACBABIkAEiIAnCZAh3pM0KS0iQASIABEgAkSACBABIkAEiAARIAJEgAgQASJABIgAESACRIAIEAEiQASIABGI8AQi7bm1jGbER/hiQADCCoFiyetwUff+tTysiExyEgEiQASIABEgAkSACBABIkAEiAARIAJEgAiEIwI0PhWOMpNUIQJEgAgQASJABLxKgAzxXsVLiRMBzxKgjo5neVJqRIAIEAEiQASIABEgAkSACBABIkAEiAARIALuEaDxKfd40d1EgAgQASJABIhAxCVAhviIm/ekeRgkQB2dMJhpJDIRIAJEgAgQASJABIgAESACRIAIEAEiQATCEQEanwpHmUmqEAEiQASIABEgAl4lQIZ4r+KlxImAZwlQR8ezPCk1IkAEiAARIAJEgAgQASJABIgAESACRIAIEAH3CND4lHu86G4iQASIABEgAkQg4hIgQ3zEzXvSPAwSoI5OGMw0EpkIEAEiQASIABEgAkSACBABIkAEiAARIALhiACNT4WjzCRViAARIAJEgAgQAa8SIEO8V/FS4kTAswSoo+NZnpQaESACRIAIEAEiQASIABEgAkSACBABIkAEiIB7BGh8yj1edDcRIAJEgAgQASIQcQmQIT7i5j1pHgYJUEcnDGYaiUwEiAARIAJEgAgQASJABIgAESACRIAIEIFwRIDGp8JRZpIqRIAIEAEiQASIgFcJkCHeq3gpcSLgWQLU0fEsT0qNCBABIkAEiAARIAJEgAgQASJABIgAESACRMA9AjQ+5R4vupsIEAEiQASIABGIuATIEB9x8540D4MEqKMTBjONRA7XBO7cug/PnjznOiZJkQhixYkRrvUl5YgAESACRIAIEAEiQASIABEgAkSACND4FJUBXyDw6P5TePTgCRclfsI4EDdBbF8Qi2QgAkSACBABIuBEwNIQ/+rFa3jz5i2PFCNWdIgc+ROnBLQnb/59C69evubBsePG1F6OEOfv37+HP67ehj+v3YbEyRJCuiwp4dNon4Yp3d+9fQf/MANT8jRJwpTc4V1Ydzo6VA59pzRgXjx/+pILFCPmZxA5SmTfEU5HkrBW/z8m32XTNsGMoYs4xTxFc8HoJb11iEbsIE+XJ0+nF7Fzh7QnAkSACBABIkAEiAARIAJEgAi4T8BqfEoZT44UKZJbH6xTf08/Lz7muIe+RB8/FMtY89I94Nb1vwHLWdDc7vBdqa+lBKNyJ4WNIhEBIkAEiICLBCwN8W0r9YVLp67w5Go2Lw/tBjU0TXrqoEWwcuYmfs+SI5MgWerEpveHp4tXLv4O4/vMhisXbsDrl/+qqn3CPl5IlT4ZNOhQDUrVKKSG+6oHX2T8i3SBe7cfQJEK38KgmV18VdQIJ5dVRweBUDn0vWJxYt956F4/iAvWeVgzqNKolO8J+Z9EYbH+f2y+k/rNgzVztnGCXYY3g8oNfTd/Q7vgebo8eTq90OZBzyMCRIAIEAEiQASIABEgAkSACIQHAlbjU+J48uozMyBB4riWalN/zxjRxx73MJbs412Z0GcurJu3nQvQZURzqOxfUkoYKndS2CgSESACRIAIuEHA0hDfpkIfuHzmKk8SDcqzdoyE9FlTGT5iyoAFsCp4C7++6NAESJH2c8N7w9OFA1uOQVDHyU4GeD39qjYuA+0G+kOUT6PoXfaJsF/OXoXW5ftwWWLE+gw2/zLPJ+QiIQCsOjpUDn2zlBzfew4CGwzjwnUKagpVG5f+qIKeOngRLp78hctQq0UF+CxGNFWesFj/Pzbf//3vfzCk3UTYs/4IRIseFeb8OCZCrSYSmuUpLJZPtXKRhwgQASJABIgAESACRIAIEAEiEE4IWI1PiePJq05Ph4RJ4llq7o3+nll/1VIgH7rhY497hDYKq3zD693qDOFiNQmoBQ271JAW0RvlTloYikgEiAARIALhkoBbhngkkOvbrDBhzUBDGBHREI+z3ytmawpv2bL86L78LhsUKpOXs7p66SYc2XkSDrM/XOYGXcDoVlChfnHu98V/aFQaGzgLfj1/DSrUK+HTs3d9kZ83ZTLr6FA59CZ5e2n7WodJnMG99KdJkDTVh5VLwmL99wW+uC1Lr4Yj4eSB8/B1oRwwdnlfe4UmDMUOzfIUFstnGMpKEpUIEAEiQASIABEgAkSACBABIuASAbPxKUxAxhDvjf6eWX/VJUV95CZfGPcITRRm+YbjL36FOsOdW/fYmHVp6DysqS3RvFHubAlEkYkAESACRCDcEXDbEI8Eek1sB6VrFNaFEREN8eLyQAXL5IGhcwJCsNmwcBf80DOYhxvdEyISBRABDQGzjg6VQw0sHzr1tQ6TWYfGh7C5LIqv8H3z+g08uv8UokSNAvETxXFZ/rB+Y3grT2E9P0h+IkAEiAARIAJEgAgQASJABIiAtwmYjU/hs2UM8d6QObz0V31l3MMbeaSXplW+/f3nPQA2kSxJioTwySef6CVBYUSACBABIkAEfIaAlCE+QeJ4MH//OIgVJ0YIRdwxxF86fQVuXvkLnjx8BqkzJodMOdOF2DMI73n75h1Ej/kZZMyeJsTzbt34Bx7cecTDk7Nl8PWWOvr55G/w7t17SMCWQdIulX/jt1twnc1av8v2Q48dNyYkS5OEz2R350d8ZtASWDp1A5eh98T2uvvA4/MrZGnMl67HpYs3/jwHPmXGGj3nChcl3s+nrvCZ9qJuyPTXc9fg+6oF4OKJ3/itsePFhLSZUyrRnI4vn7/i+4pjYNKUiSFx8gSgcI+bIDbPG6cI/538duEGXLt8Ex4zw1MyNqM23Rep+XLMVuzc0U/vuRE5zKyjQ+XQvXKI5ff6L3/Aw7uPIR4zmqbJmAKyfpXBVvHCunRy/3m4/cddXie+Kpidt5PudJhk6oer7Ri2DY8fPIUVMzfBwa3Hua79pnaExMkScj+2sdjWGtV/pb2JlzAOpMqQjMd5/vQlnD50AZ49ecG2LUkNGVgakdk2JmYOVwc5+9NluH3zDpPnCTNax4XkaZOytjcLRIoUyTCqJ/h6I99l9XE13wyB/HfBU/mCybnDx255EvVy5/fEqHwq6YVmfvzN6nq06NEi1IcXCmc6EgEiQASIABEgAkSACBABIhBxCZiNTyEVWUO8VX/P1X60q/1VJQdDsx+pPFPv6IlxD5lxJa0svj7OoMjnqXFrq3LnK+VDm090TgSIABEgAmGDgMuG+ERJE0C+4l/BlqW7uWbVm5aFDkMah9DSFUP8H1dvQ1CHSfDL2Wsh4lf2LwXtBzWET6N9yj5s+x9UzdmCG+rR6L/+YnCIr9w6VR8I545e5ulUb1YOOgxu5JTm3b8eQO28bXlYhfrfs2XhW3I/ho/pPgOO7T3rdD+eJEudBLoMbw55i+UKcU0vYO7olbBg/Gp+qWWf+lCvbWW92+C389fhFVvGHg1NOfJmDnGPq1yUiMjn+5T1+Gm5OsWgcPlvYcrA+XDr+t/cmLbq1DSokqM5/5AB82/lyalKVKfj5iV7OAsMbNmbyd+uMk8X0/+mSE4Ys9SxX7wSCV9mR3SZCpfYRwBalzFHWhgwvTOkTJdUewnc1S9EAhRgukc8lcMPBcSsHGL5Hdl1GuAHOlqHhuhuo1pKGeR3rTkIE/vNhaePnqvJfvJJJChVvTAUr1IAevqP4OFGe8TL1A9327FudYbCqYMXVPm0nlGLe/N2D9sVbf0X25tilfKDf6fqMI6t8oGdlffsQyPF4fYlA2d2NTRMHtx2HCb1n8+XEFPiKMd0WVNBj3GtIcuXIT+IsMvXW/kuo4+7+abw0Tt6Kl9k+NgpT4ouMr8neuVTSS8082PqoEWwkn3UEjlKZOg2sgWUq1tMEYOORIAIEAEiQASIABEgAkSACBCBcE3AW4Z4o/6eu/1oV/urmEmh2Y80KxR2xz1kxpX05PH1cYY8RXOq4+GeGrc2Kne+VD708orCiAARIAJEIGwQcMsQP2vHSGhYpDM3NKGBaca2ESFmqVsZ4nEfl7aV+sIVNhsVXcLP4/NlZH7/9U948ewVD8uRLwtMZPvQo8F6UJsJsHfDER4+c9twPmuen7B/r1+xvdm/+LA3e4ZsqSF45yjlMj/iS0xQh8ncP3BGZyhaMT+P175Kf1WGKJ9GhvRfpGGzM/9RjWg4a33qpiA2wzOVU3p6J6cOXoRudYbwS2jEH76gB6TJlELvVsMwd7lgQuKLEeqOqwO8evGaPwNntW75dR70ajQKftp1iodp+fFA9q9v0zFwaPsJfrrw4HhuRDd6AcGXuvZV+vGPIzAC5hHm4b2/H/D4+C9GrM9gCmOXVmAgo5+aIHlUAmYdHSqH1uUQy2+Hqv35rHAFKpbf+/88VE7hsxjRYOyyvpDtm0xqmJXnyK7T0KfxKF4n8d5P2IzwqOxjIqU+Jk6eEO7+dZ8no2eIl6kf2P6524718BsBx9nHR9h2iE6ZhT6G7Wv+NZvFr1f/xfYGP+x5/eq12l6KaaEfPz7oPamdNhjwi+VONQbCW/Y7gC5JikR8xY3zxy7z1UIw7HMWFrxrlNOKK3b5eivfZfSRyTfkYuQ8kS+yfOyUJ9RH9vdEr3xieqGZH/g1fIWsTdRy+0XuDPydAeUgRwSIABEgAkSACBABIkAEiAARCO8EzManUHfZGfF6/T2ZfrSr/dXQ7EealQm74x4y40pG8vj6OEPuAtkMDfFheZzBKD8onAgQASJABMI+AbcM8TijWtzrPDub1T1p7SCnpYStDPHTBi+CFTM2cXKt+vpB3TYVuR8NVkPbT1INwrhc8vdsFunWZXthVLfp/J62AxpCrZblVepnjvwMXWoOVs/Rs/5CMMSJH0sNGxs4CzYt/pHNpI8Ea8+za2yJ9pMHLkBA3aH8HlyK+oeV/bnxDV80pg9ZrMrn16EaNOtZR03LyPOazXKv9mVLwOWD0KEhr2az8lCiRiEnY7RRfAx3lwvGEV+M8Bxd8SrfQdlaxSBdllR8ifntK/fDiM6OmfBNAmpBwy41HDf+9x9fZnHWPOqQni0tP5sZwNDpvfhieEC9IL70NvoLlcvLZq+24QYzXJ537ugVsGP1AbwENVtUgHYD/bkf/8nop0Ymj0rArKND5TAGWJXDHg2Gq6tglKhaEBp1rcmXWL998y6v9+vmbeessS7M3D7Ccol1vBm3nWhSvBs3KuJ5+Xrf85U58AOfk+wjnfnjVjqtHqFniJepH3baMau9tvTqv157U6N5eSjOZsdnzpUeju05A/2bj4X37//HP0RYe24Wb2+RieJGd5sBW5bt4adt+vtD7VYVuB/bzh96zoadaxztR5cRzaGyf0l+zRN8vZHvKJyMPnbyjQPR/PNEvtjlI1OeUA3Z3xO98onphXZ+tCzbk610cwMfDeXrFofuY1txP/0jAkSACBABIkAEiAARIAJEgAiEdwJm41OouycN8Xb60Vb91dDuR+qVC0+Me8iMK+nJgmG+Ps4gyqedER/WxxmM8oTCiQARIAJEIGwTcNsQ//79e/Yy1ZfvQY6qBzJDbLk6RVUKZob4O7fuQ518jlmSBUp/A0Fzu6vx0IN7Dddl13GvYdzPfO6eMXzv9tp52vL7CpbNA0NnB6hx5o9bBfPGruKGd9xnHt2Q4G7cQKzc1KhoV74P/RdfZ4SpGx3Gd9zPHffTRhfAlqGu0OB75XZ4+vg5N1zjUss58maBBh2qqtfMPL+eu86Xnn5477HTbZlypoXydb6Hkswoj8vr6zkZLpiO+OKB513Z0riV/EqgV3WoT3X2kcDbN+/4ctvTNgep19BzdPcZdcls0VCvZ+jAfZiaFOvG4+P+0HN+HA1RPv2wz/0TtiR3g+868PzDWca4ND46Wf14ZPrnRMCqo0PlEMCoHOIyZso2Fbgn+aJD49nqDdFVvtjxaVEqkO0b/ycPm7BmINuzPKt63chz/tgv0LHaAH4Z6/uMrcOdPk66/88jaFayuzoLX2uIl60fdtoxq46oXv3XtjfathMBDGk3EXavO8xZTN8SFGKJ+WEdpsCfN25D7DgxYShr/z+N+qH9wI8h6rP2A524zYhdvt7Kd5RTRh87+YbP1Dq7+eIJPjLlSfb3BPXXK58YHtr5gTpsXLATPmN7xNdoUR4SJI6LYpAjAkSACBABIkAEiAARIAJEgAiEewJW41OeNMTb6Udb9VdDux+pVzDsjnvIjivpyYJhvj7OIMonGuLDwziDUZ5QOBEgAkSACIRtAm4b4lHdy2euQtuKffkPc7yEcWDBgR8gdtyYnISZIf7onrPQ0284v2/Eol7wbfEvuV/8NzpgproP/bYrCwCXiG/6fQA3juFM93XnZ6lGrq61h8DpQxcB96s/ymZj4t7oogHn4b0n3AiN6TdiM8Ebsxnh6PZt+gkGthrP/SWrFYSe49vyPV55gI1/f/1+B6YOWgBH2FLw4p7JmCTqUZwti9+way22B31ip6fIchFfPHA5f1ydQM/19B/JDO6n+aXVZ2Y4GQvG95oD6xfs4Nfm7h2rzuDXM3SsnLmF64c3NwusA36dqvF44r8Hdx/z2fWR2dLcSVIk5Jdk9RPTJb+DgFVHB++icgigVw6Psfanx3/tj3Z1DaV84b5g/ZqN5aedhzWDKo1KKZcMjwvGr+GrQeAN7QY2YqtBlAtx77YV+2BkF8eHKVpDvGz9sNOOWXVE9eq/2N58VSA7W0mkXwg9F09aB8EjlvHwIbPZR1Fl84a4xygAP/IqldaPt535S+TmW3zgvXb5eivfjfRQwo30sZNvStri0W6+eIKPTHmS/T1B3fXKp8hEzx9a+aH3bAojAkSACBABIkAEiAARIAJEgAiENwJW41OeNMTb6Udb9VfN8iW0+pF2xz1kx5WMdPf1cQZRPtEQT+MMRjlK4USACBABIvCxCUgZ4lFoZcl39FdpVBo6D2uKXjAzxIs/iNO3DoPEyRyGWh7xv38r2bL1y6Zt5GfzmGEY91qfOmgRrJzpWM5+NpuFjfu24943lbI15UZfnAX/EzM0b16yG8R94vdvPgoDWv7A05q8fjBkz5OZ+x/dfwrVcrX474nA41SsXxIKV8gHCZPEU8NlPffvPIIdbEn4bSv28tn4Yjo4Uxz3YRb3T5flYvTiIT4P/eLy/oFjW0O5usXUW+rka89mrN9j+zSngPn7HAZIvKhn6BjTfSZnjNensNUFsrFVBlxxsvq5knZEu8eqoyPyoHIo0gC29PxmtkXCQh44emkfyFMkp/MN7AyXtq+X3zEru0pD1q4Nd7RrIW4UAtDAjoZ2dNiuZWHLtGvd8b3nILDBMB6sNcTL1g877ZhVR1Sv/rvS3mxa9COM7TGL6zlwRmcoyj4+csVh2k/Zihq4YgFusSB2pOzy9Va+m+llpo+dfNN7pt188QQfmfIk+3uCDPTKpx4bJSw080N5Jh2JABEgAkSACBABIkAEiAARIALhmYDV+JQnDfF2+tFW/VWjPArNfqTdcQ/ZcSUz3bHfjU4cnxHvNxv/8fY4g9E4CI0ziDlEfiJABIgAEfAlAtKGeFwK3r9wZ8Aj7r8+fcswyJQznakhflxgMGxcvMtl/UeyWfP52Kz5E/vOQ/f6jiXVOw1tClWblIYLx3+FDlX787RwX3jcnziow2T1HGfPKy9buCT8OnYPztJW3O71h2EEM6C9ef1GCeIz7fMW+xIq1CsOBcvk8cgs+Z9PXeFG+c3LdsNb9vEAurgJYsOC/T+oe9nLcjF68VAV+s+DS3Xj8vTv3r6DwuXyweDgrvzK1Z9/h+alenC/f6fq0DSwthpVz9DRj+3/fHDrcX7P0qOTIWnKROr9Zh5Z/czSjKjXrDo6RlyoHAKM6jodti7fyxFh/cPtFbQO6wjOysa6lZMtSz+RLU9v5fo2HQOHtp/gty0/NkVdCUKMZ2aIt1M/ZNsxpW1EGZf+NAmSpnJepUOv/rvS3mxevBvGBM7kqhsZ4nG1gv2bjsLx/WfZ1iP34eHdJ4BbeiB7xYkdPbt8vZXviqzu6oPxZPNNeaZ4tJsvnuAjU55kf09Qd73yqTD52PmhyEFHIkAEiAARIAJEgAgQASJABIhAeCZgNT7lSUM8cpTtR1v1VzHtj92PtDvuYWdcCfXXOl8fZzCSj8YZtDlJ50SACBABIuArBKQN8aiAaHTBPdinbBgCUwcuhFXBW7h+iw5NgBRpP1d1DWwwHI7vPcvP0XjPLN/qNT3P0Dnd4buSueH1q3+hcvZm8O+rN3yGJRp4Fk9kSyCPXKbOgL/390Oo9U0bnoyyT3yL0j3gysXfoXB5Znye5TA+i8/57cINWDN7K+xjM+dfPn8lXuKG+AHTOzvtYex0g5sn545eZktej+EfLmDUYfN7cN3QL8vF6MUD09S6Hoz9McY+eszPAD9cwL2ZF05YA3NGreC3Bu8cyVimUaPpGToC6gXByf3n+T1rz82CeAljq/ebeWT1M0szol6z6uhYcaFy6Gh/zMpvpS+awrMnL9gWEklgyZGJVkghoC6rFwcc9WL9xdkQJ55jmw4xopkh3m79kGnHrDqievXflfZG/E3QM8TvWnsIxvcKhudPX6p4kqRIxLfLiBM/Nv+gCi+IhnhP8vVkvqOcMvpgPHQy+eaI6fzfbr6I5U+Wj0x5kv09Qe31yieG+0J+oBzkiAARIAJEgAgQASJABIgAESAC4Z2A1fiUpw3xyFOmH23VX/WFfqQnxz3cGW83KqO+Ps5gJB+NMxjlKIUTASJABIjAxyZgyxCPP3ztKvWFS6evcj0CRreCG7/8YWiIF2ferTw5DRIlje+y/oohOX6iuLDm7AzVeF2jeXloP6ghT8evUGd1n/jG3WpClezN+czWbiNbQEW/EobPevXiNRzeeZJ/XanMbMWbXV2a2jBhzQVx/2RxBrosF6MXD81j+enmJXtgTPcZ3D96CVuWu2hOaFuxD8+75OxjicXsownR6Rk6BrUeD3s3/sRvm7VjJGTM/sFwL8bV+mX106ZD5wBWHR1XGEXUcji+9xxYP38HR6RscaHlhcuil83oaE9wdYxRi3tpbwlx3r/FODiw5RgPX3x4IiRPkyTEPWaGeE/VD3faMauOqF79d6W9MTPEX7v8B7Qs01Od+e7fsRqUqlUEUqX/sDJBmQz+/IMr0RBvl6+38l1WH23hcCfftHHx3G6+eIKPTHmS/T1BnfXKp6/kB8pHjggQASJABIgAESACRIAIEAEiEN4JWI1PecMQrzB1px9t1l/1lX6k3XEPT40rKXx9fZzBSD4aZ1BykI5EgAgQASLgawRsGeJRmV/OXYM25ftwYwAuuZ7/+9ywfdV+rqd2Rry4Z8341QPgy/xfuMxDjItGNPwAAF+8hszuBoXK5uXpKHvB4D7xzQLrQu/Go3j4MraM+ucuLqN+ZOcpNZ4rM2JfPHsJVXO1hP+9f8+WnI8DK05MYUv1f1gCX1Tw6J6z0NNvOA8SZ+mLurnDxejFQ3ym4n/84ClU/6oVvH/3Hqo3LQt+bCn6Guwc06jfrgq06F1PuZUf9QwdosFGWXXAKZLBiax+BslF6GCjjg6VQ+tisX7+Thjfeza/cfiCHpC/RO4Qkf64ehsaFunCw2u3qght+vuFuEcbMDpgJmxZupsHT1w7CHLmy6K9ha0E4toe8e7U/xAPEQKs2jGzjigmo1f/XWlvzAzxUwctgpUzN3Ep2/T3h9qtKggSO7x6hni7fL2V77L6hFBaCLDKN+FW1Ws3XzzBR6Y8yf6eoOJ65dNX8kPNGPIQASJABIgAESACRIAIEAEiQATCMQGj8SlFZW8a4pVn4NGqH23WX/WVfqTdcQ9Pj7v6+jiDkXw0ziDWDPITASJABIiALxGwbYhHZX7oORs2LNwZQi+tIV7c671Fr3pQv32VEHFwifgXzxzLxMdPHEc1at/47RY0KdaN31+uTjG+13MktrQ97v2uLAWNywkFtZ/kdA/uA437QYvu7l8P4MXzlxDts6gh9kbG+xoV7QY3r9ziUdadn8X3dBfja/04gxZn0qKbtjkIsn6VQXsLP186ZQPMHLaE+yv7l4IuI5pxvywXoxcP3YezwO71h8GJfecgWZrPAWejjuo2nd86fUsQZPnSWWY9Q8f2lfthROepPE7NFhWg3UD/EI9aO2c72w7gBg/vMKQxfBYjGnvmefbsIB7mbr7zSPRPJWDW0aFyqGICvXJ49qfL0LnGQH5T3TaVoFXfBh8i/OfbsGAn/NDLYazvOb4tlGEztq3cmtnbYFL/efw2vw7VoFnPOiGiiHWnU1BTqNq4tHqPbP2w045NG7wIVsxwGMVdrf+utDdmhnj8MAo7yOiMPo4qnd4f3rx+47Q0vV2+3sp3WX3s5JtaaASP3XzxBB+Z8iTWCXd+T1B1vd8nX8kPIWvISwSIABEgAkSACBABIkAEiAARCLcEzManUGlPGuLt9KPN+qu+0o+0O+4hO65kVDh9fZzBSD4aZzDKUQonAkSACBCBj03AI4b4J4+eQ8PCnQFnXYtOa4h/eO8J1M7bFt7++5bvVT5/3zhInCyBGuXtm7fQonRPuPHrnzxsxfGpkDj5h+t18rWHO7fuqfdnzJEWZm0foZ6L+8QrgTj7Gw3CoutaewicPnQRPon8Ccxhs+vTZEqhXn739h3Uzd8B7t1+ALHixOCG/sjsPjOnpIf3FCyTB/pO7sAN0GKcuyy9gLpDmYH/Lx4cMKolVGjwPffLcjF68RCfK/o3LfoRxvaYxYNSZ0zBPzb4PGViZhRzfLwg3qtn6Hh0/wnUyN2az6qPHCUyBO8aBWkFdn//eQ/8CnbiS0/j6ghrz80E/FhCVj9RHvI7CJh1dKgcOhgZlUNsp6rlasHL76fRPoUFrP1JmiqxWrSePn4O/mx7C6Udm83Kd/ovUqvXjTxXf/4dmpfqwS/jfucYD9sOxeFSZx2r9lf3Rdca4mXrh5LfMu0Yfqgwsd9cLmIf1l6VrFZQEZcf9eq/K+2NmSF+WIcpsHPNAZ7+mGV94ZvCOdRnvmcrikzqNx/WzdvOw8Sl6e3y9Va+y+pjJ99UYILHbr54go9MeZL9PUHV9crnx8iPiyd+hWXTN0KcuLGgYZcaLq+8I2QfeYkAESACRIAIEAEiQASIABEgAmGSgNn4FCrkSUO8nX60WX/1Y/Qj9TLb7riH7LiSniwY5uvjDEbyhYdxBqM8oXAiQASIABEI2wQ8YohHBFuW7oHRATOcaGgN8Xhxw8JdbAZ9ML8PZ47XalkBvmXL2d+6/jefVb95iWOJZ1w2GpePFp24VA+G12T7w7f7b3945T7/wl3gz2u3lVOehnYJ6oUT1sCcUSv4PbkLZgecpZ2JGfUf3HkMmxbtgoUT1/JrRSvmh4EzOqtpGXmO7j4DPf0/fBCAs/CrNykHqZmRGg37OEN8ORusVwx8iZImgEUHx0O06FHVJGW4GL14qIlqPI/uP2XL0beE9+//p16p1bIitB0QcvltPUMHRpoyYAGsCt7C46fOmByqNS4LufJn5XvNb1q8Cy6fucqv4aoFgeNacz/+k9FPjUwelYBZR4fKoXU5nNh3Hqydu43zRCN7lUal+RYZaFDbzJaX//nkb/xawbJ5YOjsAJW7ladT9YFw7uhlflvOb7PyrTHwA55ju0+zdPfAg7uP1CS0hni8IFM/7LRjYlnJmD0NNAmozVf+yJAtDf+ISK/+u9LemBnixQ+Bvi6Ug62o0RBSpEsKZ49cgnXzt6uz5ZGHaIjHc7t8vZHvsvrYyTdkoXV28wXTs8tHpjzhc2V/T/TK58fIj0ZFu6of11VvVg46DG6EapEjAkSACBABIkAEiAARIAJEgAiEewJm41OovGiIr9q4DMSK/WHCghZOqZqFAccY0en19+z0o836q7vWHFQnLLkzTmFHHq3uyrndcQ+ZcSXl2dqjr48z4Hg6lhN02vGjsD7OoM0LOicCRIAIEIHwQcBjhnj8kW5fpb9qyEI8eoZ4DA9qPxl2rT2IXl0XL2EcGLmoF2TOlc7p+r5NP8HAVuPVsKC53aFA6W/Uc/SMDZwFmxb/yMOiRI0CGy/ODjE7HQ3inWsMUmfe4804qxT3T1cczmgdOjeQGemyKkGmx8M7TsKwjpPVWa9GN6NOQ2d3d5rpr9zrLhdXXoyUtJVjtzpD4dTBC8opTF4/GLLnyayeKx69F1+8hlsH9GAfHZz/z+io3C8e8eV58oYhEDtuTDFYOt+dEongJ1YdHSqHHwqIXjl89uQF9PAb7tROfYjh8OEKGWOX94OEn8fTXjI8/+3CDb7svbKthvZGXCnj0PYTPFjPEI8X3K3/dtoxXH2kc83BgB8giG7U4t6Qt1gu3Y6vK+2NmSEeVyzBjvi9vx+Ij1T92JafOXyRb02i7UjZ5euNfJfVx06+qbAEj918waTs8pEpT/hc2d8Tvd+n0M6Pd+x9oWqO5pwd6oIftMzaMRK95IgAESACRIAIEAEiQASIABEgAuGegNX4lGiIt4KBk6BwMhQ6vf6enX60WX81XdZUUuMUduQxYmF33APTdXdcyUgWXx9nyFM0p6EhPiyPMxjlB4UTASJABIhA2CdgaYhH4zoaaz5nSy4vOzbZVOPfzl+H1uV7qzOulx6dDElTJgoR59WL17CIzTpfP3+HOoiNN6HxO1f+L6DriBa6RjC+hG7O5jx9XPJ8/cXgEMZecZ94nO0+bkW/EM/HgPt3HsHiietg+8q96p70GI5f1eXImwW6jWwJyVJ/WLYar1m5P67ehhlBi+EKM8r9Iyyhj8u4p82cAr4qkANa9KzrNBNeTNNdLvhiVDJ1fc4jX/Gv2McLPcXkdP3iF5I4M3/FiSl8+XjtzaXSNoC3b96BXrqvX/0LSyath/ULdqiz/DF+jFifQcUGJaFeu8qAH1Nonbv6aePTOYBVRwcZUTm0LodLJq2D9Qt3wpOHz9RiFTN2dChX93vw71wd4sRz/ohEvcnEg6tBTOw7h68Ogbfhxz1ZvkzP9oMvA+mzpmbbbjhW+Og6sgVU8isRIiWZ+mGnHUPD5YIfVsOlM1fg2qWb/EMk/ADh60LZQa/+u9LebF2+D0Z1ncZ1GxLcDQqVy+uk5+2bd2Fwm/Hwy9lrfKkzbMex41usUn5o0KEqNCkewGcY67U7nuDr6XyX1cdOvjkBZSeeyBdME8ufHT7ulidFD5nfE73yiemFdn4smbweZg1fylXRW8VH0ZGORIAIEAEiQASIABEgAkSACBCB8EbAanxKGU92RW9x/MCov2enH23WXw3tfqQZD0+Me8iMt2tl8vVxhtwFs5mOh4flcQZtXtA5ESACRIAIhA8C/wcAAP//neyv0AAAQABJREFU7J0HvNU0F8APW6YIgjIEEQREUFFBBRzIkiFTZO+99957b1D23huUIaIMBQQHG1TAgQoieyl+DL+cPFpy+9reNmnvve+9k9/vvdumGSf/JKcZTRJv2x9L/4MwmXv37sGFs5fh2pUbkCp1CkifKW3IJbl79x5c/DNKhmQpkkKGLOkgXrx4ynL8feMf+OOXcxA/fjzIkiMTJEqc0HGYkcDFibD//fcfXDx3BW5c/5vnX5p0DzvxBjElfY4SE2JHb2WsxmPcfmaZo5jjSjlsWa43fH/gFFRr/i4071PLERssv5f+ugrXr92E5Kzup30sNauv8R35tXN0+cI1uHLxKjyeOR0kTf6QnVPTZzL1wy89ZiqgB5Y3r/8Df/72Fzz+RHpInjKpqxBV+fqR77LpicR884OPkwyWfZ+YhR3K/GhcoiucOnYa6rStBA27RelnM5nIjggQASJABIgAESACRIAIEAEiEJsIuB2f8irtfvWjQ9mPDMZCddxDZlwpmEwqz2mcwft5B5X8IL9EgAgQASIQegLxwjkRH/rkUoxEIGYTCFdHJ5Kp7dy4F/o1GcdFjJ8gPrTuXw8qNSwVySKTbESACMQCAqtmbobJ/eZCoiSJYPrmYfBkzsyxIFWUBCJABIgAESACRIAIEAEiQASIQHACND4VnBG5IAJEgAgQASJABIgAEqCJeCoHRCAGEaCOTvTMwi99fz3xB3yyfCcsm/oRPPp4Gli6bzIkYJPyZIgAESACfhDYsOhzGN11Og+644gm8G7tYn5EQ2ESASJABIgAESACRIAIEAEiQAQikgCNT0VktpBQRIAIEAEiQASIQAQSoIn4CMwUEokIWBGgjk4gmfNnL8GWFTshb8HcbGv6kzB10EJIkjQxbPh+DiRImCDQMd0RASJABDwigB//dKs1DNoNbQSvFc/vUagUDBEgAkSACBABIkAEiAARIAJEIGYQoPGpmJFPJCURIAJEgAgQASIQfgI0ER/+PCAJiIBjAtTRCUS1fsFWGNd9ZoBluVrFoNPIJgF2dEMEiAARIAJEgAgQASJABIgAESACRIAIEAEi4A0BGp/yhiOFQgSIABEgAkSACMR+AjQRH/vzmFIYiwhQRycwMy+dvwpfbNwHf/xyDhInSQhP5noCilUsBPHixQt0SHdEgAgQASJABIgAESACRIAIEAEiQASIABEgAp4QoPEpTzBSIESACBABIkAEiEAcIEAT8XEgkymJsYcAdXRiT15SSogAESACRIAIEAEiQASIABEgAkSACBABIhATCdD4VEzMNZKZCBABIkAEiAARCAcBmogPB3WKkwhIEqCOjiQ48kYEiAARIAJEgAgQASJABIgAESACRIAIEAEi4AkBGp/yBCMFQgSIABEgAkSACMQBAvH+YyYOpJOSSASIABEgAkSACBABIkAEiAARIAJEgAgQASJABIgAESACRIAIEAEiQASIABEgAkQgJARoIj4kmCkSIkAEiAARIAJEgAgQASJABIgAESACRIAIEAEiQASIABEgAkSACBABIkAEiAARiCsE4v189TCtiI8ruU3pjPEEnkyVl6fhl2tHYnxaKAFEgAgQASJABIgAESACRIAIEAEiQASIABEgAjGPAI1Pxbw8I4mJABEgAkSACBCB8BCgifjwcKdYiYAUAeroSGEjT0SACBABIkAEiAARIAJEgAgQASJABIgAESACHhGg8SmPQFIwRIAIEAEiQASIQKwnQBPxsT6LKYGxiQB1dGJTblJaiAARIAJEgAgQASJABIgAESACRIAIEAEiEPMI0PhUzMszkpgIEAEiQASIABEIDwGaiA8Pd4qVCEgRoI6OFDbyRASIABEgAkSACBABIkAEiAARIAJEgAgQASLgEQEan/IIJAVDBIgAESACRIAIxHoCNBEf67OYEhibCFBHJzblJqWFCBABIkAEiAARIAJEgAgQASJABIgAESACMY8AjU/FvDwjiYkAESACRIAIEIHwEKCJ+PBwp1iJgBQB6uhIYSNPRIAIEAEiQASIABEgAkSACBABIkAEiAARIAIeEaDxKY9AUjBEgAgQASJABIhArCdAE/GxPospgbGJAHV0YlNuUlqIABEgAkSACBABIkAEiAARIAJEgAgQASIQ8wjQ+FTMyzOSmAgQASJABIgAEQgPAZqIDw93ipUISBGgjo4UNvJEBIgAESACRIAIEAEiQASIABEgAkSACBABIuARARqf8ggkBUMEiAARIAJEgAjEegI0ER/rs5gSGJsIUEcnNuUmpSU2EDjz+59w7eo1npSMmTNAqodTxoZkURqIABEgAkSACBABIkAEiAARIAJEgAhYEqDxKUs09CCMBC5evAyXLlziEqR9NC2kSZs6jNJQ1ESACBABIkAEogi4moi/d+8e/HTyF/j5xK+QIdNj8PQzOSBJksRxjmVs4HDnzh3447c/IWu2zHEu/2Jygt10dKicRk5OY15cv3aDC5Q8RTJImDBh5AhnIklM0w/h5Dtt4hwY3mcsp1jk7UKwYM00E6Jk5QWBUJfLUMfnBaOYGAbqRqzDiVl7MmnSh2JiEnyR+crla7Bw9jJInDgRlChdFLLlyAq//vQbTBjxARRn92UqlvQlXreBhlP/mskaLnnCFa8ZA7IjAkSACBABIkAEiEAoCAQbn/r773/g9v9uQ7x48Vx9sB7b+2HUbvSvdGKZK1vkPfjl1Gle7mYsmQTFSr/pS4SxvZz6Ao0CJQJEgAjEYQKOJuKPHf4e+nYaCkcPHYdb/9zScSVIkIAPDLbq3AQqvl9Ot4+tF7GFAzZMir1UDv488xe8U6EEfDg/ahIptuZbbEpXsI4OppXKaeTl+BfbdkPdis24YIPG9obajapFnpD3JYqJ+iHcfAd0GwZzpy7mBAeP6wO1Gr4fsfkbUwULdbkMdXwxNV9U5f7vv//gqdTP8WDoQ5YHNG/c+BsKP1scrl25zi1x8PKtkq/Dv7f+hd079sL4mcOhQtWyDzyE8Src+teY9HDJE654jemneyJABIgAESACRIAIhIpAsPGpSsVrwYGvD3Fx9p3YDunSpw0qWlzoh1G7MWgxkHbQr8tQmD99Cfc/eDwbm2ngz9hMXCin0plAHokAESACRMCUQNCJ+M0fbYWOTXvAP38/mIA3C6lu0xrQe2gXSJQoUcDjXWzA8LuvD3K7hi3qQPLkSQOey974Fa6VPKocrMINh/2h745AhaI1eNTJUyaHI79/FQ4xKE4JAsE6OlROJaCGwMvOz3ZBvcrNeUwDx/SCOo2rhyBW6yjs9GdM1A/h5ouTie0adYWPVm2GpMkegk2718Tq3Ubsyo91qQv+xC5cP8plqOMLTiDuuRAn4gsXfQ0Wrp0eMgh2+R8yISwi2rh2C7Sq1wmQSZo0D8OmdVsBV1ygSZU6Jew4sBlSP5LKwndorcOtf42pDZc84YrXmH66JwJEgAgQASJABIhAqAgEG5+q+HZNOPjtYS7O3h+3QfrHHg0qWqj7fUEF8sFBbG83+tXPChYuPq9dvjHPsQ69WkHbrlFjcLJZaBefH+VUVk7yRwSIABEgAjGDgO1E/D9s9fvzWQrxrYQwOa8UKQAly70NBV97EY4f/RE+27Sd/e3QBweHTx4A1epUDki5uFJw56HN8ETWTAHPZW/8CtdMHi84mIUbLjsc+O7ZbgAcPnAMqterEtGrc8PFKFLjtevoUDmN1FwDiLSOlp3+jIn6IRL4/o9tudewakvYtf0rKPTmK7Bo/czILZCKktmVH5Wg7cL1o1yGOj4VNrHVbzgn4u3yP9y816/axCbfP4XOvdtA9pzZ4K9zF+CzzdvhxvWb8H7tSvBw6siYhEdOkaB/xfwKlzzhildMO10TASJABIgAESACRCCUBOzGp1AOmYn4UPf7QslLiyu2txv96mfZhYvjMUXzl4Ezv/8JdZpUh4Gje2m4pX/t4vOjnEoLSh6JABEgAkQgRhCwnYgXt8spXqYozFgyMVqiFs1ZDr3bD+L2Zm7sXlzRAnNh4Ve4ZiJ4wcEsXLIjAm4J2HV0qJy6pRk695HW0Qql/gwF5Ujh+++//4NLFy5DInam86Pp0oQi6WGJw6/y41e4VpBCHZ+VHHHZnibiY37uR4r+1UiGS55wxaulm36JABEgAkSACBABIhBqAnbjUyiLzES8H2mItH5fbG83+sU7WLi/nz4D2L/M9EQGiB8/vnJRChafcgQUABEgAkSACMQpArYT8cP7jYNp42dzIONmDDM9B/7u3buQL/OrfOt63JL3wK+7ITGbhDj1489w+dJlmDFpPmz5+DMexsQ5oyBDxvT8Onfe3JAiRTIdNm65uXfXt/D76T/g0sXL8OijaSDrU1mgAFt9j2djasZtuCd+OAU/HD0BZ8+cg9RsBdETT2aGgoVecvVSVuGgyS3+HvjmEJw68QvjcwWyP50N8r6Qx/KspP3sPKW7d++w5+kYjyd4MMjgyMFj8G6V0vDdvgPcDldHPZ07hxiNfo1njX5/5Ht+n+mJTJAh02OAMiDzR9I8wldb6Y6Fi6OHjsMPx07CxQuX+E4GufPkhCzZMgdl5yZ9QnR06YCAXUeHyqm7corl+8fjJ+H8XxfZpGlaVhefhOdfyucgF6ydYF3btX0P02NnIHOWjPDa6wUh1cMpXa0YlKk/TvWcU/1ppR80fZQmbRp4ivFCc/3aDdjzxT64dvU65M7zNDyTLxckSJCAP7P651TfG/17wdePfJdNj9N8M3Kwu4+E8qPJ55SLarnU4nPK06v4MF6Z96RTLlq6tF+n6dPcO/mVKS924bqtX1YT8ZhHu3fu5VE9kzcnvPzqi3bR6s+cpMdp/nul71C4UJYTLb7Y8n7TM9dwofo+kK2HqvGq5o+MHvjt1z/YsSlJY/UHYobiQbdEgAgQASJABIhACAjYjU9h9LIT8VbjEVqSnLaHnLb7tXBl24eaf+OvF+1GJ/0bY7x29zLhhZu303zU+m9W49xepyNYOcV8CGU/0Gn67MoHPSMCRIAIEAH/CNhOxI8dOhkmjZjGY+82sAM0b9fQVJKjB4/DP//8w57FY4Ol+bmbWuxclt3sfBYrM2/1VHijWGH+eMuGz2FA12F8Cxmj+1xsYmfklIHw3It5+SOn4Z794xx0b9sPdm7dZQwSsjyZCQaN7aPHH82BwUKFgxjUT2zyvUPTHoBnyRhNrUbvQ59h3SBJksT6I3GAumqdilCqXHEY3HMk/HLqNCRnHzHs+f5zeClbEbh9+w48liE9fPV91AcPegD3L5YtWA3dW/fjd1o+PpX6Of6loNmZrNjI6dyyNxxgHwEYTZ7ncsOUuWPgyexZjI/AbfqiBUAWQQnYdXSonD7AZ1dOsXx3adUH9u87+MDD/as8+XLD0Al9pSbk163YAP26DIWrl6/p4eJXuJWql4Oyld7h25bjA6sz4mXqj1s951R/mukHUR+VrVQKWndpCr06DIKD3xxmHwvd1dOMHzpNmT/WcsDfjb7XA2UXqnz9yneZ9LjNN5GD1XUklR+U0Q0XlXKJcbnlqRofxin7nnTDBeNB4zZ9Ub7s/8uUF7sQZeuXqFewPdJjQAdoUac9/PbrmYDoXnolP0xbMgHSpn0kwF67cZMeJ/n/+tuFAPUgGhV9F8pygrLK5gP6tTOq+tdN/tjJoT1TlUemHmLcqvGq5I+sHhjSexTMZB9FJ0yYkLdvqrKjDcgQASJABIgAESACRMALAnbjUxi+7ES82XgEhue2PeSk3S8zLo2yBDOq7Uav288y4UUKbyf5KPbfjOPcfqXDqpxi2QhlP9Bt+oKVXXpOBIgAESAC/hCwnYjfxSbSa7MJdTQ4eT1rxQeQI+dTjiSp/14LPgmOg6yi0Va3L1w/Awq98QrgF2vVytTXz6HPmPlxeIrF8c2e7+AWO6MeDW4rs3HXKr6y1Em4LxZ8AaqUqA3HDkWtAk+UKCHkzpsLTv/ymz5J9lDSh2Dt54sBJ/qDGRUOWth4Xk2lYjV1mdI/ng4ysnSd+P4U3GRnfqLBjxiWb56n7wAgDlA/w+T/9efT8PdN/OAB+ET8kT/2QsNqrWDb5p3c7uOdy+HZ55/h1+K/JjXawtaN27jVtu828El0qwYDNs6qlKwNVy5d5e4xv1DWc2f/0oNMnjI5rPlsETydK7tuJ5M+3TNdOCZg19Ghchq8nGL5fq9kHb4bhQYdy/dff57XbiFZ8qSwYO0MeLHg87pdsIvPNu+AJtXb8I9b0C2uCE/yUGK9vuIuFNg4RmM2ES9Tf27d+te1nnOiP1Evm+kHUR/hhz+3bt3S9SlPmPAPPz4YO22YYBN16VbfawGo8vUr32XSI5NvGger30grP265qJRLGZ4q8WEeyL4n3XLBuGTSh/7sjEx5sQtPpX6JegV18W3WVsLdgtAYdTN+kIltD+M2g27T4yT/cTcT1INoZPVdKMsJyqmSD+jfyqjqX7f5YyWHZq8qj0w9xLhV41XJH1k9gKu68mV+Te9PvfByPlaHFmso6ZcIEAEiQASIABEgAkoE7ManMGAvJ+Jl2kNO2v0y49LBoKm2G71uP8uEF0m8neSj2H8TJ+L9TIfZuBmWjVD2A2XSF6z80nMiQASIABHwh4DtRPw/bCK8QI434SbbbhkNTlA1aFEbKrxfNmAS1k60YGeqdGvdF5YvWMOD6DmkMzRpXY9f4xY+fTsNgjVLP+b3g8f3gVoN3tejsgv3y+1fQZ0KTbhb3Gp60UezIDmTHQd8h/UdAzMmzuPPWnVuAp37tNXDtLrwgsPQPqP1eLsP6gjN2jbg0d1kE+vtG3fTJ8px+/53K7/Dn4kD1Jps71Z5B6rUrAg5n8nBt5hftWQ9dG7eiz/u0KsVtO3aXHPKf/Gl/CJbNf/P37cg97M5YdPuVdzeqsFQu2JT2LVtD3dTslwxGPXBIP4BBG5rOX7YFFi95CP+rFHrOtB7SFd+jf9k0qd7pgvHBOw6OlROU7JVlPbltF6V5vouGeWrloF23VrwLdZP//IHzJoyD+ZPX8LzAuvKx18sD7rFOjrG1eAlX6nIG9t4X61uZegzvDs7oiMh26Z+L0wY8WHA7hJmE/Ey9UdFz9npT0yDmX4w00cNWtaGshVLQb78z8KOT7+E5rXbw7179zi3b07thNSPpMLgdCOj773g60e+Y6Jk0qOSbzpIw0WklR8ZLpgkmXKpwlMmPpRT9j0pw0UlfSirmZEpL2bhaHYq9cuoV/Djv05920Llau/yNs6xw98DroDQPg6cMHsklGfH8ohGNj12+W+UC+Nzq+9CWU5QPpV8QP9mxgv9K5s/fskjUw+94KCSPyp6oNwb7wPuXIbm/TqVYMTkgWZoyY4IEAEiQASIABEgAq4J2I1PYWBeTsSrtIfs2v0op0z7EP2ZGS/ajV62n1FGmfAikbddPor9N3Ei3s90mI2bIe9Q9gNV0oeykiECRIAIEIHQEbCdiEcxjhw4Bvj12cXzlwKkwpXXOKBT8f1yfKI24KFwY/eiRGcdm/WAn9lW63iO8owlk/j58pp3nBx78/moSen6LWpBPza5pRm7cKdOmA0j+o7jTodN6g/V61bRvMHVK9egU4tecO/uPXiZnT/fskMj/ZndhQqHM7//CYWfLcGDL1bmLZjJ0ikaPGO5cN6ScJ2dsfx07uywZe9a/lhsSKDFELZlds36VUWvPD34sQRuT48fHeAqf9Fs2/KFviW2OFFv1mDA82RKFqzIveP5z5v3rIZEiRLpwV1hW26/wfID5cSVant/+Jw/k02fHjBdOCYQrKND5RTAqpziivRCeYpz1mnTpYFt+zdCSra7g2aww1SmcBV2bvwpboW7UxRgOiKY+ear76BqqagPiFAvfrRjmb6rBfo9x1bbly5UBS5fvMyDMk7Ey9YfFT1npz9RSDP9YNRHRt2K/to16grrV27CS1i3bYl+pAi3YP9k9L0qX7/yHdMkkx6VfNM4ir+RWH5kuGCaZMqlCk+Z+GTfk5g+GS4q6cM4jUa2vBjD0e5V65dRr+AkfOtOUR9SanF8vHoztGnQhd8a21Aq6bHLf6NcbvVdqMuJaj5orI2/qvpXJX+MsuC9qjwYhkw9VI1XNX9U9ACWxcWzlwPuBNawZV1Ilz4tYiBDBIgAESACRIAIEAFlAsHGp7yciFdpD9m1+xGCTPvQCp5qu9Hr9rNseJHI2y4fxf6bOBHvZzrMxs1C3Q9USZ9VGSZ7IkAEiAAR8IdA0Il4jPbXn3/nZ5Nv+2RnwFnA+AwHdspVLgVturbg29ejnWjsXpSiO7NrXFmZ89EXeZxFS70Bs5dP0Z3Zhbtx7RZoVa8Td4ur90d/OJifjah7lryQ5bCdrRRtwD5mQDNn5YfwVoki0STo3qYfLJu/mtsf+/NrSMq4ig0J3LZ+xSfzo/lDiwZVW8J2NuGOZt+J7QGDbH06DYaFM5fxZ1v2rdV3MjBrMMycMh+G9BzF3ZoNhuOD839d5KvrEyZMAHiMABrZ9HHP9M8VgWAdHQyMyql5Od2xdRfUZyvi0fQa2gUat6rLr8V/eG5ss5rtuNWgsb2hdqNq4mPT64mjpsG4wZP5sz7Du0FDtmuI0axcvA66tOjNrY0T8bL1R0XP2elPFNJMP4j66FW2bfOSj2cZkwkfjJsFo/qP5/bTFk+AkmXfjubGysJK36vy9SvfrdKh2VulRyXftLDF30gsP6J8xmsrLuhOplyq8JSJT/Y9aeRgvLfiopI+Yxx4L1tezMJCO9X6JeqVPPly851ItCOMtDhxt5eXs7/Bj/p4mO2ysf/nL/WPnVTSY5f/olwy+i7U5UQ1HzTWxl9V/auSP0ZZ8F5VHrMwRTureqgar2r+eK0HxDTTNREgAkSACBABIkAEZAkEG5/yciJepT1k1+4Plnar9qGVP9V2o9ftZ9nwIpG3XT6K/TdxIt7PdJiNm4W6H6iSPqsyTPZEgAgQASLgDwFHE/Fa1H+duwCrl66HlWwr+VPsrGXR4AppPPddPDccn9u9KEX/xmt8ieLK1sLPFucTv+KLNFi4F9nK05efekMPEs9Xr16/CrxTvgSkf+xR3V72wi2HWR8sgME9RvLo1m9fCo9niprAFuOfOXkeTJ8wh1t9+vU6yJHzqYCJeGP6Rb8rFq6Brq36cquRUwZC1dqV9Me4Eh+/gMyRMxt8+vV63d6swdCjbX9YOi9q6/rVWxdB/gLP6e7tLmTTZxcmPTMnEKyjI/qicirSAJjB6tjQXqO55fy10+H1oq8FOmB3uLX9G89F7cJRu3E1GDQmavI8mkPBokurPrByYdQuFli/cZt2o9n52S6oVznqIwDjRLxs/VHRc8H0spl+sOrYiGldMm8l9Gw7gFtNmTcGylQsKT62vLbT96p8/cp3y8SwB3bpUck3szgjsfyYyYl2dlzwuUy5VOEpE5/sexLTZ2XsuKikzyw+2fJiFhbaqdYvTDvqGzR27Zz336kHX+/5jrs78OsueDh1Kn6tkh67/Hcil52+C3U5Uc0HDtPkn6r+VckfE3FAVR6zMDU7u3qoGq9q/nitB7Q00y8RIAJEgAgQASJABFQIBBuf8nIiXqU9ZNfut0u/XfvQyp9qu9Hr9rNseJHI2y4frfpvfqbDbNws1P1AlfRZlWGyJwJEgAgQAX8IuJqIF0XY//UhPimPq7hv/+82f/RI2kfgs28+gkfSPKw7tXtRao5wlfWmdVtg5+e74U+2ffQFdo9b4d+5c0dzEm2ANli4H7GtTPHs9P/9+z89DFxl9UbxwlCtTmUoUbaoJ6vknXDo1X4gLJ6zQpcj2MXcVVPhTSanVUPC6B8/WMDt6ZFXqXeLwdSFUStSjx/5gW21/R533rprU+jUq43u1azB0KxWe9jy8WfczReHP4HMWTLq7u0uZNNnFyY9MycQrKNj7guAyilA19Z9YMWCqAlz1FN4/ILRYB3CXTiw7uG29Lg9fTDTpEZb2LpxG3e26+in+k4Roj+7iXiV+iOr54LpTzP94EQfLZ2/Cnq06c+TbjUR71bfq/L1K9+1/HWbHvQnm29anOJvJJYflE+Gi0y5xLhkecrEJ/ueRDnRyHCRTV9UjIH/VcpLYEhRd6r1y4lewZia124Pn3wU1T7ZcXCzvgOTSnrs8t+JXHb6LtTlRDUfzPIW7VT1r0r+mMmkKo8Wptt6qBqvF/njpR7QONAvESACRIAIEAEiQARUCAQbn/JyIh7llG0P2bX7tfS7bR9q/oy/qu1Gr9vPKuFFGm+7fLTrv/mVDrNxs1D3A7H8yabPWHbpnggQASJABPwlID0Rr4mFK5Sa1mwLVy5d5VYzl02GYu+8qT0OusJt3cqN0LvDILjBzknXDG55nu6xdJCaTejvYNu6ozGulLJ7AWvhHD10HOZOWwyb2Fb1N2/8rVnz3+JligJOFCVO/OAM9AAHLm/sONSt3Ay++Gw3DzF+/Pj6lqpWUeCWzsjQriFh9FuPbbm9k229nTxFMviObduK6Zo0ejqMHRR1Hv3GXSsBdwbQjFmDoXbFprBr2x7u5JufdkJa9mGFEyObPidhk5tAAsE6OoGuo99ROY2qh3bl+7ksheD61et8ogcnfIKZ2hWawK7tX3Fn+3/ZBanZ1slGYzcRr1p/ZPRcMP1pph+c6CO7iSlkIqPvveTrZb7LpkcrGzL5pvkVfyOx/MjkM6ZJplxqLGR4ysQn+55EOWW5oF+Z9KE/o1EtL3bhydQvJ3oF4+zcohesWhy1q88nX62GnM88zUVRSY9d/juRy07fhbqciBxk8sGYr9q9l/rXTftXi9/4qyoPhidTD1Xj9Sp/vNIDRq50TwSIABEgAkSACBABGQLBxqe8nohHGWXaQ3btfgxTpn2I/syMl+1GL9rPYjtUJrxI4m2Xj8H6b36kw2zcLNT9QK0MyqRP80u/RIAIEAEiEBoCyhPxKKZ4LrBx5bXdi/KHYyeg3Ovv6yvfW3dpCpWrl4dsObLqqc/92Mvw761/pSbitUD+/vsf+GzzDli/YqO+chWfOd16Wgsn2K8VB3ElzJ7vP4PHM6QPFhR/HqwhIQaybMFq6N66H7eav3Ya23a7EFQqVhMOfHMYsj71BGzfv1F0bnoGdOv6nWHDmk+4uw1frgA8r9WJkU2fk7DJTSCBYB2dQNfmd3G1nPbtPAQWzFjKoWzesxpy5YmayBEp4VnEeR4vwK1eL1YI5q+eJj42vW5epwN8sn4rf7b9wCbImi1zNHd2E/Fe1R83es5OL6PwZh0KJ/rIbmJKVt+r8vUr32XTYywcbvLN6BfvI638qHCRKZdGJm54ysQn+55U4SKm0U36RH/atVflRQtPtX450SsYV6PqreHzTTt4tOLOIyrpsct/J3LZ6btQlxPVfNDy0/irqn9V8scoC96ryiNbD1Xj9Tp/VPWAGVuyIwJEgAgQASJABIiAWwLBxqf8mIjXZHTTHrJr98u2DzU5jL+q7Uav289ehRcJvO3y0Un/DfPKq3RgWGbjZqHuB6IconGTPtEfXRMBIkAEiID/BCwn4q9fvwkvZ38D/rt3D3DL+T3HtwJ+PWdmtrNV6w3ea8EflSpfHKYuGKc7s3tRDuk9CmZOms/d9hzSGZq0rqf70y68mIjXwsLfz9hAbmM2oIsmy5OZINiKVy84zJwyH4b0HMXjXLpxDrxS+GV+Heyf04YEhnPp4hUo+PRbcPfuXajfvCa06tyM32MYzTs0hG79OwREZ9ZgEAcKpy4aD6XKFQvwY3Ujmz6r8MjemoBVR4fKqTUz7cnCWcugT8fB/HbW8inwdqk3tEf6708nfoFiL7/L75u0rQc9B3XWn1lddG/TD/CIDjQrPpkHL7/6YjSndhPxftSfYHrOTi+j8Gb6wYk+spuYktX3qnz9ynfZ9EQrHIJFsHwTnOqXkVZ+VLjIlEsdhMlFMJ4y8cm+J1W4mCSNWwVLn5k/r8uLav1yolcwHe++WQ2OHDjGk3TkzD5Injwpv1ZJj13+O5HLTt+Fupyo5gOHafJPVf+q5I+JOKAqj2w9VI3Xr/xBRjJ6wIwt2REBIkAEiAARIAJEwC0Bq/EpLRw/J+K1OPA3WHvIrt0v2z4U4xevVduNXrefvQ4vnLzt8tFJ/03MJ9V0oH+zcbNQ9wONaRLvg9UL0S1dEwEiQASIgP8ELCfiMepn2MrQW2yFKJq1ny+G51/Kx6+N/6ZOmA0j+kZNvtdq9D4MHttHdzK0z2iYMTHqnOV125bAcy/m1Z+JK5y+PLIFMj2RQX+mXeRK/xI/5924Nb1duGfZOfM3b96EJEmSwBNZM2lB6b8lCpSHkz/+zO+//ekLSJM2tf7M7EKVwxfbdkPdis140F0HtIcW7RtFi+YG2zr/5o2b3D5d+rT8owe3DYk6lZrBl5/vhixsRW7rzk2ha6u+PDwjd7Q0azCsWrIeOjfvxf00al0Heg/pyq/Ff/OmL4Zjh77nVn1H9OCD4bLpE8Ola2cE7Do6VE4fMDQrp/t2fwvVStfnjpq2awA9BnZ84OH+1aLZy/lRGXg7euoQqFKjfDQ3Rgs8/mJA12HculXnJtC5T1ujExDr1sAxvaBO4+q6G9n6o6Ln7PQnCmamH5zoI7uJKVl9r8rXr3yXTY9KvumFRriItPIjywWTJFMuVXjKxCfWZTfvSVkuKukTiol+KVte9AAMF6r1S9QruZ/NCbgbj/Gjz7NnzkHhPCX4cT3GDyhV0mOX/6JcxvanhsBO34W6nKjmg5Ym46+q/lXJH6MseK8qj2w9VI1XNX+81gNmbMmOCBABIkAEiAARIAJuCdiNT2FYXk7Eq7SH7Nr9su1DK1aq7Uav28+y4UUib7t8tOq/+ZUOzH+zcbNQ9wNV0mdVhsmeCBABIkAE/CFgOxFf891GsGfnPh4znqk+fuYIfRWSJg4OkNYp3xhOsZWkaIZN6g/V61bh1/gPJ8T6d4mapBo/awRUeK+M/qxjsx6wZunH/H7BuhlQ5K1X9Wf32Er8Ad2Gw/zpS7idcSDULlxN7gQJEsBmdpZojpxP6eHeuXMHXs9XCv488xekfDgl7P/5C0B3dkYLD93IcLhw/hIUylMcbv/vNj/D/dOv10OGjI/pUd6+fRvKFqkKJ74/xe12H9sKGTI95uqMePS4ZN5K6Nl2AA8jR85s/GODzFkywheHo7ab5w/u/zNrMFy8cAleyfk2X1WfMGFC2Lh7JTydK7vu7ffTZ6Bo/rL8KAHcJeHbUzv4efey6dMDpgvHBOw6OlROozBaldMrl6/xXT5w14jESRLDVlYPxQ91rl65BkVfLAeXL17mAW3avQpwYiiYOX7kByhT+D3uLGPmx2HT7tWQiukWzeBWZ++Vqgs3rt3gVsaJeNn6o+W3jJ6z058opJl+sOrYaOnEX7uJKVl9r8rXr3yXTY9KvomstetIKz+yXDA9MuVShadMfLLvSVkuKunTyoj4K1texDDEa9X6JeoVDLdZ+4bQfUDgDj7D+o6F6RPm8Gir16sCwyb259f4TyU9dvkvymVsf2qR2+m7UJcT1XzQ0mT8VdW/KvljlAXvVeWRrYeq8armj4oe+HbvAZg+cS6kfiQVtO3WwvSjZzPWZEcEiAARIAJEgAgQgWAE7Man0K+XE/Eq7SG7dr9s+9CKjWq70ev2s2x4kcjbLh+t+m9+pQPz32zcLNT9QJX0WZVhsicCRIAIEAF/CNhOxG/b8gU0rNpSj/mpp5+Ees1qQnY2sX2XTWgfYxNQ0yfM1SeuHmNnn2/bvwGSJn1I9yOGgWeOd+jZim11nxpy580F61du0CeOC735CvQZ1hWezJ4V9n75DcyfuUQ/DxQDMw6E2oU7+8MFMHbQJC7Da28UhK792sGzzz8D589dhCVzV8DkUdP5szIVS8KUeWP4td0/MS50J8Nh0Ry20rb9IB4N7izQqHVdeKt4Efj1p9OAq3CXzlvFnxVl22XPZttmo7FqSPCHJv8usgnEgjneAvyIQTON29SFXoO7aLf6r1mDAR8O6jkSZk9ZwN1lZ/ldl+V3wUIvwcHvjsCSOSvh4LeH+bOqdSrCyMlR6UELmfTxgOifKwJ2HR0qp8HLaf+uQ2HetKiPe3CSvXaTavyoiO/2HuSTyPv3HeT5UaLs2zB98QTHeYMr7XHFG5oCr70Infu25as6d2z9ktftC39d1MMyTsTjA5n6M2n0dGk9J5YVo17GLZ/N9IMTfWQ3MSV+KORW36vy9SPfZdOjkm96ITJcRFL58eu9blUuVXjK1ANEL/OejOnlxVDkAm5V6peoV7RAK1UvB6XLl4RMWTLApnWf6m22ePHisQ+dVkGuPE9rTvmvTPlHj3b5nyzZQ1wPojtj+xPt0NjpO3weynKC8ankA/q3Mqr6VzZ//JBHth6iLKocVPJHRc8VZ8ftaB9L129RC/oN726FluyJABEgAkSACBABIuCKgN34FAYkTsTXbVoDUqZKYRl+pWrvsrHmbPy52XiESnvIrt2v0n+1Soxqu9Hr9rNMeJHI2y4frfpvfqXDanwCy0Qo+4Eq6bMqv2RPBIgAESAC/hCwnYjHKLdu3A4d2Mp1bTWnlRh5X8jDJq4m8pXcohtc7V29bEP4jq3IEM281VMhJxtMrVi0Bpw7+5f4SL8uVuYt+OqLr+EmO6/eOBBqF27eF56F6mXq6yvMMUBcNYorYTWDq+FnLp3EJ5k1O7tfVQ4YdoemPWDtsqgdAMziSvPoIzBv1VRAlmjEAWpj+s38o10ttjvB7h179ccrtyyAl155Qb/XLswatvgMt8hv+F4L+HrPd5rTaL84Qb9q6yJ4OHWqgGdu0xfgmW4cEQjW0aFy+gCjWTm9dvU61GflW5twf+D6wVWOXE/BwvUz4bHH0z2wDHJ19NBxqFamAddVZk5xJ42tG7fxR2YT8fjAbf25dPGKtJ6z059vFCvsy0T8n0zPy+p7Vb5+5LtselTyzaxsaXaRUn78eq9blUsVnjL1AHnLvCdjennRypnZr0r9Ets5OMH+17kL+sedxrhadmoMXfq2M1rze7flHz3Z5f/rbxdSnogPZTnB9KjkA/q3Mqr6F8OVyR8/5JGthyiLKgeV/JHVc9jvyZ/tdbjO2j5o8MM7PP6BDBEgAkSACBABIkAEvCAQbHxKnIgPFh8uksLFUmjMxitl20MYnl27X6X/imGbGdV2I4bpZftZJrxI5G2Xj1b9N7/SYTU+gaxD2Q9USR/KSoYIEAEiQARCRyDoRDyK8hPbdh63Bj1++Hv447ezunS4ffnTubPDq28U4IOj4kp43RG7wIGvSSOnwoFvDsMPR0/wCXGc6CrMVsGf/uUPaNuwCxxiK65xQBZXPOFgbJnKpaBVx8ZQsmAFvpLjzRJFYO7KD8VgbcPFwdwPxkyHlYvXB0yOJWWrnF58JT8MHd8P8KxRN0aVw99//wNT2CrWBTOX6YNiGD9+FFCw8EswZFzfgMk/5JEjzQt8hbtZ+s1kF790xB0K9hzfypka3eZ8ND9rjN4Bs3Bv3foXPhg7AxbOXB4wIJ48ZXKo2eA9aNauIaR9NI0xSHCbvmgBkEVQAsE6OhgAldPg5fTDsTNh4axlcOXSVZ15CvZ1drW6laB15+Z8C1f9gcML3C2iPzsrHvUcGvz4J9+Lz0LdJtW5TsPjJ9AMmdAXataPuuYW9//J1B8VPWenl830gxN9tGLRWujasg9P0dRF46FUuWJiEpX0vRd8vc532feXSr4FABVuIqn8yHLB5Lgtl+hHhadMfBinzHtSlotK+lBWMyNTXszC0ewwPJn6JeqVmg2qAq6UGdRjJOB22rf+ucWDx6NwWnVuAo1a1tGii/Yrmx6r/C/EdlMK1v4Kpu9QyFCWE4xPNh/Qr53xQv+6af/ayYLPVOSRrYeq8aJ/lfyR1QMfjp8FI/uNx+hB3HWLW9A/IkAEiAARIAJEgAgoEAg2PlWlZJ1oi7KsohPHD8zGI9CfbHsI/Vq1+1XHpTFsM6PSXsXwZPs3ZrLIhheJvK3y0a7/5lc6rMop8g5lP1AlfVblheyJABEgAkTAewKOJuLFaK+z1emnfz7Nt13GLeoTJ04kPpa+vs7OT/799B+QOUsm2+2K3EaAq0HOnT0PVy5fYeezp+CT7zjZr2pUOODW8XhGPcqU+pHUgOdKR6LBAfJzf56H69eucznTpU/rSMyYkj5HiYkwR8E6OkZx40o5rVSsFh+Yb9quPvQY2MmIwfQeyzc2WK9dvQYpUqbgH8HEjx/f1K0bSzyD69KFi5DxiUyQIkUyN165W5n645eecy28Qw8q+l6Vrx/5LpseP/ItksqPLBeHxSiaMz94RovEYCHznpTl4kf6ZMqLAUHArVf1C1c7/HzyF9bGTAKZs2YE/PDTifE6PU7idOIGubh9T8mWE5THq3wwpk1V/3qdPyryqPBViVc1f2T0QJnC7wGeV9q6S1Po1LuNMVvpnggQASJABIgAESACUgTcjk9JRWLiSaY9ZBJMNCuV9mG0wO5bqLYbvW4/y4QXk3hb5QPa+5UOuzhj+niBXdroGREgAkSACLgj4Hoi3l3w5JoIEAEvCYSro+NlGrwOa9P6rdCyTgceLK5C7zO8K9RrWtPraCg8IkAEiAARIAJSBOg9JYWNPHlAYM7URTCw23BInCQxfLxzGdvJLIcHoVIQRIAIEAEiQASIABEAoPEpKgVEgAgQASJABIgAEXBGgCbinXEiV0QgIghQRyd6NuAXvSd/OAWrlqyH6RPmAh7JsOvoFr41fHTXZEMEiAARIAJEILQE6D0VWt4UWxSBpfNXQY82/fmN1bE4xIoIEAEiQASIABEgArIEaHxKlhz5IwJEgAgQASJABOIaAZqIj2s5TumN0QSooxOYfWfPnIPVSz+CAq/mhwPsjPZhvcdA0mQPwaHf9jjeyjgwRLojAkSACBABIuAdAXpPeceSQnJH4OSPP0H9ys1hwOheUOydN915JtdEgAgQASJABIgAEQhCgManggCix0SACBABIkAEiAARuE+AJuKpKBCBGESAOjqBmbVoznLo3X5QgGWN+u/B0An9AuzohggQASJABIhAOAjQeyoc1ClOIkAEiAARIAJEgAgQAb8J0PiU34QpfCJABIgAESACRCC2EKCJ+NiSk5SOOEGAOjqB2Xz+r4vwyUdb4defT0PixIkhZ56noXyV0hAvXrxAh3RHBIgAESACRCAMBOg9FQboFCURIAJEgAgQASJABIiA7wRofMp3xBQBESACRIAIEAEiEEsI0ER8LMlISkbcIEAdnbiRz5RKIkAEiAARIAJEgAgQASJABIgAESACRIAIRCoBGp+K1JwhuYgAESACRIAIEIFII0AT8ZGWIyQPEbAhQB0dGzj0iAgQASJABIgAESACRIAIEAEiQASIABEgAkTAdwI0PuU7YoqACBABIkAEiAARiCUE4v3HTCxJCyWDCBABIkAEiAARIAJEgAgQASJABIgAESACRIAIEAEiQASIABEgAkSACBABIkAEiEDYCdBEfNizgAQgAkSACBABIkAEiAARIAJEgAgQASJABIgAESACRIAIEAEiQASIABEgAkSACBCB2EQg3rY/ltKK+NiUo5SWWE3grYzVePq2n1kWq9NJiSMCRIAIEAEiQASIABEgAkSACBABIkAEiAARiEwCND4VmflCUhEBIkAEiAARIAKRR4Am4iMvT0giImBJgDo6lmjoAREgAkSACBABIkAEiAARIAJEgAgQASJABIhACAjQ+FQIIFMURIAIEAEiQASIQKwgQBPxsSIbKRFxhQB1dOJKTlM6iQARIAJEgAgQASJABIgAESACRIAIEAEiEJkEaHwqMvOFpCICRIAIEAEiQAQijwBNxEdenpBERMCSAHV0LNHQAyJABIgAESACRIAIEAEiQASIABEgAkSACBCBEBCg8akQQKYoiAARIAJEgAgQgVhBgCbiY0U2UiLiCgHq6MSVnKZ0EgEiQASIABEgAkSACBABIkAEiAARIAJEIDIJ0PhUZOYLSUUEiAARIAJEgAhEHgGaiI+8PCGJiIAlAeroWKKhB0SACBABIkAEiAARIAJEgAgQASJABIgAESACISBA41MhgExREAEiQASIABEgArGCAE3Ex4pspETEFQLU0YkrOU3pJAJEgAgQASJABIgAESACRIAIEAEiQASIQGQSoPGpyMwXkooIEAEiQASIABGIPAI0ER95eUISEQFLAtTRsURDD4gAESACRIAIEAEiQASIABEgAkSACBABIkAEQkCAxqdCAJmiIAJEgAgQASJABGIFAZqIjxXZSImIKwSooxNXcprSGVMI/PXHRbhx7SYXN32mRyFFqmQxRXSSkwgQASJABIgAESACRIAIEAEiQASIgBQBGp+SwhbrPN27dw/+d+s2T1eCBPEhUZJEsS6NlCAiQASIABEgAqoEgk7E3/r7X7h9+46jeBInTgRJkiZ25DbUjrBhcPP6PzzaZMkfggQJEwSIgM/QTSSnQRTYT3mRw2+nzsLvP52FdBnSQrZcmWNcQ+runbtwjk2QZcyaXsQW46/ddHQoHyMnu4Ppn8iRNEqSmFZ/wsl36Ycfw7TBCzm4l998DkYt7hlp2Rl2ea5fjfpQ4aGHEpu+S/x8n4U98SQAESACpgTCqbdNBfLZ0q/3qqz+9EsenzFS8EQgRhEIVz0Lpl/DJVeMyjwSlggQAUcEgo1P2Y0nP5Q0CSRKnNBRPF47Ij3oLdHxPWfDunlbeKDl65SADsMbeRtBHA8t2Hs9juOh5BMBIkAEYgyBoBPxLd/tDce/O+koQS+9ng9GL+3lyG2oHX2z4zB0qTmER9t+aCOoUK+ELsJ///0Hb2euwe9jwkSKX/KePPorjO81C04e+QX+/ed/Op/47IvGJ57KALXaVIISVYro9pF6gY39Om90gAtnL8EbZV+BAdM7RKqoruUK1tHBACkfXWP13YOd/vE9cpcRxMT6E26+k/rMhdWzN3PSHYY1gvJ1H7xfXOKPdc7Pnj4PNV9rw9NVsX4paDekQUAaxfdZoZIvwZA5XQKe0w0RIAKxk0C49XYoqfr1XhX1p5v+i1/yhJIpxUUEIp1AOOuZnX4Np1yRnmckHxEgAu4JBBufshtPjh8/HmTJkQlyPJsVytYqBi+8lse9ABI+SA9KQLPx8s1ONtZeI2qsvcBbz8PQuV0gYaLwfGBhI2aMfmT3Xo/RCSPhiQARIAJxjEDQifgWZXvB9wdOOcKSv/CzMHZ5H0duQ+3o6+2HoGutoTzadkMaQsX6JXURxIGsl95gHxMsicyPCTSB/ZD3i437YEjbyQET8Fp84i9OpLTqXyeiG1Y/HDwFzctE5WGyFA/Bhh/mikmI0dfBOjqUj5GZvXb6JxwSf/flUTj67Q886qpNysJDyZLoYsTE+hNuvqiTB7WaCNvW7eG7wsz+bHSs241DLyAuL/745RzULtyO+6pQtyS0H9YwIATxffZq8Rdh2LyuAc/phggQATUCdvpeLWQ13+HW22rSR/dtx9mv96qoP930X/ySJzoVsiECcZdAOOuZnX4Np1xxtzRQyolA7CUQbHzK6XgyLv5p3b8eVGpYyhNY4WiXeSJ4DAvkxrW/oWGxLnD+zEXI/UJ2GLeib8DYUgxLTsSKa/dej1ihXQhmV19dBENOiQARIAIRT8DVRHzzPrUh1SMpLROVPmNaeOn1vJbPw/nA7sUlO5AVrvR4LS+ufi+XpyHc+V/UEQTPsy9Ri5QqAM+9khtOHT8Nez79FnazP9y+CU3nUc2gbM2i4Up+0HiRz5iuM+DHwz9B2RrFAnY/COo5wh3YdXQoHyM38+z0TzikFldwL/lqEjz+RDpdjJhYfyKB722mP3vUHQHffnEYXiySF8Ys660zjcsXNBEfl3Of0h4JBOz0fTjliwS97WX67Tj79V6V7Q/4JY8bntinMB4T5sY/uSUCkU4gnPXMTr+GU65IzzOSjwgQAfcE7ManMDRxIl4cT7539x6c++0v+GLz1/DLj7/rEQ+e3RkKl3pZv5e9CEe7zI2ssaUdNLLjVNi0bDvb2SAjTFwzAB5OYz1f4IYPuQ0kYPdeD3QZM+/s6mvMTBFJTQSIABEwJ+BqIn7l/qmQNn1q85Ai3NbuxSU7kBWuJHstr7jNDTZ6sfFrNOsXbIVx3Wdyays3Rj907z0Bu44O5aP3vL0K0U7/eBWHm3BiW0M3Uvje/vc2XLl4HRKys+4eeTSVmyyJtW5pIj7WZi0lLIYQiFR9Hyl626tsDAdnr/sDXrGwC2fdvE9h+8dfwfH9J9jWpd3Yh2vP2jmnZ0SACEgQiG36VQIBeSECRCBEBOzGp1AEcSLebDz5zu070L/ZeNj1yTdc4gr12A5qQwN3UJNJSjjaZU7kjG3toBPsWNO/b/zDjxig8Q8nJUDOTWx/r0dqfZXLLfJFBIgAEbAmEJKJ+OP7T8Lpk2fg2uUb/Eu5p/NlgzTpHraW6v4TGX//3LwF37Izas7+dh4ysFWeL7Dt8lOkSgZ2Ly6rgSyU+bsvj3BpsufJCvkK5goqM37ZePCr7+Hs6b/g6qVrbDLmYcj45ONsdXkuiBcvnq1/bMT89P1puMomclD2bM9k4dsbx48fP8CflbyaI3x+7NsTcO/ef9zqmfzZbbeSnz5kMSz5YD1323Nia9Nz4O+yL1bL5qrPt65PkjQxfHRsNiRik01mxk2+HfvuJF9pn4Z94JHpycd4cMj9x0M/wdsVC8HRb05wu5Spk8OTOTObRQeY53guOprHM6eDdBnTsAG+k3Dn9l3+RSZ+nWlmnPI2+nWTPqNf1Xu7jg7lo329MbLH/P/5h9/g8vmrkJpNmmZl55PhdloqRkb/GOOTKV+/nPgDfma7V5w/ewlSPpwcMmRNz3e0MOoOrFtXL12H5dM/hi83fc2j7vNBW0iXIS2/xvPZkiZ/yLL+aPU1ddpU8ET2DNzPzev/wP5dRwC3JXsqdxbIzsJIwLaWszOyetILvn7ku2x6jIw0vmb6sHjlIkbn/F6mvKBHWf3nlp/sRDyWpwO7j/JylS33E5CDvYODrZ70Kh9MQZtYuo3Paf5q7sR6du3KTdj/5WH437934KlnnmB/WQLaFPje//Hwz3Di0M+s/j8GOZ/LxnWBidi6lRv5f/vpLFy5cE33a3aBugN1iJlxU07N0h8KPWMWrx/ckU8oeDjV92J+ua3fol+ray/0thteVnJo+etUvzqtH045YxrM2qWaXGJ9d1reVfoDfshjZP/XHxfZ8WYn4dHH0wD2/dbO3QIfDJivOxu1uBe8/GY+/R4vnLZnAjzZ3PDyx3aqOXua9QuzsH5hoah+IZ4Pi+UdzRPZM0LqtA9WcGGf5zjrnyDfdBnSBOwaxD2wf/jR3W+nzvBb1MfJUybVHkX79aL8ioGq1FMv+HrJR0UeN1y1eua0/qvIJeaV3/VMVr9aySXKjuXMybiE6Mep3tT8uM0X2fBF/erXe11LE/0SgbhGwG58ClkEm4hHN9jPqPt6B7zk48Xzdozl1+I/p/U/nO0yUV68lmkHGcMQ792890R/4rWmd0W96LTd6cX73yx+v/SyG16aXE7bCchUpT0m5ol4LfteF8Nwk27R371796TH38Vw3HBxWl9lwxf94bVX7TtjuHRPBIgAEXBKwNeJ+N9OnYUhbSbBDwd/iiZP+ToloPWAupAoSaJoz2T9bV39JUzsMweuswFrzcSPHw9KVH4dilYoBN3rDOfWwc6Ib9azJvRtMhb+ZJP5onm2QE4YPKtLwGCN+PxLtq3SpL7zWIPrgmjNr3EiodvY5pDr+egTffjyGd7hAz7oY/SYI++T0G9qe8ic7XH9UbCBt7mjV8C8cau4+yxscnHqxiF8ck0PwHAxZ9QKmD8+yn3TXjWhRsvyBhdRtyfYIP8tto09flCQl7EwGrf5Jo/LhgoAAEAASURBVKajdLW34PUyr8CU/vPgj5//5PKu/O5DqJC3MR+4xEG8Fd9+YIyS329YvA1Gd5nGr5uyvKvRqjy8nbkGH0AzOzPTLW8tUrfp0/x5+WvX0aF8fEDarN5oTzH/R3T8kH+sotlpvziJ1GlkU6kJeVn9o8UtU77On7nEy/6+7Qe1YPTfDFnSQ4dhjaHAW8/pdp2qDdY/LtIthYuRi3py92b1R6yvb737KtRpVxnGsl0ysKGPW8tpBo+06D+9o+WKcFk9qcrXr3yXTY/GS/sV+Zrpw40/ztWc8l+Z8oIeZfWfLD+3E/GNulaD8T1nsffhg4/JUG58/w5g5cpqVx6v8gHjcmLcxuc0f0V3WM9qtq4I43rMhB8OnNI/rkP5Cr/zMvSc0AoSJUrI3psL2ArTPfwjG0123Baw37QOkL9QHs0q4Net/L0ajILdW74NCMN4g0dc4FEXonFbTo3pD5WeMcbrF/dQ8nCq7zG/ZOu3mNdm16p62y0vMxnQTsxfJ/rVTf1wytmP96qYLrP2rl1/wA95NP5LpqyHtfO2BPSHsL+Hu8agqVC3JDz7ck4oWPR5fQtTt+0ZLS673x1s5f24HrMCdCP2C4tVLALv1ikObSv1496N/UL8qPH9l1vyZ2WqF4UuY5pFi2b9/E952Phg0MxOUKR0gWhuvCq/WsAq9dRLvl7wUZHHLVexngSr/ypyafkk/vpZz1T0q5lcmtyy7UQ3ehPjcpMv6F4lfD/bUygbGSIQlwnYjU8hFycT8agPSjxZmy/Qwff01tOLAz44dlP/w9ku08qBTDtI82v26/a9ZxYG2ol6V2Y8R/X9b4w/EvtbwdoJyFGlPYb+rYzKex3DVC0nuLOB7Pg7xi/DxWl9lQ0f/aHxun0XFSr9JwJEgAi4J+DbRDyel9vy3d5w8v5qg7SPPQLpM6WFX9n5P3/fuMUlzctWmE9c3T+gkSXrb8/W/dCr/kjeuMDA47MVmYnZoA+ueECTjp1ff/7MRX5tHHARGwQoJ26PhKtG0eD9xXOX+TX+y/X8U/DBx4PBuNIUv6BrV6W/fs56+kyP8q85D+/7nq8iR7+PMbuZW0fyFfp4jwZflq0r9OG7BeA9TnJjnBf+vIS33CRL8RBM+XgIPPl0Jn4vymsceNu5cS/0azKOu8NV5B9uGKqvNI8KLfr/7748Cp2qDeIPcPJu2PxukPV+XNFdm9vI5JuYjux5sgBO2Gj5hSvrcOKpR72R8NXW73ik0zcP4ytqjBL0bjha38pqwZfj+UcLVgMMMrwxPpn0GeX04t6uo0P5aF9vkD/mf5uKffX6jXbGOv5QsiQwZmlvyPPS0/jYkVHRPxiBTPn699b/mO7oq+vYhIkSsFWyWdmqr3P6x0i4e8UHTHc8xT4EQtOt9nC2O8hBXU9yS/ZP261jNDvX/EW2i4hZ/RHrK34Y8++tf/V4tHC0X/z4qeekVtqt/iurJ1X5+pXvsunRgQgXIl8rfag5lykv6FdW/6nwczMRj++s/9hOLrga3swUq1gYek9pE+2Rl/kQLXATC5n4nOav6A510/+wnl0154FbN/7MdtE5tPd7EymBT3At2zcFUA+IRkb+Po3H6LtoiGGJ15nYB4ML2TtYMzLlVEx/KPWMGK9f3EPNw6m+V6nfWl6b/arqbRleZnKgnZi/wfSr2/rhlLMf71UxXW77A37Ig6wXTVoLM4cvxUu+kjw/W4F+ie08tPfz/dwO/60/Nitgxw6Z9owemMXFN2x3tG61h+kfCuKOKtgvxJVGaLBPdu7+h9PGfqHqQDOG72X5xfBU6qnXfFX5qMgjw1WsJ3b1X0UuzCMz41c9U9WvZnKh/LLtRLd6E+Nymi/oVjV8v97rKBsZIhDXCdiNTyEbJxPxZ379C2oVastR4vt56b7JOla39T+c7TIUWqYdpCfW5ELmvWcSDLcS9a5MP0v1/S/G75deluElymXXTkCIKu0xq3xBe9X3uky6zeSRHX+X5eK0vsqGj2n0o31nxo7siAARIAJOCPg2Ef/hwIWwfNrHXIZmvWtD9Rbl+DVOtA5uPUmfOMVtkd9mq9U1I+MPt8hpULQTfyliOGVqvA1tBtZj27EngG/ZJPO8sSsCVpsbB1zEFy/6x0kpXJVX8r03+DbnuO05TlTj1vpoek9py1ZTPJAZ7UZ1mgYbl27DS2jRtw6836wsv8YBn3HdZ8Gnq7/g9x2GN4bybBWGZjrXGMK30sd7XE3RbWwLPlGPq/HnjFoOW1ZF+XuvSVlo1b8O9ybKKw68/cS2pm5Vvg+fzMYPEUYt6cUn1bS4rH7/ZavcKz3fVB+cwonI9xqVgWJViuiT/1Z+NXuZfBPToYVTtMJr8E7VtyBbric4+09W7ITh7aNWwjfoXBXqdqiiOeW/+FLFr/YwDbg15Cz2oQMaqwEGGd4Ynkz60J/Xxq6jQ/mYjO9iYVVvMC+61RoG2upxnNSr1/E9vsU6blmK+mrt3E94lmFZmv7J8KBbrKNjVf2DYciUr2+/OAKdqw9G73wF/7gVfQHrLtarqYMW6fq3dptK0Kh7Ne5O+xfsDCaz+mNWX6s0LgNF2ardnM89Bfu2HYC+bLIOj8RA/bPm0AxIxSZWRSOjJ73g60e+Y7pk0iPyEK/N+Br1oeZeprygX1n9p8LPzUS8lj4sV2+WfYVvr773s/383EDkw8vVwemQ6pEUmlP+62U+BARscSMTn9P8NbrDVSHVW5QHXLWQhX0gh+/EcWwnCtHgytL3GLNX3n6BH0/Rv+lYduzG79xJ9wktoRRry4hGRn7cqk7c+UILr1/TcfpKeWPbSqacGtOP8YRCzxjj9YN7uHgE0/cq9VsrB8ZfL/S2DC+jHNq9MX/R3kq/ytQPDC8YZz/eq2K63PYH/JDnV3ZMTv23OiEOdvZ7XnYGfFf9Q6Bt6/fAwBYT+LPqLd6FZr1r8Wv8p9Ke0QMRLlBfNS7RjX2o9Bu3fbdWcWjJ+lB4pNb+Xcdg3viVcGTfD7oPo+5SHWjGgL0svxieSj31mq8qHxV5ZLiK9QRZojGr/ypyRYUa/b8f9cwL/WomF0ov206U0ZtO8wXl8iJ8P97rKBsZIhDXCdiNTyEbJxPx88auhLljVnKUxSsVgV6TW+tYZeo/eg5Hu0y2HaQn1uRC5r1nEgy3MtO7bvpZqu9/Y/x+6GUZXka5EJZZOwHtVdpj6N/MePFel0m3mSyy4++qXILVV5Xw/WjfmbEjOyJABIiAEwKuJuJxK8HkqczPwEv1SEqo1jxqsh3PwqlWMGo1ZKGSL8GQOV0CZMEzaKqz57jqDc/9nrNtNH8u6+8wG0zRthd8Ot+TMG3TMH2FJwZ88dwVaFS8i74K1jjgYnzx4iR87XaVAmQWB5DM0jS0zRT4/ZezkDJVchjM0iuen46TfDVfi1rFV7lRaf6RAAaO55M0uD9ghectz/5sVMBZ7nhWTi3mDznhF4O4VTsaUV5t4A1X8Dcv01PfTr/90EZQoV4J7t7Jvx/ZubK4df/lC1cDnCPPMtXehuJsUj5FqmQBz7Qb2XwT04FhdRzRBN6tXUwLlv9ev3oTKrOPBPBcTTy/+8MNQwKe7/38gH7kgDhRbzbAIMtbNn0Bgnp0E6yjQ/kIYFVvcDui9wtEbTX6yKMPw8Jd4yFZigf6DBvATUp01SewJrDdOnCb9WBGVf/Ilq8lH6yH6UMWc/E6s+30y9Z6WxcV6w1+wIITZ3kL5IJabSrqz/AiWEPXrP4Y66sxTgx3UKuJ8Pna3XjJj8QwHsUhoydV+fqV75hGmfSgPzNj5GumD9GfbHmR1X+q/NxOxHcd0xxKV38rAFH/ZuMBtxhGg+8AfBeIxst8EMO1upaJz2n+iu7wo8Bu41tEm0jH3Ybw/GI0+I6etGagPtmFdjs3sJ1x2AQ5mpqtK0CTHjX4tfZPRn7Nr/iL20T2aTSGW+EOIpPXDdTbXrLlVEw/BhwqPSPG6wf3cPKw0/eq9VssD+K1qt6W5SXKIF6L+Yv2VvoVn8nWDzvOGK4f71UxXW77A37Is2HR5zC663RMLu+L5XwuG7/W/jUp1Z3v4pOPta1wRzTNqLRntDDEX1w914rpSTT4oeCHGwJ3MsM+U9N3euhb5xv7haoDzV6XX9V66jVfVT6y8shyFesJlgmr+i8rF4ZpZfyoZ6r6FWU1k0u2nYjhyehNp/niRfh+vNdRLjJEgAgABBufspuIv/jXFdiw+HO+AAlZ4jE2uBhC2wkU7WT0C/oLR7tMth2E8poZ2feeWVhoZ9S7bvtZqu9/MX4/9LIsL1Eu5GTVTlBtj2HYZkb1vS6bbjNZZMbfveBiV19Vw/ejfWfGjuyIABEgAk4IuJqItwvw0QzsDO9volYu7912ELqz7QDRDF/YA15hZwAazajO02Hjks+59eaT8/kgsqy/+eNX6423Vv3rwXtNShujg83Ld8CIDlET2cYBF/HFi2dEY+MPGwaiwdXGFZ9rwleb4/a5647MjOZGdC9e48oMPPMIJ8VeLZafb/2Oz1dM3wgfDJjPnZpN/uMD3M4R407AVpji1v5oRHlx4G3Egu7QpeZQtsrjKH+OH0y0H9aQX7v5h1tCoTx72FbwxpVvuLVt0XKvQt2OVSFDlnQBwcrmm5gOPKZg0poBAeFqN93rjNC3tFx1YBqkSfew9gjG95gN6+Zv4fdzto/RG+1mAwyyvGXTpwvp4UWwjg5GRfloXm/2Mb2E25SiadmvLlRtWoZfi//EiSWnH7Oo6h/Z8oUTkzhBiaZ4pcLQfXxLwK1XnRi7hi76N6s/Yn19gW01O25Fn2hRiVuxDZrFzkx9J/qZqdE83bew0pOqfP3Kd6t0aPZW6dGeG39Fvnb6ULa8yOo/VX5uJuLzs2MRxi6PXq4WTFgNs0cu58i8KldG/l7dW+W70/wV3VnxGN1lOh+0QpmnbhzCjswJ/DABt26r+0YHnqSSVV6HHhOjHxNhlV4r+Y3u8YNKXPmKx+ig3pmxZTjfyUZzJ1tOxfSHUs+I8frBPZw87PS9av3W8tv4q6q3ZXkZ5dDuxfy106+ae6tfu/phxxnD8+O9KqbLbX/AD3lGdpwKm5Zt5/g+/WVhwMfFaKl9rId9Cuz7aUalPaOFIf6KbZHWA+qzXTXeER/zazFOY79QdaDZ6/KrWk/FtLptL0YDxyxU+cjKI8tVrCd29V9WLjNGmp0f9UxVv6JsZnLJthO1tFr9WulNp/liFa5m7yR8P97rWvz0SwTiOoFg41PiRDxuh64tWLrNjgO9cPbBcZyp06aCftPawwuv5XGM1Kr+YwDhaJfJtoOsEiz73rMKT9S7Mv0s1fe/GL8felmWlyiXXTtBtT1mlS+q73XZdFvJ43b83QsudvVVNXw/2ndW7MieCBABIhCMgKuJeFyVnTBRQtMw02VMo0+kih25qZuGQroMURPIoscVbBvopR9+xK3msglUPJNc1h9OsONEOxqMLxdb/WA0X28/BF1rDeXWxgEX8cWrrSgx+sf7tpX7w+H7Z7Eazzc0c492GPZ1trIdV+LihLoYvjiYPuWjwZDnxRxWwQTYG+XNkj0TrJmzmbvBBs2oxT0dT8gFBHz/Br9M3cK2v928fDucPnkmwAmWATxHWvxKVTbfjOkYzbbSNzOblm6HkZ2m8kfG1ZLVCrbmK1qy5MgE83ZErcxDh2YDDLK8ZdNnlhZVu2AdHTF8ykeRBrCt2jewrUIXcEs8tuFl9hGL0eCREDVejdq9wukHLar6R7Z8Xbl4HSqxj4M0g+dZlatZHF4vWxDSpk+tWZv+2jV00YNZ/XFSXz9e+BmM6TaDx9mfdaTfZB/vODF2elKVr1/5bpcuu/RY+XPCF/3KlhdZ/afKz81EvPh+FDmtm/cpjO85i1t5Va7E8L26tst3p/nrxN2MoUtg8ZR1XGzcAci46hRXe1bMF6Ub3mbH6PRhx+k4MXbyG/2LH8HVaVsJGnYLPP5Ctpw6Sb8fesZJvCrcw8nDTt+r1m9judDuVfW2LC8tfuOvk/w1+jHeB6sfdpwxLD/eq8Z0uekP+CHPBwMWsndU1LFkH38/B5KnfLDrEDLo1WAUP8pC3OUL7VXaM+jfaMSB8JmfjoDsebIanYBdv1B1oNnr8qtaT73mq8pHVh5ZrsZ6YtXflJUrWuESLPyoZ6r6FcUzk0u2nSgkN9qlnd50mi/RAhUsVMNXea8LYtAlEYjTBIKNT4kT8XagcJzvnWpvOl7sZFf/MZ5wtMtk20FWXGTfe1bhOdG7dv0s1fe/k/hV9LIsLydyIVPV9phVvqi+12XTbSWP2/F3L7jY1VfV8P1o31mxI3siQASIQDACribiV+6fGnSCByMc23UmfLRoa7C49ecj2Kr5gmzVvKy/3g1H62fOL9s3RV85rkfALuwGXJy+ePs2HgtfbNrHg128Z1K0leG4en3nx3vh650H2WqBi3D5/DW+1fvdO3d1UcSJhj7sPOUvN33Nny3ZOxkez/yo7s7uQpRXdIe7Esz6dGS083NFN26vcXtHnJTfsPRzuPO/O9z7w2lSwvyd4/R4ZPNNTIfIxSgjbjWO29Mjx9dLF4SBMztyJ6eO/crPgMSbOu0qQ8Ou7+tezQYYZHnLpk8XxsOLYB0dq6goHwHEgVksv3gchNFgGcPdK7BsGrdONbrV7lX1j0r5+nzdbhjOPkS6/e9tTRzeeS3w1vNQtkZRKFzqZdOPcuwauhiQWf1xUl/F7disJkzd6klVvn7luwbcbXo0f8ZfJ3zRj2x5kdV/qvy8mIhfP/9TGNfDfiLeq3ww5ovVvdv4nOavE3czhrGJ+MnWE/HXLt+ACnkbc9GtJuLdyi9yOPL1j9CmYl9ulfkpdqzO1pF8K0nRjWw5dZJ+P/SMk3hVuIeTh52+V63fYp6L16p6W5aXKIN47SR/Rfcy9cOOM4btx3tVTJcov5P+gB/yiLsK4S49paq+oYuFx2zVKtQWUD+9UfYVGDA9atcOzYFse0bzL/72bsT6hZu/4VbGnbQ0d3b9QtWBZq/Lrxf11Eu+qnwwD2TkkeUq1hO7/qasXFqZMvv1o56p6leU00wu2Xailm63etNNvmAcfoSv8l7X0k2/RCCuEwg2PiVOxONOXclSJuPI7rKjJ48fOAEnj/6qI7TaxcZt/ccAw9EuU2kH6RCEC9n3nhBEwKUTvWvXz1J9/zuJX0Uvy/JyIheC9KI9FpAh929U3+uy6TaTBe3cjr97wcWuvnoRvky704oP2RMBIkAEVAj4MhHftdYwNvF9kMsVPz7b4t2wzbtR4MGzu8BrxfOzFety/jpXHwLffnGYB7vu6CxIxbaONxq7ARenL97h7T6AT1bu5EHP/nxUwDasW9fsYtukzwTcrlUz6TM9yrdRT/VISti37QC3FgcAOtdgcu+MknvNoRmQOm1Kzavtryiv6BDPcJ+2eThkzJpetPbk+hDbCaAPG9jCATQ0Q+d143mG17L5JqZD5IJhGk03Vjb2sTKVNPlD/FgA3NJK3K7YuOLFbIBBlrds+oxp8OI+WEcnWByUj1F6ya6+vftMQ8AB4wxZ0sPiPRODIQVV/aNavk4c+QVWz9oEO9i50P/cvBUgL07E95vaXt8CTnto19BFN2b1x0l9teu4YbhSelJRv4t8vcx32fSgPzPjhC/6E9Pj5v3qhf6T4ReKiXiZcmWWB07tZOJzmr9O3KkMUGAaZeTX2NxmH+Q1Zec8//Lj79xq7Iq+kL9Q9C0kZcupk/T7oWecxKvCPZw87PS9KJdM/dbKhfE33O9FozxO8lfzI1s/7Dhj2H68V8V0afLjr5P+gB/y4LmSeGTFJbazFh7j1XlUU3it2Ivw5+8XYELv2Xqfp9ek1lC8chFRZH4t056JFgizEMufdvyZ0Z1dv1B1oFmsV27e00YZtXsxPJV66hVfVT5autzKI3Jww1WsJ8H6myibW7m09Jj9+lHPxPItM+6BcprJJdtOxPBk9KabfPErfJX3OqabDBEgAmpnxCO/XZ98AzgRiSbxQ4lgyVeTA46ilKn/GFY42mWq7SCUWzSy7z0xDPHaid6162epvv+dxK+il2V5OZELOYrhq7THxDzBa9X3uiiXm/aRUQ7x3s34uxi/LBe7+upF+Jg2L9t3Iiu6JgJEgAi4IeDLRLz4xdKKbz+ERx9/xJFMsv76NmEr1TdGrVRftHui6US03YCL0xdvz/ojYc+n3/G0iCvvf/r+Nz4wra18x21aS7BVIE+wlWKaKZW9Dvzv1u2ArekHNB8P2z/6ijuZsWUE4Pn0TkyAvK/nYxP4qeCztbu416eeyQJT1g+Ch5IlcRKUKzfimYviCnTZfAtIB9sm3GqrQBRyw+JtMLrLNC7vqMVsW/E380HLcr3g+P5TkPHJx2DRrgkBaTEbYJDlLZu+AIE8ulGdiEcx4mo+ju85G9bN28JzYtZno+Cp3E9EyxU8PuKdHHW5Pa4qH7moRzQ3RgtV/eNV+br197+w+9Nv+Soj7NBqxmyLfbuGLvozqz9O6qtdx01WT6ry9SvfZdOj5Yvx1wlf9CNbXmT1nyo/vyfivc4HY74Y72Xjc5q/TtypDFDIyq9xmD9uFcwZvYLflq72FnQd21x7FPArW06dpN8PPeMkXhXu4eKBmWKn71Xrd0CmCzeqeluWlyBCwKWT/EUPKvXDjjOG7cd7NSBdLvsDfsiD6cSPdBoU7YyXpgZ3r8I+hJ1x054xC0fcwcyqH2rXL1QdaPa6/HpdT1X5qvIx5plTeWS5BtSTIP1NUTancol+jNd+1DNV/Yoymskl206U1ZtO88XP8FXe68a8pnsiEFcJBBufElfEW+2wOqT1ZPZBz5ccYYfhjaF8neL8Wrb+o+dwtMswXi/aQRgOGtn3XpTv6P+d6F27fpbq+99J/Cp6WZaXE7mQptftMS2HVN/rsunW4jf7dTP+7gUXu/rqRfhiGr1o34nh0TURIAJEwA0BXybixTNKxq/qB8+/+owjmWT9jeo8HTYu+ZzHMXHNAMhXMFe0+OwGXJy+eJuV7gE/HvqZh73pxDx9sls8C6hF3zrwfrOy0eI3m4gXXyiDZnaCIqULRPNnZmGUd/CsztCqfB/46fhp7rxYxcLQe0rUOddm/kW7v2/8AxWfawr/3bsHD6dJBcu/mQLx48cXnejXe7cdhO61h/H718uwLeJnRG0RL5tvxnTYTcTjmbeVX2gG9+7eg8oN34HabBCvCrvHMGq2qgBNetbQ5cQLswEGWd6y6QsQyKMbq44O5WNwwOI508Pmd4NXi+WP5um3U2eh7hsduP37zcpBi761o7kxWqjqHz/KF34whB8OoTFb2W/X0EU/ZvXHSX2167jJ6klVvn7lu2x6kK+ZccIX/cmWF1n9p8rP74l4r/PBLG9EO9n4nOavE3cqAxSy8iODX0/8AY1LduPH1OAHgPN2jNWPqBEZ4bVsOXWSfj/0jJN4VbiHiwfmhZ2+V63fGL6ZUdXbsrzMZEE7J/mL7lTqhx1nDNuP96oxXW76A37Ig1tZDms3Bb7aGvXRcv7Cz3K9kfax1JD35dzwYpFnocg7zvo6yAxNsPZMlKvA/6M6TYONS7dxy6kbh0Cu57MHOmB3dv1CcaD5HfZhdTe2zb7RiEemGPtwXpdfv+oppkmGryofI0vx3k4eWa7GemLX3xRlEa/t5BLdGa/9qGeq+hVlNJNLtp0oqzed5ouf4au81415TfdEIK4SsBqf0ng4mYgXV8UXZIshRtxfDCFb/zHucLTLvG4Hyb73NPbGXyd6166fpfr+dxK/il6W5eVELmTpV3tM9b0um25j+RDv3Yy/e8HFrr56Eb6YNvFatn0nhkHXRIAIEAE3BHyZiP9mx2HoUnMIl6NJjxpQs3WFaDLhFsp/34jaRvmRdKkAJ39l/a2etRkm9Z3L46jdphI06l4tWnyfsHPOh7f/gNu3G9IQKtYvqbsRX7y4onzGluFcHt0Bu8BGR7UCrfhgnnFiS1wpv5Sd9f6YyVnvJZ+qw89xFrfEE2V6r0lZaNW/jhglv14z+xN2btIv/LrNoPp88l+UVwsPJztalOkB16/+zd227FcXqjYtw6+D/cMVwLgSGM2HG4ZA7heiD1jhsyVT1sP0oYvxkn2lWgI6DG/Er2XzzSwdPECLf11qDmVl5BBkyPoY4K4DIztN5S7NBtnMBhhkecumzyIZStZ2HR3KxwdozerNwa++h/ZV+nNH1Vu8C81613rg4f6VOLBqPN80muP7Fqr6R7Z8nT9zCf6++Q8keSgxPP5Eumji1XuzE5w++Qe3X3t4BvvQ5sHRFx8OXAjLp33MnzmtP07qq13HTVZPqvL1K99l0xMto+5bOOGLTmXLi6z+U+V35te/+LnAKLvZhIaTdIv1sv+09vBmuVcxOG68zgctXKtf2ficpBPjdOJOZYBCRf52VQbAYXZMDZpek9tA8UqF+bXZP9ly6iT9fugZJ/GqcA8XD8wbO32vWr/N8h7tVPW2LC8reZzkL/qVrR/o144zPjdrlzqRy668m/l32h/wQx6tn5AtV2Z+VBYeI+XEqLRnzMIXByTrdXwP6nd6L5qzrau/hCFtJnN7Y78QBx8r5mvCnxUs+gKMWNg9mv9FE9fCzBFLub1xIt7r8qtaT73mq8pHVh5Zrmb1JFqGMgtZuczC0uz8qGeq+hVlM5NLtp0oqzed5ouf4au817U8pl8iENcJ2I1PIRsnE/G4QrUcOx4QdxhNkjQxbPh+DiRImCDGtctk20FWZUj2vWcVnhO9a9fuVH3/O4lfRS/L8nIiFzJVbY9Z5Yvqe1023VbyaPZOx9+94GLXj1IN34/2ncaIfokAESACbgn4MhF/+cI1eL9AS75qCs/0xlVT6TKk0WW7c/sONCn54IzR5V9/AOkypgFZf6eO/QqNS3Tj4eO57LO2juTnI2oR4pZGbSv21c9vNw64iC9e9FOjZXlo2qum5p3/Thu8CJZ++BG/LlvzbX7uoeZgaJsp8OnqL/jt6KW94aXX82qP4B5baT6pzzxYO/cTbqdNnOPNlYvXoEr+5nyVNzY0ZzK5n3w6k+4Xz1SsXbgdb5DiJNqaQ9MhXrx4lgP1X322H3rWG8mfx08QH8Ys6w0vvJZHD8/qouP7g2D/rqP8MZ4p3ZsNsBu3tscPETpXH8wm9s5wd51HNoWytd7m17L5JnIXuVjJ+fHCz2BMtxn8cZYcmfgk42OZ08HSvZOieTEbYJDlLZu+aEJ5YGHX0aF8jAJsVW/wC+VKzzXh9S1RkkQwn+klcQIbz/SqU6Q9YAcDDeoR/DAnmFHVP7LlS8tvrOuz2Vb7WQXdgZ3Y6q+2gQus3uJZsWuPzIQEzJ1m8EOFiX3m8FuzCTWz+uOkvtp13GT1pCpfv/JdNj1aHhh/nfBFP7LlRVb/qfLDgZXST9fjyc31/FMwdePQgKQ7SbfdRLxKPhz95kdYOvUjSPVwCqjboYrpR3QBwrIb2ficpBPjcuJOZYBCVv6P2Pt37P33r9XElMhKtpw6Sb8fesZJvCrcw8UD88RO36vWbzHPxWtVvS3LS5RBvHaSv+hetn6gXzvO+NyP96pVupz0B/yQR+OHO2Y07FoNkqVIyo/pSsX6MKnZn7FvgVzQqLRnokII/I9nQDYtFTV5jv2EmZ+OCOgX4u4ebVi/8DprF6Ix9gvRTvu4FftfeOxZ8pRJ0ZobPA5tYMsJcOf2XX5vnIj3uvyq1lOv+WKiVfjIyiPL1aqe8MwT/snKJQQR7dKPeqaqX1FIM7lk24lavcdw3YyDOM0XP8NXea9jeskQASKgfka8xrB5mZ7ww8Gf+K22UEC2/mMg4WiXafK6bQdpDIy/su89YzjavRO9a9fPwnBU3v9O4lfRy7K8nMiFaVdtj2EYZkb1vS6bbjNZRDun4+9ecLGrr6rh+9G+EznRNREgAkTADQFfJuJRgPULtsK47jO5LLjCumrTsvDK2/nhj5//ZM8+ZWd+R20lj9tD4zbRmpH1165yfzh0f6VWvldyQ6Ou1fnE077P98OGJdvg0vkrWhTRBlzEF6/mqETl19mqu1fYwHw62PnxV7Bg4hr+CCfCccJcPF9afEG9WCQvW9leFzJlexwO7jkOa+d9op8rjwEYJ5yn9JsPK2du5GFnyZERKtV/B557NTc/+/zjRVvh+wOn+DPxLFZRXmN488auhLljVnI/2ACcvnk4/8iBW1j82/v5AeheZ7j+9InsGaByg9KQhU3s4YQershfxiYrtAnKRx9PAwu/HM+/VtU8yeSbXTq0cMXfKxevs+3om7KPG/7Tras2LQct+0XfPtxsgAE9yfBGfzLpQ39eG7uJeMpH+3qDeTGx91xYM2czzxacZK9QryQ/OgMn5Daw4y2OfXuCPyv8zsuAW7w6NSr6B+OQKV8LJqyG2SOXcxFx+1fcfeTpvE/Cpb+uwscLt+o6C1cP4ypi0YhlJcezWaFB5/f5ivnsebLygXKz+uOkvtp13FT0pCpfP/JdJT1iXmjXTvhqbmXKC/qV1X+q/Kq+1BIu/HkJ8KORhl3ehzwv5YT8haI+EnOSbruJeJV8qPdmR/3jssqNSkObgVEfDGiczX5l43OSTozPiTuVAQoZ+S+dvwp1X2+vf8zYdWyLgI+YRE652ccW+AEmGply6iT9fugZJ/GqcA8XD4w3mL5Xrd8Yh5lR1dsy5cdMDrRzkr/oTqZ+oD80wTj78V61S1ew/oAf8hz5+kfoWmso4K5nZgZXueUtkAtKvfcmlKhSRHei0p7RAzFctGYT7UeZPGiefTkne/dU46vrvt1xEDYu2w4Xz13WfZhNxIvltwDbJrdM9aJs17GbLJ/3wx629T4elaUZ40Q82ntZfjE8lXrqB18VPiryyHC1qyfIVjMqcmlhGH/9qGcYh8jf7bgH+jeTC+1l2omyetNpvvgZvup7HZmRIQJxnYDd+BSycbIiHt2J7zltd0/Z+o/hhaNdJtsOQnmtjMx7zyosJ3rXrp+F4YrvH7ftIyfxq+plGV5O5NKYiuU0po8nammy+nUz/q7KJVh9VQnfj/adFTOyJwJEgAgEI+DbRDxGPKT1ZNi65ktLGXCieMTCHpDzuWwBbmT84eoH3HZa2+4+IEB2gyu98ewhNMYBF/HFmy33E2wi64o+6cw9CP9qtakIjbtXF2yATTBc5g1MnGgwM4VKvgQHdh/lshknznGwqhubBNe2ezXzjxP0k9cPgpQPJ+ePRXmN4eGznvVH6eczPpM/O0xYPQCCbQ+5e8u3MLTtZH2g3UwOtMO8Gjyri+nkvtt8s0uHVfydqg2G7748oj+evG4gH2DTLe5fWA0wyPDWwnabPs2fl7/BOjqUjw9oG+sNPrlx7W/oVnuYPuH+wPWDK1xZPmZZH8AzTZ0aFf2jxeG2fOGHMe3ZVtG//Pi7FgSf6BQHh3E1/OA5XdnHBrl1N3iBu5K0f28g4AcIohm5qCcUeOs50wE6J/XVruOmoidV+fqR7yrpEZlr1074am7x1215QT+y+k+V3+LJ6wA71ZrByZjNJ+fzWyfptpuIl82Hu2wSpWLexlwnoCD4QcqMLSM0ES1/ZeNzkk6M1Ik7lQEKGfn37z4GHasOtGQiPhi3sm/ATjxuy6mT9PuhZ5zEq8JdYxRqHhhvMH2vWr+1tBl/VfU2hueWl1EG7d5J/qJbmfqhxRGMs1m71IlcduXdzj8+s+sP+CEP7gI2putM2Mg+bAxmxN3HVNozVvH8eOhnaMf6hbgri5kpUroAfLnpa/7I2C9ES9xVoEdd83cCfmz0ZtlXYPPyHdy/2UQ8PvCq/GJYKvXUD74qfFTlccvVrp4gW82oyqWFI/76Uc8wfFX9aiYXhivTTpTVm07zxc/wvXivIzcyRCAuEwg2PuV0In7rml3svRm10+XrpQvCwJkdY1y7TLYdFKz8uH3vWYXnRO/atTsxXJX3v5P4vdDLbnk5kUtjqtIe08Iw+1V9r2OYbtNtJofRzun4uyqXYP0olfD9aN8ZOdE9ESACRMApgaAT8a0rsBUF9ydrcGt0nDx3anDwYyFbSb5u3hZ9sBv94uTQc68+Ax2HNzGd7JL1h6vHJ/aezVeTYzy4+g63wq1YvxRbwZ6FbYcftfK+44gm8G7tYuiEG3zxFs9Sk6+0frdWcajYsBR80H8+HPnmB/3sdNyasBY7f97q3PWzp8/DwBbj+XZKGB6unMdJ/bfefZX5qwgNinbmK+/MtnT999b/YPGkdbBu/paADwCSpXgIyjF5arQqH8BdlNcsPHxJNSvdA86wc+PR1Gxdga+W5Tc2/347dRamDVkEJ9lHDef+uKC7xG3zn8yZCV4olBeasI8QcBLFzLjNt2DpMItD/MIRV+Yv/2YKZ210W+LJWnzLSDM+bnlrYbtNn+bPy99gHR2Mi/LRvN5o+YD5uHjSWljHdua4dvmGZs23HS1d/W2o074ypEod9dGL/tDBhaz+0YKWKV8X2UdDeE7pJyu2B3yEpK066zSiKWTIEv38eIwTB7bmj1sFxw+chJ+On+aru/ADhBeLPAtm9cdJfd20bAeM7PghT5LZwLSKnvSCr9f5rpIeLd+1Xyd8Nbf4K1Ne0J+K/lPht4jVOfyI6sSRn/lOKxt+mIvi8Iln7f1rpq/RjTgg4GW5Ej8QMO7Og/FaGZl8d5q/TtzhThj4ZTca3HIZd7IQDa7aLJ+nEbfC3X16TmolPga38uNuQ7j6wYmZuGYA5CuYS3fqtpw6Sb8fesZJvKrcEUo4eGC8dvpek0ulfmMYZsYLvS3TjzDK4iR/NT9u64fmD3/tOPvxXg2WLrv+gB/yTOozF1bP3sz7XzjRjruhYV8M21rnz15kHwnv57uA4W5baNaxY3NSPZKCX6u0Z3gAJv+OfXeS9wu1rW6xP/PMizmgSsPSrM2XjK/eR29mE/Foj+fIT2H9QdyyGw0ef/byG89BpQalALe3H9xqIrcfOrcrvFbiRX4t/nNb30W/ZtcY3v/ZOwt4K4ougB8aRRBJ6Q4RlBIVFEFKQKREuku6u6UbRDqkpEFCQkQJ6S4xEMHAQEAEkeb75sx1L3P37e7dndm97973zvx+792NmdmZ/zlzdmJnRracesFXhY9KepxyDVZORNYq6RLj0Y69KGda3Cr21ShdWrwy9UQZu+lELl7F78Z7XeNGv0QgthII1j9ltz8Zy3m9lztwjLh94NL9vkF5mfKvySLU9TKVepCWZqNfp+89ozjwmh27G6ydhfHIvv/tPN8Nu+yUl510Yb41p1If0+Iw+lV5r2N8TvNtlAb9Nbv979rzZeupGN6qvKrG73b9DtNDjggQASIgQyDoQLxMpPow+GXg5d/+Ynuq/MMGuJ5gHRkp9V4Mz2XD4R4p1678DU+zZeW1JVINHxDkIn6V9fMPv7HZ5AkgHasMYgdOMHfzxi34/edLbNnWNAH7CQYLh/exAnDlj2vwz41/OacUqZ+0E8wTP//+cwsusoH8uHHjAO7HHmxGvZgIWbmJcYTiWJZ3dOYvWENHzy22yLHtm/35Ng61360C7w6or8dgeI7yx2Xcb1y/CUnYPqY4Az5u3Ef7qBsGsnFR1f7I6BfO7r3CBtbRxuKerDj4jh8DhatTsZOqfL2Qu0p+VGUkoy/4TFn75wU/VQZaeBk5tCjXE86d+QkadqwOzXrV1qKy9SvzPFsRh8hTKNMvq6cqKEKZP6fpjA4edtLoVflWtdvRwSuc9ceOLEPtB5evrP5cS/7YCm+XhN6T2xomYe6o5bB4im+7r7FL+kHR1woE+POiPoPba+CHAFlYe0bbp/7QjpNBB+K1hGHbDHUwdboU2iVHv27rr0o59YKvCh+V9LjNVRSqSrrEeEJxrGpfzdIoU0/02m56Hb8ZC7pOBIiAOQGn/VPmMVnfCffy71Y9yIqCl+89q+ea3VN5/5vF6eZ1r3mp1Mes8qn6Xvc631Zpx3tecdGeqxJ/JNXvtPzSLxEgAjGLQEgG4mMWMsoNEYg+AqFq6ERfDp0/edemAzCo5UQeEGdetR/cGKqzVS3IEQEiQASsCKyeswU+GDQfEiRKALO2jGQrv2S08k73iAARIAJEwIQArp6Gs97QtWP1sLdbVjT0uXLWJpg2xLc1yeQ1g+G5FwO3zjEM5MFFJwPxHjyeoiQCRIAIEAEiECMIUP+UT4yRVg+KEcpHmSACRIAIEAEiEGEEaCA+wgRGyY3dBKihE1X++MUnLhH66YpdsHzGBsAtC5Yd/ADisUF5ckSACBABIwLicvf67WqM/NM1IkAEiAARMCeAy2G+lb8F3LtzDzLlSAeT1wyBp1IFbmf2y/nfoXPNIWz1r78gfsL48MnX8yBRYuPtrsyf5M4dGoh3hyPFQgSIABEgArGbAPVP+eQfafWg2K21lHsiQASIABEgAtFDgAbio4c7PZUISBGghk4gtj9/uwpbV+6C/MXysqXpv4cZQxcD7o++8ZsPbW0lERgbnREBIhBbCODHO73qj4ROI5rDy2ULxZZsUz6JABEgAp4RGNN1BmxevoPHj3WxEhWKQvIUydgSlQC//vgHHNpxnC3xzk6Y6zGuNVSqW5ofR8c/GoiPDur0TCJABIgAEYhpBKh/6pFEI6ke9CjVdEQEiAARIAJEgAiEigANxIeKND2HCLhAgBo6gRDXL9oGE3vPCbj4Zv0y0G2Mb5/SgBt0QgSIABEgAkSACBABIuAJAdyzcckH62DemOX+AXf9g3C2fMNONaFczVf0t0J6TgPxIcVNDyMCRIAIEIEYSoD6px4JNpLqQY9STUdEgAgQASJABIhAqAjQQHyoSNNziIALBKihEwjx6p9/w5ebDsLFC39AwkTxIWueTFCmWnGIEydOoEc6IwJEgAgQASJABIgAEfCcwLUrN+DEvq/g0q9X4c6tO3yFotTpU0K6TKnhmcI5IW7c6N866N9/bsHZ0xc4i8w5M0RZRt9zSPQAIkAEiAARIAIxgAD1T0UVYiTUg6Kmmq4QASJABIgAESACXhOggXivCVP8RMBFAtTQcREmRUUEiAARIAJEgAgQASJABIgAESACRIAIEAEi4JgA9U85RkYBiAARIAJEgAgQgVhKgAbiY6ngKduRSYAaOpEpN0o1ESACRIAIEAEiQASIABEgAkSACBABIkAEYgoB6p+KKZKkfBABIkAEiAARIAJeE4jD9rH5n9cPofiJABEgAkSACBABIkAEiAARIAJEgAgQASJABIgAESACRIAIEAEiQASIABEgAkSACMQWAjQQH1skTfkkAkSACBABIkAEiAARIAJEgAgQASJABIgAESACRIAIEAEiQASIABEgAkSACBCBkBCIc/7vUzQjPiSo6SFEQJ1A1mT5eSQXrp9Wj4xiIAJEgAgQASJABIgAESACRIAIEAEiQASIABEgAg4JUP+UQ2DknQgQASJABIgAEYi1BGggPtaKnjIeiQSooROJUqM0EwEiQASIABEgAkSACBABIkAEiAARIAJEIOYQoP6pmCNLygkRIAJEgAgQASLgLQEaiPeWL8VOBFwlQA0dV3FSZESACBABIkAEiAARIAJEgAgQASJABIgAESACDglQ/5RDYOSdCBABIkAEiAARiLUEaCA+1oqeMh6JBKihE4lSozQTASJABIgAESACRIAIEAEiQASIABEgAkQg5hCg/qmYI0vKCREgAkSACBABIuAtARqI95YvxU4EXCVADR1XcVJkRIAIEAEiQASIABEgAkSACBABIkAEiAARIAIOCVD/lENg5J0IEAEiQASIABGItQRoID7Wip4yHokEqKETiVKjNBMBIkAEiAARIAJEgAgQASJABIgAESACRCDmEKD+qZgjS8oJESACRIAIEAEi4C0BGoj3li/FTgRcJUANHVdxUmREgAgQASJABIgAESACRIAIEAEiQASIABEgAg4JUP+UQ2DknQgQASJABIgAEYi1BGggPtaKnjIeiQSooROJUqM0EwEiQASIABEgAkSACBABIkAEiAARIAJEIOYQoP6pmCNLygkRIAJEgAgQASLgLQEaiPeWL8VOBFwlQA0dV3FSZESACBABIkAEiAARIAJEgAgQASJABIgAESACDglQ/5RDYOSdCBABIkAEiAARiLUEHA/E37lzF27fus2BJUyUEB57LHG0wrtx/R94+PAheJkWjP+H7y/A+bM/QroMaSHXMzkhEct7JLn79+/DxZ9/hyzZMkZSsimtOgJOGjqktzp40XiKskBbhS7JE49D/PjxozE1wR8dafYi0vgGl4A7Pv6+dp1HlJi9p8PpnRVp+uWONCgWIhC7CMSUcq61M+Kx9/YT7P1t5cR3UaLEiSAx+yNHBIgAESACRIAIEIGYSiBY/9S//96Ce3fvQZw4cSDZk0ltY4gp9UjbGSaPRIAIEIEYQkBsE0dC/3cMwU7ZiBACjgfiOzTtDp+s+ZRnr1iJorB804fRltX//e9/kD35c/z5ZSqVgjlLp7ialjOnvoGB3UbAVye/9n98gA+IFy8eZMuZBdp1bwnV3nnT1Wd6ERlWfssUeRN+//USvFG1HExfOMGLx1CcISAQrKGDSSC9DYEgHD7iy+17oVG11jzU0An9oUHz2g5jCJ33SLQXkcQ3VJL86cJFeO35N/jjGrWqC0PG9g3Voy2fE4n6ZZkhukkEiEAUAjGlnGMncK6UhXj+UqdNBQe/2x4lr+KFL7fvY+/6VvzSW7UqweQ5o8XbdEwEiAARIAJEgAgQgRhFIFj/VPWy9eH4oZM8zwfP7oDUaVIGzX9MqUcGzSh5IAJEgAjEQALUPxsDhUpZco2Ao4F4rBAVzVESbv3rmxGPXzXu//YLSMM6p7xye3YegKOHTvDom7VpCEmSPOZ/lDgQX/qNkjBv+VT/PdWDLRu2QddWffx5NYsPBzj6j+gBCRIkMPMS7ddPHj0NVUvX5elIkjQJnP5lf7SniRIgRyBYQ4f0Vo6r16F2fb4HGtd4lz/mvfH9oGGLOl4/0jJ+K7saifYi3Phawg/RzR9/+BlKFarEn9agRW0YOr5/iJ5s/ZhI1C/rHIXPXatyHT6ppJQ4JRCucrVKV0wp5/fu3YPcqQpzkaViHceHWAeylRM7HarUfAPenzfWyjvdIwJEgAgQASJABIhARBMI1j9V7fV6cOLIKZ7HA+yDRjt9x17UI63qrREtAEo8ESACRCDMCFD/bJgJhJITVgQcDcRvWrsV2jXuFpCBIeP6QqOWvkHegBsunQzpNRLmz1jCY9t1cgtkypLBH7NXA/G32NL7z2cuzpdQwoe9+MoLUP7N16HYy4Xh66++g88372B/OwFnyqAb9cEQqN2wBj8Ox3/IqW+nIXDq+Bmo07hmWM/GDUd+4ZQmq4YO6W04SSowLeFWEQlmVyPNXoQb30DpR89ZuA7E0/vIO32wKtfePZVi9ppAuMrVKl0xpZzTQLzX2k3xEwEiQASIABEgApFMwKp/CvMlMxDvRT3Sqt4ayfwp7USACBCBcCNA/bPhJhFKTzgRcDQQ36ZRV9iy7jPg+80mTgh//3UdvF6e3qrChBU0bWl6N2fEizNaylYqDbOXvh9FZh99uAL6dx7Kr5v5iRKILhABRQJWDR3SW0W4HgYPt4qIlV31EINnUYcbX88y6iDicB2Id5AF8uqQQEwr1w6zH2O9h6tcwzVdbioCDcS7SZPiIgJEgAgQASJABGIaAav+KcyrzEC8F4xiQ73VC24UJxEgAkTAKQHqn3VKjPzHJgK2B+Jv3vQtS3+bzRav8FZZSJnqKVgybyVYLU//4MEDOMb3A/ofpE2XNmA2uwb5ypW/4PzZ8/w0T77ckDTZE/z43Hfn4a+rf8HsKQth6yef82vvfzgW0qVPw4/z5s/Ll6k3Goi//vcN2L/7EOBvnmdywjMF8kD8+PF5ODv/Rg2aCDMnzeNeJ84eabgPPOatQMaX+NL1jz2eGI7/uBcSJjRenv744ZNw7uwFlp9rkCNXNshfMJ/p3kjI68GD++x+asiSPRNPA7I4feIMVKlZEY4ePM6vPZk8GeTKm9MwO//88y98c/obfi9DpgyQLkNawDTgDP6nUjwFOXJnMwz31cmv4dsz38OVy1e5rPIyeWTOlhHixo1r6F+76CR/Whj6lSNg1dAhvXWmt6jv3339Pfx56QqkSp2Slc2s8HyRAnKC+S8Ulr09O/bBLz/9Chkzp4eXXy0GyZ5MCk4qIjLl6ey35+Dbr87Cb7/+AcmZbciUNSMUK14kStm1Y1efeOJxU3uh2acUKVNAdsYL3Y3r/8C+Lw9ye5s3Xy5ub+PFi8fvmf1DW3RgzxHG6SJcZe+AVKlSMHuXGV5gq47gO8XMucHXC7ljeu3IDfXi919/59nLmScnJH8qWUBW79y5C6eOnebXnnzqSciVJ0fAfTyxa6eDDcSrvJ/1ibKrf1o48X2ULWcW6feaFp9TfTLS42vsw8K9O/fD3bt3IQ/T47zP5g7QRfzw7zRbVeY0sxuZsmSEAuw9ju/hYM6OXmhxGKXLTvmyW6615+Cvk3SJ4cRjo/T+dOEi7N6xl7N7hjEsWPQ5MYjhsaz8jOpJVWtVjvIMp/FHiUB3wUl8KuXMa7kayc9NfRPLuZv1Tif8UXRaPu3qiyhuLwbindpLMT1Oyq3TfKukS0wjHRMBIkAEiAARIAKxh4BV/xRSkB2ID1aPtFtvcVqfdlrPtCNpu+13fVwy/RZa/U/sr/GqnaulV6W9o8Wh/dqVq+Zf/PWinmzE0057SUwXHjvVK6PneiVHJ9z0+TI6dyM+o/yHop9By4+sHtoNp9m3x5M8DvkK5NUe6//Fvrw/L/3JzzNny2y4pcfRgyfg4cMHAWNH/gjYgYr9sNtudqN/VkwzHROB2EDA9kD8hjVboGPTHpzJ+Jkj2EB8CmhS07fnsdny9DgoVPyZsjzMOw2rw+gP3ovC9KN5bGZ5F9/M8hkfTYIKb5bhfuq/1YJ1ih+I4l+7sGDNDHj19eIBM+K79+8AA7oNh+NsMPvhw4eaVyjyYiGYtmiCofHyexIOJoz4AKaMnsmv9HqvC7zbqZlw99HhVye+hlu3brELcaDoS4Ue3fjv6Ac2+N6F7TOPexzpXf3m78CAkb0gUaKE/lviDP9aDasxFmVhWN8xcOHcT5CEDY7t++YLKJLtFbh37z77sCEN7P/G94GCP4L/DpYvWgO92w/iZ1r68YMFjL9E6Zdh8dpZAUGwctq9bX/OLeAGO8n3XF6YOn88ZM2RWX8LnOYvSgR0wTEBq4YO6e0jnFZ6i/reo90AOMYqLnqHlaARkwdKDcivW7kRBvUYwVcK0eLFj1iq13kTKld/A5rVassvm+0RL1Oefrv4B/TuOAh2bdujPdL/mzlrBhg6YQCULFPCf82OXUX/RvZCtE+Vq1eA9j1aQT9mu08cPsU+HnrgfwZ+ADB14QT2cUMK/zXxYOvGL2BIz5Hw6y++AWnxHg6Ajpn6HjxXOL94mR+r8vVK7k7ktnjuchjQdRjPz9v1q8LYab5jLbOzpsyHkf3H81P9vu5O7XSwgXiV97OWXqf6p4UT9Wv6oonS7zWMz6k+6fW4Tdfm0J/J5OSR0wH1hnKVXwes6+AHdvge3vjxVviLfTSiuadSJGd6Pp5/bKNdE3+d6AWG06fLSfmyW67xOU7ThWGMnJjeN6qWg65920KbBl34R4ei/+KvvQhTF0yI8tGJ5kdFfkb1pNMXA+uNTuPX0mX26zQ+lXLmpVxF+Tm153bTJZZzt+qdTvmL+bSjL3q5uzkQL2svMU1Oy62TfKukS8+LzokAESACRIAIEIHYRcCqfwpJyA7Em9UjndZb7NZbMa1O65kYxso5bb9rccn2W4j1P6zfe9XO1dKp/aq0d/xxOOzX0sLhr1f1ZD1PJ+1zMX1O9Ur/XK/k6JSbmCejY7fiE/Mfyn4YvJNVAABAAElEQVQGzJNT+6JxcBIO81c4+6tw7erfkJRN2jp+YXeUCVS1KzaBg3uP8OibtKkPg0b11h7Ff/F5xfP5xtpw++GR7w/233fDfthpN6v2z/oTTAdEIJYRsD0Q37p+Zz4zHWc6Hj63Cx5P8hg3Hjdv3OQzL5dvnh8FncoLucnbbfjgEhop0WmzJRevn807wLGChu5JNrPw4cP/wQ02C97IvVWrEkyeM9roVpRre9gHAA3YhwDocDBr7sppkDN39ij+rC7cvXsPqpepB2dO+mamp3k6NaTPlA7OfnMOkBk6HLxfsWWBf9ad+MJ5Jn8e+PH8T/AvW4kAHQ7EYwdzs9rtYPuWXfzaJ7tWwLPPP8OPxX8t63aEbZu280vbj27kg+hmFVl8WdYs34C/BDAA8sW0/vHbJX+USZImgY8//yhgdqZM/vwR0oE0AauGDultcL1FfX+7fEO+OoUmBNT3S7/7vjbEa2jbFq2dDYWLPa95Cfr7+Zad0LJOBz6Yhp7RTiZi23do5RdXpcDKEjqjgXiZ8nT79h2oWa6B38YkSBAf8jK78dOFn/0fA+A2Imu/WMJn+OKz7djV4iVfDDoQjx8C3b592/8cjFt0+PHBhJkjxUv8GL9srV2pCdxj9hFd+oxPQ3ZmWw/vOwq42gq6DMxObtqzmq8kwC+wf6p8vZK7U7nhBwtVStaGr09/y23tp/vX+Fc2wRVcXitYkdvi5CmehC+ObGQrmDzJEcjYaa8H4mX0T5On/n0k+16T0SfxPYtlH/X4+jXjekPDlnX4ShNaI0hLv/aLg/F7znwGj7FyJjqneoFhxXQ5LV92y7VMusR8icdienFVg39YvebPPy5zLynYiklXLz/6aEFf19HiUZWfWT1JJX4trNGvTHq9rgejvZaRqyg/r/RNX841pjL2DMPK8BfzGUxftPSJv24NxKvYS1X5WuVbJV0iJzomAkSACBABIkAEYicBq/4pJOLmQLxMvcVuO0mmnmklcdn6rkq/hVjv9aqda5RnlfYOxicjVy0dXtaTRZ5O20ta+mT0SnyuV3KU4ablyejXzfjE/Ieyn0FWD2XCdWjaHT5Z8ylHqR/Xwfiey/Syv88U23Kb9qwKwI6D4J1b+Abnpy4YD5Wqlef33bIfVu1HfJBq/2xAZuiECMQyArYG4m+wDtaiOUrCXbZs7ktsqeWln8zlmDTjYbY8veoLGR9itZePaKA1uTVt2wAqsdlZ+Qs+C9s/3QXtGnfjHdw4MHbo+53+gQ3Nv9HvLTYg9ELO1+AmW2YaHQ7MNW3TAKq+UzlgMNoorHZtxIBxMPv9Bfy099Cu0LpjU36MS/x3btHLP1COy+1XqfEGv2eUnyo134Ca9apBbrbEPg7mrV66Hrq/24/779KvHXTs6VuVgF9g/9BoF2az5m/9e5svrbt572p+y6xDtEG1VrBn+z7upzxbjWDstKF8AOznHy/CpJFTYc3SDfxe8/YNof/wnvwY/8nkzx+YDqQJWDV0SG+TQjC9bcxW8dBmj+PHOZ16teFLrOMyR3OnLoCFs5Zy2eCy1J98uYIPqAcTFg6uln+xGv8SF/3WblQDBrAvFhMmjM+WqT8Ak0dPD1htwmggXqY87d6xHxpWbcmTh0vqf7RhLt+uA+3IyIHj/fanXfeW0H1Ax4BsWNlV9GhkL4zsE9rbytUqQIFCz8LOz3bDuw0681nF2gdb+qXXe7UfCCsWfczT0nd4d2jZvjE/xiWNBnYbCh8v+4SfD5s0AOo3fYcfu8HXC7lj4mTkhoO6+IUrOrS5M9lKMOjGDX0fpo6bzY+Hs1UZ6jWpxY/xn4yd9nogXkX/9Pol+16T0Se9HuOqFa06NYE32aoVOfJkZ+/YddC/s2+VHk0AhV8sCM1YHeC1cq/CH2yln7aNurBtLc7x2zhrvkadKppX/iujF/p0YUROy1ewci2TroCMCSf69CLHLv3bQ/V33uQf05w4corr7T9s6wp00xdPhDeq+L7a1qJxQ34Yl76epBK/FtboVya9XteDMZ0yctXLD+NxW9/05RyfgU7GnmE4Gf5G+TTTF3yG3rk1EK9iL92Sr1G+VdKlZ0XnRIAIEAEiQASIQOwjYNU/hTTcHIhXqbcEayfJ1DOtpC1b31Xpt9DXe71o5xrlWbW9oyJXL+vJep6Yd6ftJRm90j/XCznKcDOSvXbNzfiM8h+KfgZZPZQJt3Lxx9Cz3UCOr//IntC8bUMNJd9muW7lwFWZj57fHTCW1bfTEFg6fxWfSX/khy/9qw+6aT8wQUbtRzf6Z/2ZpQMiEAsJ2BqIF7+2GTi6NzR9tz5HtW7VJujcvBc/NlqeXvWFjBFbVZj0BhqXNK7VoDpPj/YPB+I3rd3KT3FmqN09oHEvWPx68sqfV7Wo+C/OQMdl9quxzmbc+9nI4ZLLJZ4tx2+VqVQK5iydEuAN95Qpkb88n72fK28O2HpgLb+vz49+MAY9/X3tOv9IAJenx7xgnkS3feuX/iWwxYF6ow5R3L+kfLFqPDju97xl3xpIkODRPve4B03J59/g6cQv8Q58+wX3K5s/MZ10LEcgWEOH9BbATG/F5XtSsmXTtx/bBEnZag+awwpFpRI1/QNsuFoF7lkezB3efxRqVfANKKN92LBzuX+VCwz7B5ttX7F4Tf+y1vqBeNnyNGPyPBg9cCJP3sgpg6FOo5r+pKKd6NamHzx88BCKsjy07dLcfw8PrOwq3jeyF3r7pH8mhuvUvCesX7UZD2Hd9qVRlpjv2roPnGdbbaDtnM3sIi77rTn8GOI1Zm/QicsvqfL1Su6ycsP8dWIfY61fuQkPYc22jyBD5vRQis2Gxw+o8KMGtOvY4EIna6e9HohX0T+9fsm+12T0SdRj/Ihw3IzhUQbSq5et7/94Bsv0yk8XBsx637zuMzYY35XLB5eK6zmoMz/Gf7J6IaYL45EpX1blWjZdmBYjp09v1wEdoEP3VgFeP16+Abq26suv4VL/s5ZMDrivKj+MzKiepD1EJn4trNGvTHxe14Nl5aqXn9v6hvz05RyvydozDCvDX59PK33BZ+idWwPxsvbSLfma5Vs2XXpOdE4EiAARIAJEgAjETgLB+qfcHIhXqbdYtZNQcjL1TDOJy9Z3VfstxHqvF+1cs/yqtndk5ep1PVnkiXmXaS/J6JX4XC/kKMvNTP5uxyfmH58Zqn4GWT2UCSeWGX0/CU7kmjRiGuAqmbh8PTpxG2c8L1u0Ct8SsOALz8HHrD8RnZv2A+Mzaz+q9s9i3OSIQGwmYGsgvkXdDvD5ph2c05enPoWMbNAAHS6lWyR7Sbh//77h8vSicXG6Rzx/APtnVWESDfTLJYvBEjYjVO+mjJsFE4b6BsJnsk7g8qwz2K778fwvfG9YnFmPg3SiwyWf36xRATr0bMOXrxfv7WAzQ5uyQXx0H66aDqXKvSLe5se9OwyC5QvX8OMzvx/infxifnApV+z8N3JN2V7TO9iAO7qDZ3dA6jQp/d4GdBsGi+cs5+dbD671z+A36hCdM3UhDO87lvvtNrAjtO/W0h+PdvDnpSt8cCh+/Hh8GWm8Lps/LU76lScQrKGDMZPeAhjp7U62j3oTNiMeXb8RPaBFu0b8WPyH+ze1rteJXxo6oT80aF5bvG14/P7YmTBx2Af83oBRvfjMWb3HVUvWQY82/fll/UC8bHnCD4zwQyN0uFrHuOnDIH78+Pw82D8ru4phjeyFaJ/ElVHEZ02bOBfGDp7ELzm1tw8fPoTcqQpzW1u6QkmYt2Iqj0eVr1dyl5UbZup3tvVHmSJv8q0LkGXOPNn8dhsH5guxCrXmZO201wPxKvpnpF8y7zWNkdGvmT6JemxWb+jTcTAsW+BbTcbogxJc8qsMa/ygq1G3CoyfMcKfBFm9ENMlW76syrVsuvwZ0x2I6cWlyzbuXhnwARJ6xxWAirD9z+6wlXpwGf+j5331Fl1Uhqd25GdVTzKMVLhoFr/gxdGhWXxe14Nl5SrKzwt9Q3hG5VzWngUThhl/MZ8y+uLWQLysvXRDvlb5lk1XMHnQfSJABIgAESACRCB2EAjWP+XmQLxKvcWqnRRMUmb1TLNwsvVd1X4Lsd7rRTvXLL+q7R1ZuXpdTxZ5yraXzJjhdTO9Ep/rhRxluZnlxe34xPyHsp9BVg9lw1V4qRqfBIYD7kfZrHb86AJdvSrNYd+ug9Dk3Xp87OUCm8gkTlS6zCaL4grO6Dr2fhe69GnHj920H1btR9X+WZ5Y+kcEYjGBoAPxOHu7CFuWHvf0zVcgL+9sFXlpS+6g0djPZkynSZvKf1v1hYwRWVWYRANdovTLsHjtLP+ztYPFc5fDgK7D+Km4d4Z2387vJbbv6Zpl62EVW1L5HOuAFx3OFMf96nPlyeG/PHfaIhjWZww/X79jGTyd4Wn/Pe1gzgcLYNbkD/npZ4fW8T3o7eQHA4jLmOhXAcCZ+PhFWs7c2eCzQ+u1xxl2iIqDDfrBH39AgwPZ/BlERZccEgjW0BGjI70VaQDMZmVuRL9x/OJCZiteZTZD73Bp+5LP+WZlN2hRG4aO9w2e6/2J5z3aDYBVi9fyS1jecUaz3u36fA80ruH7CEA/EC9bnq5c+QuKsg+hNIeV1DpNasIbb5ULsMPaffHXyq6iP6MBFDv2aemCVdC34xD+KCf2FuPGlQxKPFuWf/gj2nNVvl7JXVZumhzEL2e1a7UaVoMxHwzVTvmvrJ32eiBeRf+M9EvmvRYASjix0ic7ejx68ESYMXEejxFXuMhfMJ8QO8DVK9f4ADNefOvtijB5ru99j+eyemEnXcHKl1W5lk0X5snI2UkvhqtVoREc3n+MR3Hip72mKwmJz1CVnxiX0bFV/Eb+g12zis/rerCsXO3IT0XfkJlROZe1Z1YysOJvJ59Wcbs1EC9rL72UL+ZbNl1WzOgeESACRIAIEAEiEHsIBOufcnMgXqXeYtVOspKWVT3TLJxsfVe138JOvVelnWuWX9X2jqxcva4n2+EZrL1kxsxKr+w8V0WOstzM8uJ2fHbyj2lxu59BVg9lww3vPxbmTPFNvsTVifPkywV32bjb85mLw222XTLOgscJmDhBBPt6tX3ixdUZV21dBEXYNoroQmE/8Dmq/bMYBzkiEJsJBB2IX7NsA3Rr7VtatG6Tt9kMcN9gkgZt0ZylMH2Cbya6fnl61RcyPsOqwmTHQH80bwX07+Ib2HAyMKTlT/977NBJPiiPs9nx4wR0T6V8Cj4/vMG/Z0e/zu/Bkg9X6oOans9fPQNeK1uC72WPHZfoxIEofUAcsMIvoHAlggpVysCMxb4ZqF+f/pYtrf02996+Zyvo1q+DP6hRh2jr+p1h6yefcz/iSgf+QCYHsvkziY4uOyAQrKFjFhXpLUDP9gNg5SLfgDmWV9yOQe+wTOGsbLQtuCw9Lk8fzLWs2xG2bdrOve356jP/yhFiOKuBeJXytGHNFuj+bj+4e+eu/3H4UVRJZk9qN6wB5SqXNpwlb2VXMSIje2HH3i5buBr6dBjM02Jmb3G1gs3rtsKuL/bC7xf/gMvsHLcAQfaaE+2fKl+v5K4iN8wnVrLzpA7c+uDwuZ2QMlUKDQP/lbXTXg/EY+Jk9c9Iv2Tea5gGp/pkR4/HDJnkr9cYDcT/xZYIK5ztFXx8lIF4Wb2wk65g5cuqXMumi2fS4J+d9GIwUX93ndwCmbJkCIjNC/mJD3AavxjW6NhpfF7Xg2Xlakd+KvqG7IzKuagPTuqdmiyc8reTTy1uo1+3BuIxbhl76aV8tfzKpEsLS79EgAgQASJABIhA7CYQrH/KzYF4JC1bb7FqJ2kSdFrP1MLpf2Xru6r9FnbqvSrtXH0+tXM32jsycvW6nmyHZ7D2EjJyqld2nqsiR1lumrz1v27HZyf/mAaxnLnRz4BxyuihbLgvt++FRtVaY3DQxtJwAgN+YIAO94Xf9flu6Nyit//8KTZ7XrNlSdl2n8fYioPx4sXj90NhP/BBqv2zPLH0jwjEYgJBB+Kb1W4H27fssoWoWPEisHzzfL9fN17ImpHBSPXG1Y6BdnsgXsvcoX1HoVW9jv49O+Ys/wDKvOFbHqRRjdbw5ed7uVfc51dbYkQLq//FJZwxrJ38aGEbsyW2d7GltpM88Tg30LjXsrgMP34thV9Nac6oQ1RbzQD9HP5hF6RkHxTYcbL5sxM3+bEmEKyhYx0agPTWVy6t9P059gXiDbbtRuasGWDniS3BkEKDqi1hz4793N+xC3sg+VPJooSxGohXLU9fnfwa5s9cApvZUvU3//k34NllK5UGHBAX92JHD1Z2Fe8b2Qs79ilYQ2Tdqk38w6h/2Eormkuf8WlInTY13wNpJ9vWA504EO8mXzflrio3XIosx1PPaxj47/Ef98CTyQP1R9ZOh2IgHhMto39G+oVxOX2vyeiTHT1WadjK6oWddAUrX1blWjZdKBcjZye9GK57m36weolvdZ6tBz6GXHlz+qPzSn7aA2Ti18Ia/crE53U9WFauduSnom/Iz6icy9ozjE+Gv518YtxmThyIT5k6BRz+fqeZV35dfNdXqfkGvD/Pt/2TFsipvfRSvlqa8NdpusSwdEwEiAARIAJEgAjEXgLB+qfcHohH0jL1Fqt2EsYpU8/EcEZOtr4r1vtk+i3s1HtV2rlGecVrbrR3MB6nchV5edHvbodnsPaSjF7Zea6KHGW5oYyMnNvx2ck/psPtfgYtb071UDbcbbZ9X8EsJfg2fpWqlef9tlMnzIFxQyb7Z8DjlpYv5y3DH6HtE1/5lVpw5tQ3UOGtsjBj0UTt8SDKwSv7gQ9T7Z/1J5gOiEAsJWA5EP/3Nd/M63v3Hs1UtOKkX57ejReyVYXJjoH2aiAeOYj7IYsz0MUvkfZ98zk8nS6NFTb/PTv50TwvX7QGercfxE8Xrp3JltkuDtXL1IPjh09BluyZYMexTZpX/mvUIdq+SXfY+PGn/D7u74pbD9hxsvmzEzf5sSYQrKFjHdp3N7bq7cDuw2HR7GUcgrb0j57XLbYEUL6nX+CXXy1THBauman3EuX83YZd4NP12/j1Hcc3Q5ZsGaP4ETvn9UvTu1We/v33Fny+ZSesX7nJP0MfE2K0xL6VXcUwRvbCjn2yaoh8e+YsvPnqO/6Z7+17tIIadd6CbDmz4CO5y5u2KK+IigPxqny9kruq3MRlzLT84z5Qg0b30U75r6ydDtVAvJZYJ/pnpF8Yj5P3mqw+2dFjlYatrF7YSZdV+UJ+VuVaNl0Yr5Gzk14M17xOe/his2/w8vSvByFJksd4dF7KDx8gGz9PnME/2fi8rgfLytWO/FT0DREalXNZeybL304+DcTtv4ThC2R6GW7euMlnG3z75xH/rAO/J+FAXEWsYcs68N64fsLdR4d27aWX8n2UmkdHdtP1KAQdEQEiQASIABEgArGZQLD+KS8G4jXeTuotVu0k2Xqmlg79r2x9V7Xfwk69V6Wdq8+ndu5Ge0eLC3/tytXrerIdnlbtJVm9svNcFTnKchNlJB67HZ+d/OPz3e5nEPOEx3b1UCWcNhFF++BbG0xv2rYBDBzZi0ddunBl0PaJ79y7LRTK+gqfxDni/UFQt7FvRWT0GAr7gc9R7Z/FOMgRgdhMwHIgfuVHa6Fn2wGcT+kKJaFi1XKGrL5k+x9vWO2bOTp4bB9o3Koe9ye+kN+uXxXGTvPt1S5GIg6Ua1/4iPetKkx2DLQYv9lSyeLzbrDOtqI5SsL/2GxFXHJ+39fbAL+uM3I72OzNpm+34bfEr5HmTF0Iw/v6ZsEs2/QhvFiiqFHwKNfs5EcLhHvUFstVCh48eAA4eNOue2t+jnG826UZ9BrcRfPKf406REVDbcQ+IALhRDZ/QhR0KEnArKFDehsc6OK5y2FAV58NmrtiKrzObJre/XD2ApQpWoVfbtmxMfQd2l3vJcp57w6DALeqQLfy0wVQ9KXA5cbxutVAvBfl6XM28NWCDYChM5rZb2VXMYyRvbBjn6waIuIeSH2Hd4eW7RvjowKc0UC8Kl+v5K4iN1zavEyRN+Gvq9f4164ZMqfnH0/guwY/isr7bG4/F1k77WQgXvb97E+k7iCY/hnpF0bh5L0mq0929FilYSurF3bSZVW+kJ9VuZZNF8Zr5OykF8NVea02nD5+BtJlSAt7z/g+WMLrXspPJX4Ma+Rk0+t1PVhWrnbkp6JvyNConMvaM1n+dvJpJG/xWu2KTeDg3iP8UrDl9N8fMwMmDp/K/Y7+4D14p2F1MSrDYyt76aV8DRMjXLRKl+CNDokAESACRIAIEIFYTMCsf0pD4uVAvPYM/A1Wb7FqJ8nWM8Xni8ey9V3Vfgs79V6Vdq6YR/HYjfaOGJ94bCVXr+vJdnhatZdk9crOc1XkKMtNlIt47HZ8dvKPz3e7n0HMk/7YSg/1fsXzYOHmTlsEw/qM4UFwsliNsvXh35u3AFdNLl/5dX69T8fB/n3iu/Xv4O/n3X16K2TIlM7/uFDYD3yYav+sP8F0QARiKQHLgfgmbJBZWypYm3VtxOnk0dNQtXRdfktcnh471Ytkf5Vff63cKzB/1fQowbWlN/CG0WDwiAHjYPb7vn2a121fCs8Vzu+Pw46BdjoQj5E/w2bE3mYzY9Gt/WIJPF+kAD/W/5sxeR6MHuhbCqR+83dg2ATfRwviXh89h3SGNp2b64PCP2wJ6Zv/3OTXU6dJyQf77eRHjKhh9dawm+2znJnNwG3fvRX0bDeQ39ZzwotGHaKrl67n+0vj/ebtG0L/4T3xMMAtmLUEzpz8hl8byGZq4mw22fwFREwnUgSsGjqkt4+QGuktdqRjhzq6Vp2aQp/3uvJj8Z9oL8bNGA41674l3jY8xmXhh/Qcye+1694Sug/oGMWfWNb0M+Jly9NvbH/1mzdvQqJEiaLsu4wJKPfCW/D9d+d5Wo788CWkSJncny4ru4qejOyFHftk1RARv1jVVxq1hOVJU4Tvdy/OiFfl65XcZeWGeR3QbRgsnrOcZ3vBmhlMfhmh/IvV+GoB4jsUPYi648RO/3j+FyhVsCJ/htFAu+r7WUX/jPSLJ5T9s/tek9UnO3qs0rCV1Qs76bIqX8jPqlzLpkuTi/5XTO+zzz8DG3Yuj7IND3bKlMhXjn+x/crrxWHRx49WGPFSfphW2fj1+dTOZeNTLWf4fC/kKspPtLdafvFXRd8wvFE5l7Vnsvzt5BPTauWG9h0D86Yu4l76jegBLdr59u3Th8FnYYfQVye+5rfElaZk7aVsubWbb9l06fNO50SACBABIkAEiEDsJGDVP4VE3ByIV6m3WNWnZeuZZhKXre+q9lvYqf+ptHPN8qva3pGVq9f1ZDs8rdpLsnpl57kqcpTlZiZ/t+MT8x/KfgZZPZQNhzzPfnsOyherxtHWalgNVi5ay/tUcH94bctT3N6gc3Pf7HjNT/ZcWeHzwxsCRBIK+4EPVO2fDUg0nRCBWEjAdCAeZ+zhjOv79+9D0ieTwpFzOyFBggSGiNBQvsT2rbj0+5/caOBy7GmfTs39aoODT6VIzvZb3gxJkz3hj2PLhm3QsWkP0Ja+NxqIxwG1wT18g1yT5o6Gqm9X8ocXDbRZR6I4sGZnRjxGXq9Kc9i36yB/Du6xPGnOaP9yqtrDsYO54Vst4BybQYtu5JTBUKdRTX58+c+rUDxfWbh39x7fw/2zQ+shXfq0/B7+wz0ncV+Ps9+c49dwlhjOFrOTH38k7EBc2jhn7mx80C0jm1mJM3b0zqhD9Mrlq/Bi7tf5rPr48ePDpr2rIFeeHP6gv/z0K5QuVJnrAK4OgDqA2w/I5s8fMR1IE7Bq6JDe+rCa6e21v67z1S5wFYmEiRLCNlYuM2XJ4JcFbsVRujCbpXzlL35t897VATOT/R51B1+f/hYqlfAtCYT7nW/euwaSMZupOVyS6u0KjUDbF10/EC9bnjR5x4sXD7bsXwM5c2fXHsnL7KsFKsDvv17i9vvY+S8DltO1sqsYiZG9sGOfrBoiXVv3gY+XfcLTuGjdbHil1Ev+9OJ+6UN6jYKFs5bya6I9V+Xrldxl5YaDNDhYgzzFwcnBPUfAgpm+/E+aMwqq1qrMWcjaaVxK69l0xXgc+AEbfqCldyrvZxX9M9IvLW1232uy+mRHj1UatrJ6YSddVuUL+VmVa9l0aXLR/4rpxXvi9jya35EDx8OsyfP5qbi8Gl7wUn4q8fPEGvyTTS9GpVLOMLwXchXlJ9pbfJ7mVPQN4zAq57L2TJa/nXxq+TX7XbviE+jSsg+/jW2Zjz9fwreA0vsX5ZQocSI4fXE/YN0anay9lC23dvMtmy593umcCBABIkAEiAARiJ0ErPqnkIibA/Eq9RaxnqbvV5atZ5pJXLa+q9pvYaf+p9LONcsvXldp78jK1et6sh2eVu0lWb2y81wVOcpyM5O/2/GJ+cdnhqqfQVYPZcNpPEs8Ww5+/eV37RTyPZcXNn650n8u7hOvXTTa0jIU9gOfr9o/q+WBfolAbCVgOhAv7tVa9Z3KMGn2KEtGfTsNgaXzV3E/4vL04pKOuOdy7YY14O+/r8P2T79kf7v4ILAWsdFA/PatX0KzWm25F9zDvEvfdmzJ+OSQN38eePzxxLyjD2+adSTKDMSLz8S48Wujxq3rQQ420PWAfZhwhg28YeeyNmCXlu0Bv/3YRnjsscTonbuPPlwB/TsP5cc4o755+0ZQquwr8OMPPwGmadmC1fweLvk/jy2TjU584Zjlh3v8798VNmBYLGcpwEEszbXo0Aj6Deuhnfp/jTpE8aY40ycHy2cjlk+ckXmCrXKw9MNVcOLIKR4Hfnk15gNffvCCTP54RPRPiYBVQ4f0NrjeioOduPx3g5a1+dYRRw+c4LP/jh08weVTji0DNIstB2TXiXbuhZcLQ/eBHfkqFzu37eZl/fKlK/6o9APxeEOmPE0ZNwsmDJ3C4325ZDHoOagT4Bejf/5xhdnilfDB2Fn8XqVq5QE/QhKdqCt6u4qrXhjZCzv2yaohIg6wFn/tRRgwsidkzZEFDuw+DAvnLPXvI43p1Ns/Vb5eyd2p3JAhfpRx9MBx/lETzph8hr3L0KE9L1WwEv9gIw37kG0b+8I1adIk/J6sncYP5P747RL/CKPrgA5QqGgBePlV3+A8Rixydfp+VtE/I/3iGWX/7L7XZPXJjh6rNGwxH071AsPYSZdV+cI4gpVrmXRhvEZOTK92v0bdKlD+zTL8w0P80HL6hLn8Fm65sGXfasiVN6fmNeBDQif2QHyu3k74I2cHsvohxiEeq8SnUs4wDV7I1Q5HVX0zK+cy9kyWv518inI2Or5z5y5ULlHT/+FtYlbXb9qmPuR/Ph9vj/x84SJ8uvHzgHdY575toVMv39ZVGKeKvZQpt3bzrZIuI1Z0jQgQASJABIgAEYhdBKz6p5CEOBDfqFXdgIlZelLVa1dhfa7Z+GWjeqRKvcWqPr1+1Ubo23EIf66Tdok+/eK5TH0Xw6v0W9ip/6m2c8U8iscq7R0VuXpZT7bD06q95GX7RVWOMtxEeeuP3YxP5K49JxT9DLJ6KBtOy5u41Dtea9auIQwYEbha8etsW8vz3/+oBQGzrVa9th9aAsTyLtP/rcVDv0QgNhIwHYjXlodFKNMWTjDdH16DJu59IS6t+wUbbG/+TjvNW8Bvkiceh4pskGjV4rX8utFAPM4er1O5GR+4EAPjcr6vsqVOsYKGzqxDVmYgHuPbtmkHdGEzOLVZrHjNyOUvmI8N2L3PZ7Tr73dp1QfWLvfNANXfw/MUqZ6CBatnAMaBTnzhmOWHexT+1Wez8vfuPOC/smrrIijyYkH/uXZgVJHFe7hEfjO2BcGhfUc1r1F+cYB+9baP4MnkyQLuOc1fQGA6kSIQrKFDevsIq5HeXv/7BuCWG9qA+yPfj45y5skOi9fP8a/q8eiO+dFXJ7+G2pWaws0bvu0m9D5xZY1tm7bzy0YD8XjDaXnCJcDqVGriX1kD48DZ8TjjX3O4msmcZVP4xzXaNfy1sqsly5TwZCAev+SsxrYwwYFhI1emUinY/+UhzlBv/1T5eiV3zIcTuYnL1BktFz990lwYM2gSx9OyY2PoO7Q7P5a102J8GNFj7OO1M78d4nHiP5X3s4r+mb2PtITZea/J6pOd96xqwxbz4UQv0L+ddFk19DGOYOUa/ThNF4YxcmJ6n06fBu7cvgt/Xb1m5BU69GoNXfu2D7jnpfzwQbLxByRSOFGJT6WcYRK8kKsoP7291bKtqm9m5VzGnsnyt5NPLb9Wv9989R1vy4izFcz8V65eASbOHhmwipiKvcTnOC23dvOtmi4zBnSdCBABIkAEiAARiB0EgvVPiQPxwYiIK5ga1SNV6i1W9enc+XJJ91OY5UmmvotxqfRb2Kn/udHONcqzSntHRa6YFq/qyXZ4WrWXvGy/uCFHp9yM5C5ecys+kXso+xlk9VA2nMZu09qt0K5xN+0UZi+dAmVZ36joxImvCRImgOM/7mETUx8TvfBjr+2H9kDV/lktHvolArGRgOFA/O3bd6BAhpf48sa4hDPuT4GzJK3cLbaneuFsr/K91XH58pO/7Icn2EA7unUrN8J7vUfD1cu+JZ9x+WYcRMcvInEP407NfF/7zFn2AZSp+FqUx+ALbMqYGXD88Cn49quzfKAJB8qKs1mgOVMU5DPCzfagF1+MRgP9UR4mXPiBLTs/cuAE+PrUN3Dx59/8d3CpyVx5c8BLJV+AHgM7BcyE93tiB7g08FQ2a3UR2wv4BhsA1BwOjhUrUQSGTxwYMNiHL5xg+dHi0H7FL89wZv6+r7fxmZbafe03d6pCrDP3PhhxQnlPmzCb7Vm8wj/LH8MlYbMx6zV9G1p3agYpU6XQovL/Os2fPyAdSBMI1tDBiElvg+vt9AlzYPHc5XCNbcGhuSfYthm1G1WH9t3f9e/Ho92z84urRwxme8WjnUKHg+IFCj8LjVrWgTyscYfbUaAbPnkg1GviO+YX/vsnU54u/XEZpo2fBauWrA/4CAAHXAu/WAhGTBoEmbM+Wn5ffJ6ZXS3BZqsb2Qs79mnlR2uhZ9sB/DFG9vYnNnOwY7MecJKtuIHx4bsC2VSqUQHadW3B9keqymcdGtkpN/h6IXe7csP8vvxMWf4hAi5bvP3oxigfcKEtLsO+dsXBHnzP7DnzGaRJm4rzlLXT0ybOhT3b9wFWlu/ffwCn2btZdCrvZ1n9M9IvMU1232sy+mRHj8cPnwIfjPGtKLFpzyr/qgVaGnEbi4JZSvDT6nXehAkzR2q3/L929UILYCddwcoXxmVVrvG+03RhGCOH6cUOMnSl3ygJvQZ15ttLHGWritxheowuZeoU0Kl3G2jYog4/1//zSn7ac2Ti18Ia/arEp1LOMC1uyzUU+mZVzmXsmQx/O/k0krXRNVytYzqrK69dvhGusC2o9A5Xv6rfrBbUalBdf4ufy9pLDOy03DrJt0q6DDNKF4kAESACRIAIEIFYQyBY/1TN8g2jTKoygyP2H5jVI1XqLVb1aZl6plk+tOsy9V0Mi/U+mX4LO/U/N9q5Wv70vyrtHRW5elVPtsMzWPtcRq/sPNcNOTrlppe3/tyt+DD/0dHPgPmR1UPZcPhMXFK+SPZX+bgW9o8eu7A7yiRIcZ94XA11yQbfyoMYXu+8tB/is1T7Z8W46JgIxCYChgPxXgH4g+0hj8uoi/ule/Ust+O9wWa6/nT+J77cNC5Rn5B9hWTXYZ5xr+Zrf11jA3zJAT9ECEeHLzyU0Y3rN3g6U6dJaSuZkZI/W5kJc0/BGjr65McWva1epj7fRqFVpybQ571HXxPqeYjnqO9YYbrOtsp4IukT/KMYXEJZ1eEeSVcvX4H0mTL4P0ZyEqdMecJZ8H/89ie3MUmeeIIPvmMlLlzdjev/wC8/XYSMmTNYLk9nlH5Vvl7JXUZuRvkLdk3WTgeLV+X9HN36p6JPwbio3g+VXjhNp2q6UA/FBvK85VN5Eu7evcc+mPwOkj2ZDDJmSc8/SAqWNq/l53b8KvGplLNgHPG+qlztPMNNPzL2TIW/G2lHe4d1+kusvvzgwX1ef0jzdBpIwbbNsuNU7KWX8lVJl518kx8iQASIABEgAkQg5hFw2j/lFgGv6i1e1DNl6rvICcN50V/llgzM4lFp76jI1ct6slle7V73Qq/sPjuYP7e5qcYXDv0MsnooGy6YjGTuh8p+qPbPyuSNwhCBSCYQ0oH4SAZFaScC4UAguho64ZB3szRsXr8N2jbswm/jLPQBo3pC41b1zLzTdSJABIgAEVAkYNZAVoyWghMBIkAEiAARIAJEgAgQASIQIQSofypCBEXJJAIRQoD6GSJEUJRMIkAEpAjQQLwUNgpEBKKHADV0onLHLy6///Yc4P7bsybPB9yiYc9XW23NxIwaG10hAkSACBCBYASogRyMEN0nAkSACBABIkAEiAARIAIxmwD1T8Vs+VLuiECoCVA/Q6iJ0/OIABEIJQEaiA8lbXoWEVAkQA2dQIC//foHrFm2AV54qRAcZ3u0j+w/HnB/9JM/7+N7bAf6pjMiQASIABFwgwA1kN2gSHEQASJABIgAESACRIAIEIHIJUD9U5ErO0o5EQhHAtTPEI5SoTQRASLgFgEaiHeLJMVDBEJAgBo6gZA/+nAF9O88NOBi3SZvw4jJgwKu0QkRIAJEgAi4R4AayO6xpJiIABEgAkSACBABIkAEiEAkEqD+qUiUGqWZCIQvAepnCF/ZUMqIABFQJ0AD8eoMKQYiEDIC1NAJRP3npSvw6YZt8OP5nyBhwoSQO18ueKtmRYgTJ06gRzojAkSACBABVwkc3n8MHjx4AKlSp4QcubO5GjdFRgSIABEgAkSACBABIkAEiEB4E6D+qfCWD6WOCEQiAepniESpUZqJABGwQ4AG4u1QIj9EIEwIUEMnTARBySACRIAIEAEiQASIABEgAkSACBABIkAEiEAsJUD9U7FU8JRtIkAEiAARIAJEwDEBGoh3jIwCEIHoI0ANnehjT08mAkSACBABIkAEiAARIAJEgAgQASJABIgAEQCg/inSAiJABIgAESACRIAI2CMQh+2/8T97XskXESACRIAIEAEiQASIABEgAkSACBABIkAEiAARIAJEgAgQASJABIgAESACRIAIEAEiEIwADcQHI0T3iQARIAJEgAgQASJABIgAESACRIAIEAEiQASIABEgAkSACBABIkAEiAARIAJEgAg4IBBn+8VlNCPeATDySgSik0Cp9LX543f8ujw6k0HPJgJEgAgQASJABIgAESACRIAIEAEiQASIABGIpQSofyqWCp6yTQSIABEgAkSACDgmQAPxjpFRACIQfQSooRN97OnJRIAIEAEiQASIABEgAkSACBABIkAEiAARIAIA1D9FWkAEiAARIAJEgAgQAXsEaCDeHifyRQTCggA1dMJCDJQIIkAEiAARIAJEgAgQASJABIgAESACRIAIxFoC1D8Va0VPGScCRIAIEAEiQAQcEqCBeIfAyDsRiE4C1NCJTvr0bCJABIgAESACRIAIEAEiQASIABEgAkSACBAB6p8iHSACRIAIEAEiQASIgD0CNBBvjxP5IgJhQYAaOmEhBkoEESACRIAIEAEiQASIABEgAkSACBABIkAEYi0B6p+KtaKnjBMBIkAEiAARIAIOCdBAvENg5J0IRCcBauhEJ316NhEgAkSACBABIkAEiAARIAJEgAgQASJABIgA9U+RDhABIkAEiAARIAJEwB4BGoi3x4l8EYGwIEANnbAQAyWCCBABIkAEiAARIAJEgAgQASJABIgAESACsZYA9U/FWtFTxokAESACRIAIEAGHBGgg3iEw8k4EopMANXSikz49mwgQASJABIgAESACRIAIEAEiQASIABEgAkSA+qdIB4gAESACRIAIEAEiYI8ADcTb40S+iEBYEKCGTliIgRJBBIgAESACRIAIEAEiQASIABEgAkSACBCBWEuA+qdiregp40SACBABIkAEiIBDAkEH4m/euAUPHz6E+PHjwWNJEltGj/7QP7qEiRJAosQJLf1Hyk3M18/nfoNffvgNUqdLCdnyZIQELH+R5B7cfwB/XLwC6bOkiaRkU1p1BJw0dEhvdfCi8VS0jY8zOxqP2dNwdpFmLyKNbzjLntJGBGI7gVDbk1DZ22tXbvD6fIrUT8Z2EbuS/9v/3oENiz/nTF8qUwiy5MoAf12+DrOGLYaCJfJDhVolXXkORRKZBEJVriOTTvSl+sbfN/nDE7M+CqO2fEyXW6jfb9EnaXefTNysecb0+kVMtwvW0g1+N1j/FNaX7t27D3HixIEnkj0ePML/fMR07mRXbKtCgEfiFoAj1p5Elx5E13NjraAp40TAQwLRVc+wHIjHRJXNUp9nO0Wa5LD62AxLBId3nYIedYdzP2WqlYD+UztY+g/3m99/9SNM6jcXvj99Ae7cuutPbtx4cSFT9nRQv0N1KFfzFf/1cD3Aym/Dkl3g8m9XoWTlF2HIrC7hmlRKVxACwRo6GJz0NgjEaLh9eCezjfV8trHziOZQtXG5aEiFvUdGor2IJL72pEC+iAARiC4CobQnXtvbX3+8BBN6zYZvjn/v/1B2xaFpkDp9iujCGyOe++DBQ6j3cke4dPGyPz8vlHqef4S859PD0OG9JlCj+Rv+e3QQuwh4Xa5jF033cvvbT3+ycuvrm6jWpAJ0Gt40IPLYILdQvt8C4Eb4CXGLKsDYUr+IDXYhqnSdXQnWP9W2Sn/4+uj3PNLVx2eCnQ9CYwN3sivO9EzzTdw0ErH7N7r0ILqeG7ulTbknAu4TiM56huVA/H325WK5rA14jlOkZgPxx4MMxAuDTaWrvgwDp3Vyn1aIYvxy00EY3vGDgAF4o0djQ77d4IYQP0F8o9thce3bE+fg3Ur9eFoefyIxbPx2flikixLhnECwhg7prXOmoQhxaMdJ6Fl/BH9Up+HNoFqT8qF4rOkzju7+Cr468i2/X6tlZUj8eCK/30i0F+HG1w+TDogAETAlYGWHTAOF4EYo7YmX9vbO7btQp1h7uHblegA1GogPwCF1cmzvGeha6z3IVyQXpM+cFnZ8sg/u33vA40r0WEL48IvxkC5zaqm4KVDkE/CyXEc+nejLwcULf0CDEr6+iaqNykPnkc0CEuOF3MLtPRfK91sA3Ag/8ZpbuOlJMHHFpvqFlV2INLkFk6vs/WD9U20q92MfhJ7j0a9iE7tSsglewZwV92Bhze6Hm7y8titmHCL9utfcwk1PIl1eXqXfaz0wS3d0PdcsPXSdCBABOQJe1DPspoQG4g1I4ez3N/M1g/t37/O7z7+cD16p8AI892JeOPf1T7DvsyOwl/3higHouo9tDZXrlebH4fjvf//7H4zvORu+O/UDVK5bJqxn44Yjv3BKk1VDh/Q2nCQVmJZwq7BNGTAf1szbwhO5dP8UeDrTowGDSLQX4cY3UPp0RgSIgBEBKztk5D9U10JpT7y0t9vX74P32kzm2PI8nx2a9qgNOfNlgZRpg3eAhop1pD5n79YjsGn5dmjAVsbKWzAHX5J+z5ZD8PfVG1Cxbmlbs70iNe+U7uAEvCzXwZ9OPswIBBuI90Ju4faeC+X7zUwOkXjda27hpifBZBSb6hdWdiHS5BZMrrL3rfqnME6ZgXgr7rLpDDd5eW1XZDmFezivuYWbnrglDxy7CPftMZ3k1Ws9MEtLdD3XLD10nQgQATkCXtQz7KaEBuINSInLjZSoUBSGzesexdf6RdtgYu85/LqZnyiB6AIRUCRg1dAhvVWE62HwcKuwxbQGRrjx9VCVKGoiEGMIhKsdiin2ZPHkj2HumOVcX/pP7QhlqhWPMbpDGSECRIAIOCUQbCDeaXx2/Ifbey6mvN/ssHfTj9fcwk1PgrGj+oWPUKTJLZhcZe9b9U9hnDID8bJpsQoXbvLy2q5YsYjke15zCzc9UZXVugWfsZW79sPXx87CiPm9oPArz6pGGRbhvdYDs0xG13PN0kPXiQARiDwCIR+Iv3D2Ipxns8r/ZPuVJ30yCaTLkobPNI8bN25Qel8f+x5++v5XuP7XP5A5Z3rIVSCb6ayTM2wfIvzqC/e2z5A1LY8bw3538gcoW+MVy2fNGr4Elk5bz/30fb+94T7wuD9k5TxN+NL1uAzlhjPzIEFC4+Xp3Ur366wT9avDZ3m6kiZPAllzZzTMx62bt/k+4Xjz6Yyp+V6gmAZcNvPJFEk5O6OAZ09fgB+++Qn+vnID0rEZstmeyQzpmXyCycZJ/oyeS9fsE7Bq6JDeOtNb1Pfz3/4Mf/35NyRPlQyy5MzAZ7bZl0ZUn1j2juw6Bb/9/CcvQwVLPAtPJHscnFTYZMqTXbuKNhBn7K2Y9Qns3nyIZ2DAtI6QOl1Kfpzz2SzwWJLErKJubC80u5o8ZTLIlCMdD3Pzxi04tuc0/HP9X8ieNzPkYHHEi2dtz9E2n9j/Dfz20yWWnuvwVKonIX3Wp9m7IA/EiRMnKtj/rrjB1wu5y+YHsxUO6dHkGux9qfkT5X/92k04tvsU3L1zH7I/k4n9ZQ6QIX5p+N2p83D25Hn2vk8LuZ/Lxt/9pkJmN5zw/PmH3+Da5cClt/Vxo06jbhs5J+XNKP+h0H+j53rBHfmEgoddOyTKy4ty4oY9ccJLzI947La9xffB32w5+tVzNwNuV4Ou84jmkDWPr86Y/4U8UWy0DF9NLyPRboj88RjzL1P/leEmPltGf+y+78XnGB1r8hPtOe6hfXjXScC3ML7LnymU0yholGuhzIdK/lXk5eS9hIDMyrUGTyUfWhz631DqsZH+ePVeUpGbyMjOQLxbcnP6nnOqX2K+jI7D5f1mpCdO7IwWPth7RmSgoi8y3LBPCPe/xvpu6nQpAlYZ09J1jfWt/HzuV36K9eQkSR/jx071BAOp5E/V7mB4J/ULO3r98OFD6f4tDvG/fzJc7OqX3i5EmtxETl4cW/VP4fNkB+L13PVpt6vPTuVlR2/1abE6l7Er+viQBebDTj+4Pqx2rum7bL1PC0/2WCMavfb4USoeHV26eIVtA/E9pHo6BR8rWTt/K0wbstDvYeySflD0tQKg8t7yR/bfgdPy4lSPVMuP0/Rp+VN9LsYj817Snm/Xvmn+3fjF9DptDzvlq8lftENuth+M4ndS7xQ5hoP83MyPzHtEVg9lwyF/Fe5O9dGteoaoN3aOQzYQ/+evV2Fcj5lwcMeJKOlKlzkNdBnZAl4o9VyUe3jh53O/wfAOU+DbEz9Euf9Ww3LQfkgjSJAogf8eNoRez1iXn1esXQperfQiTB28AC6e/50PMm36br7fr9HBh2NXwsJJq/mtVv3qQd22bxl5g7NscOE2W8YeB47yv5A7ih+3073q6HSomr8FH1DHl+vKI9OiPBMvbFyynbPG41Z9WfrbvcV5IJciJQvAuKW+/eLxPjqs1I3qMo03In1XHv3PmT8rDJrRGTJme/rRxf+OnOYvSgR0wTEBq4YO6e0jnFZ6i/o+uut0OHPE91HLo1DAB+u6jWklNSC/bc1ueH/Ah3CDDUxqLm7cOFCuxqtQumpx6N1wFL9stke8THlyale71R4GR3ef1pIX5XfMR325HUb7qbcXol0tVeUlaNipBkxgq4Lgy+sh64TSHG7hMXhWVza4nky7FPC7my3fO2XgArh08XLAdTzJljcT9JrwLuR5PkeUe6p8vZK7bH7CJT2iXK3el6I/lH+99tVgYp858C3b8+/hw//55VXijaLQd3I7SJAgPnvvLuJ7J+PHH5rDj8EGzewChYrn0y4F/Drl2a/pWMBloq0cbr2AWzCIzml50+c/VPqvf65X3EPJw64dQnl5VU5U7YlTXqLu6Y/dtrc9649kH39FrWtrz11+cCqkyZCSn8ryFfUyEu2GxgLzL1P/leWmPVdGf5y+77VnGf2K8itZ+UVo2r0WDGo5gZc30X/hV/Jze52Mffxr5EKZD5X8q8rL6XsJWRmVa7yukg8Mb+RCrcei/nhZH1CVm56VnYF4t+Tm5D0no1/6vInn4fJ+E/VExs6I4a3eM1reVfVFlhtOLnmnaFuejEp1SkOP8a21JPl/1y/8jNWZ5/LzoXO6wSsVX+DHTvREJX9u2R0n9Qu7ev3vP7ek+7cQoiwXJ/qltwuRJjeubB7+s+qfwsfKDsTruWtZcKrPTuRlV2+1tAT7lbUrWrwy9SwtrPgr6jvZ45hhj0X5Lp26HtYu2BrQv4bjI/fu3OPeqjYqD88WzQ3FSj/PJ+apvLfE5zotL6Ie2nmvq5Yfp+nT8qb6XNn3Ej7fqX3T0qzyi+mVaQ875SvK34v2gxi/jJ3TGIaL/NzKj8x7RFYPZcMhexXuGN6pPmIYt+oZGJcTF5KB+Du370L7qgPhe/aFDbr4CeKxWXNZ2GzIP/yDVjirfNonw9mMykzcj/bvHtunvW2V/v6wKdM+xTsQf/zuF/j3n9vcW/5ieeD9NYP9s/BEhc2RLzNgw/v2v3e4X5wZF2wg/ujur6Bb7aHcP34kMHJhL8iSK4OWJFu/XqW7T+MxsH/bUZ6GWVtG8i/d9Anq32wc7Pn0ML+8aPckPohupmBYKNtXHcC/rsQA+FEBMr78+1V/tI8/kRimMtlkFRjI5M8fIR1IE7Bq6JDeBtdb1PcO1QbyWeGaEFDfr/zxl3YKiR9PBOOX9Yd8RXL5rwU72LftGPRrMoYPXqPfuGxGeEJW+dXsTur0KVml6gqPxmggXqY8ydjVXg1G8QEatJGi02ahj1veHwqzWfxG9kK0q/gh0J3bd/z2W4wLj/Hjg75T2ukvA37R16nmYLjP7Dq6NBlS8RU6Th38hq8ugtfSsmtzto3hKwngOTpVvl7JXTY/4ZQeUa5W70vRH5aZuyj/v//1CUj3v2rj8nCera5y8sA3uju+UxyMx8FAfO+LTobngBbj/as7iHGJxxnYh2SL2btQczLlTcx/KPVffK5X3EPNw64d8qqcqNoTGV6a7hn9um1vezccDQe+OGb0KH5t5ZHpbKbEU/wjV9n3oaiXkWg3EATql0z9V1UvZfRH5n1vqgDshii/jNnTsfbULbh66RoPgjMUrrEVFTSnb2Np10OZD5X8q8pL5r2EjIzKtUo+NO763+jQY1F/vHovqcpNzwnPZQfiZeRm9z0nq19G+cNr4fR+E/VExs6I4a3eM5hvVX1R4aYyoGFXT1TyJ6O/yNTI2a1fONVr2f4tFS5O9EtvzyNNbkaydPOaVf8UPsfNgXgZfbYrL6d6G4yhil3BuGXqWWZpEvWd7LHxQLxdPVGxOzL6ayZT7fpHU9bCnFHL+ClOPihU/Fm4ylb8FNuC68/MDViRUOW9pT1XpryIehjsva5afmTSh3lTfW646YcmL7NfTK9Me1iGryh/L9oPYvwydg4ZhZP83MiPzHtE1k7JhlPljuFl9BHD6et3eE0lHxjejgvJQPyRL09D9zrDeHryFswBE1cO5INdqFgzhn4EK2Z+wu816FAdmveuHZDu6e8t9t9v3b8B1GnzJr+PA1zD2k/xDzjj8sqvs1mn6ESF5RfYv9JVX4Y3apWCbHky8aXatetGv3fYLPfqz7cCXI4EHQ7Mvd28EpSp+UrAYLRRWO2aV+n+dOUuGNXZNxMeZ7A06lJTeyT/RaXBWfOYB1z6bC4b0EJnpGB4vXvd4XwpbTzGr7N7TWjDB8B+Z0trfzh2BWxd/SXegrdbVoZ2gxvyY/wnkz9/YDqQJmDV0CG9fRyC6W0vNlNQW5WjTLUS0Ljr23yJdVyuBu3Q2vmfctlg2Zn16agoy/caCQ6Xdmpauht/aeP9SnVfhw7vNeYfHB1hH/UsmLAyYLUJo4F4mfKkYleD7X1lZC+M7GrNFpWgNJsdnfu57HBw+3EYyAZFcXY0fojw8cnZg8KizwAALMBJREFUoJ9FN7bbTNi0bDvH2GZgQ3indWV+jLZ2Yu+58Nkan73pMqoFvNWwLL/nBl8v5I6Jk8kPhgun9BjJ1eh9qfeHqz3UafMW4NesmdlHWvhumshWSBAdfnn9NtORF18vyLejGdxqAtsO4hfupffktlDh7ZKidymeuKSluCKDFuGgVhP9M+X1ZU6mvOnzj88Jhf7rn+sF9+jiEcwOeVFO3LAnMrw0vTT6ddveYh7/x8rFdFa/XsOWp0f34Y7xkPG/bZris9Uq0Knw1eslxhdJdgPTK1v/VeGGz5XRH5X3PT5T7/TyQ7vStPs7bCuuVyFtxlRsWctzvN2GW2+ge292V7a6WLGAaEKZD5X8q8pL9j1vVK5V8hEAXziJDj020h+36wOqchMQ+Q9lB+JV5BbsPSerX/5MCQfh9n4z0hMndkYfHrNq9J7B6yr6osrNjQGNYHqikj8V/UW2orNbv3Cq17L9WypcnOiXkT1HLpEiN1GGXhxb9U/h89wciFfR52Dycqq3VixV7QrGLVPPMkuTXt+d1vv04fE5ZI8BnPYnquivkWx/ZNuFNCnVjd/CVaxGzO/pn+iwff0+eK/NZH6vTpsq0Lp/fX8Ubry3ZMqLXT1yo/zIpM+N56q8l9zWD7/ALQ5k2xEyfPXyd7tfyyh+J/VOxBRO8nMjPzLvEVk9lA2nyh3Dy+gjhjOq36nkA+O040IyEI/7reP+1ei6s2WfK9d/3Z+2G3/f5APL2JGO+1bW71DNfw/3OKldzDersnj5IjD8wx7+e3iAHUR12H3cmxj3S/9w+zh+X6+wXUe3hCoNygSEDXbyHdvPFpeS/uvy3wFecxXICpVqvw5l2aA87v1s5LxMN/KqwT4SwP3e8aOG6RuHByThwBfH/UtgiwP1RgqG+zY0/e/Fjfs9z/t8LBs89HXQYqS4V0f9lztwvvjFEi6Nj042fzww/VMiEKyhQ3prrre4TMo7L/iWDsQ9yRfvmQSPP+Hbow+FghWvluV6+gcKJ7NVNnCZ9WDu1MFvoWP1Qdwb2oeZm0f6V+fAi1f+uAbNy/bwz8LXDwrKlidZu4ppCtYQNbIXeruqt+UY79B278MXa/fiIczYNDzKEvMjOkyFXy78BkmTJYFhzJ4nSPjI3uDHEPWYvUFXo3lF/jEDHqvy9UrumDaZ/IRbevRyNXtfiv5wBYVek9pEGUjH1Wtwn0x0WBamfPyevzGI13ZtPAA4QI6uXvuq0LKPbwsZfoH9k+GphRV/cVmiAc3H80u4ssUH697zl0nZ8ibmHyMOlf6Lz/WCe3TysLJDXpUTVXsiy0vUT/2xV/YWt4ZYNXsjf9ziPZMhw38D8XhBla+olxhfpNkN2fqvKjdZ/VF536N89E4vv2Y93+HbzYj+8EPckR2n8ku45ciwud39t0OdD9n8q8oLMyz7XjIq17L58IPXHUSXHov648V7yQ256VDxU9mBeBW5Wb3nMFGy+mWUv3B7v4l6gul1amf04c3eM6r6osrNjQENKz1RzZ+K/hrpGV6zql/gfad6LdO/pcrFrn5hfozsOV6PNLlhmr1wwfqn3ByIV9FnK3khF6d6a8VS1a7I1rPM0qTXd7LHUbcK0dhZ6Ymq3VHRXy194u/Gj76AcT1n8UvYB5n7uWzibWhZoTdfWbgA69PEFYQ158Z7S6a86PXQ7L2uWn4wnzLpU31uuOmHJm+zX9l2hCxfUf5etB/E+DGNTu1cuMlPNT+y7xFZOyUbTpW7rD5iOKP6nWw+MD67LiQD8Ts/2Q+DW/uWhS1bvQT0ntQW4sWPFzSNB7afgN4NRnJ/oxb3gRfZniZ6N7b7LNi09At+ecv3C3mnv6iwuKTilI+H6IPZOv/1x0swbchCtjzJ0Sgz7nBJ3dJvvgSNutaCdJlTB8TndbrFZcFWH58JKVI/6X/+pD7zYN3CrfwcZ0Bpy8kbKdjKWZt4/tBz8561oUGn6v54tANc1gZnWsdjM1y1PUVl86fFSb/yBII1dDBm0lvgyzHp9fYgsye9/rMnbQc1glqtKkURhDiA13lEc6jauFwUP/oLCyet4atH4PV2gxuz1SMq6r3AlhU7YXQX34cs+oF42fIka1cxcVYNDLxvZC9Eu1qQLXk1ceUA9BrgxKWxhs5leyC+8ULAfasTnNlcLmsDbmtfKlOIbwmC/lX5eiV3q7zgPbP8hFt6RLlavS9Ff4XY9gUTVkSV/7ges2DjEt/72OhDDFzqqVHJLhxdeTbzss/7UbcvMONqxlPvHz/Qwy/DcXsVrGfM3jqKr4Sj+ZMtb2L+Q6n/4nO94B6dPKzskFflRNWeyPLS9M/o1yt7a9VRrspX1MtItBuy9V9VbrL6o/K+N9I5UX64NOTsraP9Hytp/nHlsaoFWrBtSO7x/STXnpqt3YJQ50M2/6ry8mfY5MDqvWRUrmXzYfJ4iC49FvXHi/eSV3KTHYhXkZvVe85Mrtp1K/3S/Ii/4fZ+E/VExs6I4a3eM6r6osrNjQENKz1RzZ+K/or6JR5b1S9Ef0bHZnrttH9LlYtd/cI8GNlzvB5pcsM0e+GC9U+5ORCvos9W8grGxUxvzcKp2hXZepZZekR9J3tsvDS9xs5KT1Ttjor+aukTf8d0nQGbl+/glz67sDhgUh1e1CbJ4NgFjpVozo33lhaX0a9ZeRH10Oq9rlp+jNIkXjNLn+pzw00/xDwbHcu2I4ziEq+Z8RXl70X7QYxfxs6Fm/xU8yP7HpG1U7LhVLmLumd0bKaP6NeofiebD6Nnm10LyUD8tSs3oPpzLf1pwELxZr2y8GrlYpAyTXL/df2BaBhmbB4BqdOl1HuBlWw56WXTN/Dr89nAM+7lLipskZIFYNzSflHCOblwhe2buJUtu7tlxQ746ftfA4LiTHHcV1kb8MabXqd787IdMKbbDJ6OnuPfhYp1SvFj/Fe7WHs2Y/0y23c5AyzY6ZsRiNeNFEwcNJm6YRjkK5wTvQZ1svkLGjF5CEogWENHjID0VqQBbOn5jWyJr0X84lhmE4oy26B3uLR93Zd8s7KrNioPnUc203uJco4D7DjQjg7tVB62TLveHdpxEnrWH8Ev6wfiZcuTrF3FRFg1MPC+kb2wY1c/Wfw5jO/l66wfPLMzvMY+VrLjMO4bbAUOXLEAP6AQ7bYqX6/kbpUvq/yEW3rsyBXzasff7BFLYcnUdRyN0VfZf1+9AdUK+OoCr1crDgOmdrTC6L9nxdPv6b8D8WO0hh2rQ7NetQO8yJY3O/n3Qv/tPFeFe3TysLJDXpUTVXsiyytACXUnXtlbq45yVb529BKzacefiv7qUAac4rPN3iuy9V9VbrL6o/K+D4Dy34kduaDXDmy1n9Ns1R90G76e518JLNT5kM2/qrx4xk3+WekXBjEq17L5MEkCRJce29EflXLtldxkB+JV5Gb1njOTK14Ppl9GYcPt/WZHTzAfZnbGbnhVfVHl5saAhpWeqOZPRX+N9AyvWdUvzMLgdSu9dtq/pcrFrn5huo3sOV6PNLlhmr1wwfqn3ByIV9FnK3lZcbHSW7NwqnZFtp5llh67+k72OLLK9bQhi9nYg2+b30+++RCSJH202ifqQr+mY/lWfeLqtnjdjfcWxmPkrMqLXT1ULT9G6dKuWaVP9bmq7yUV+6blz8mvbDvC6hlWfO3IX6X9YCd+TLuZnQs3+anmR/Y9IquHsuFUucvqI4Yzqt/J5sMqHfp7IRmIx4d+sW4vjGIDVvfu3POnAZejeKHU81C5bmkoUaFolFnyE3rOgQ0fbfP7D3Ywms2aL8ZmzdtV2GDxGd0/w5bdxUH5jcu+gPt373MvT6ZICgt3TYRkTz3Bz71ONy4Zj8vTP7j/AF6tWAzem9OVP/fcmR+hRble/Lhhpxp8KQ5+wv4ZKdgAtp/z7s2HuJelBz6Ap9m+kHacbP7sxE1+rAkEa+iYhSa9BRC/GMXyitsx6B2WKZyVjTZEv4ST3q923r/ZONjz6WF+uvzgVP/KEdp9/LUaiFcpTzJ2FdMTrCFqZC/s2FVxeSyzgXhcZWPXJwfg0K4TrBFwBf768zrfAgTZa04ciFfl65XctbQ6zU+4pceOXDGvdvzNHskG4j8wH4i//tc/UDV/C47ObCDeKU9NDvh7+tB30KHaQH4pY3a23cq2MZAgUQLRC8iWNzv590L/7TxXhXt08rCyQ16VE1V7IssrQAl1J17ZW6uOclW+dvQSs2nHn4r+aiid2g3Z+q8qNxX9kX3fa4zEXztyQf8BnPZPgacz+VYAi458yORfVV4aM6f6heGMyjVel8kHhjNyAfJx0I5T5WJHf1TKtWr6jFjhNdmBeAwrKzer9xzGi05Gv3whA/+H2/vNjp5gDgL0WLAzdsOr6osqNzcGNKz0RDV/yFhWfzGskbOqX2j+neq10/4tVS529QvzY2bPI01ummzc/g3WP+XmQDymXVafreSlMXGqt1o4/a+qXVGpZ+nTgud29Z3ssXU/mardQVnI6i+G1TtxNU9cdbhCrZJ+L7h9b/3iHQH7X0pWfhGGzPKtSoge3HhvYTxOy4tdPVQtP5g2dE7Tp/rccNMPHwXz/wHl3UE7QovRKV878ldpP9iJH9MekG+h3hlu8lPNj8p7RNZOyYRzgzvK1ak+Yhiz+p1MPjA+u872QDzuqbzmxEzLeMXBptJVX4aB0zoF+D97+gKsmbsZdrJ9Ym/dvB1wDwfiB83oHLBncM/6I9kA1gnuL27cOMDWTQwIoz8ZNq8HvFy2kO2Khj68k/OTB75he9CO4y82DDdiQS/+bDwORbp7MTYHGZvHkiSGdafncG6LJq+BeWNWYBJgzmejIUe+LPwY/xkpWPe6w+HIrlPcz8cnZ0PylEn9/q0OZPNnFSfds0cgWEMnWCyktz57YqXvVZ5pBlhxTZc5DSzZ934wpNC9DitHX/rK0bqv5kKy5EmihBFto35GvGp5cmpXMXHBGqJG9sJORSDYQOS2j/fApD5zAJcP11yaDKn49hrJnkoKB7cf55fFgXg3+bopd0yoTH5EeYdDeuzIFfNqx59KxVmWJ4ZDd499GNeK7YN24btf+PmElQOhUPF8/Fj8J/J3u17hhf57zT06eVjZITFdbpYTN+2JE/0RdVB/7JW9teooV+VrRy8xn3b8RYfdcKP+K6OXIncZ/ZF53+v1za5c0N+oTtPg01W7eBQfbh8HWXNn5MfRlQ+n+RfTKSMvzKzMex7DGZVrvI7OaT58oaL+jy499rpcuyG3qLTUBuIxPhm5Wb3nME5Z/cKwehdu7zc7eoJ5MLMzdsOr6osqNzcGNKz0RDV/mp7I6K8WVv9rVb9Av7J67aR/S5WLXf3C/JjZ80iTG+bFCxesf8rtgXjMg4w+W8kL45TVWwyrd6p2RdRvmfqiPj129Z3ssXU/mSgX2XolykZGf/UyxfMbf9/kW/JdZSv4JmV9kN3HtoKXyxSG33+5DJP7z/P39feb0h7K1njFH4Ub7y2Z8mJXD1XLD2ZUJn2qzw03/fAL3ORAth0hy9eO/FX6BezEj2k3s3PhJj838yPzHpG1U07DucFdpryjLpjV7/Ce03xgGLvOciAeBf9m3qbw7z+3IS7bI3zr+cV8r3CzyLGzBpUaXdXGbFnnEcbLOuO+g3s/O8K/BtNmkvIwuqWgxS8jVh6ZDqmeforHHeyfXYUNFk+w++J+yOIM9FCke+OS7WxJQt+HEWOXsGW2XysAbd/sB18fOwfps6aFj/ZMDki+kYINeXcS7Niwn/vD/SFzPvto4D4gsO5ENn+6aOhUgkCwho6dKGOr3k7qOw/WLdjKEc39fCxkz5spCi5cFv2NnI34dVytY8xHfaL40V8Y2HICfLnpIL/80d73IX2WNHovljPi3SpPdu0qJi5YQ9TIXtixq1YDkT988zMfKNVmvuOy4eXYV7uZ2MxlzVXI0ZDvRysOxKvy9UrusvkJt/TYkSvKx44/lYqzLE9NdxZOXA0fjlvJTyvWLgU9J7yr3Qr4lS1vdvLvhf7bea4K9+jigUKxskNelRNVeyLLK0AJdSde2Ft8hFVHuSpfO3qJabDjT0V/Ze2GbP1XlZtb+uPkfY9y0Ds7csEwfZuMgX2fHeXBN59dAIkfT8SPozsfdvOvKi9Z/UJIRuWawxP+2c2HECTgMLr02I7+qJRrVbkFQBJOVGbEC9GAE7lZvedU9EtMj3Ycbu83O3qCaTezM3bDq+qLKjc3BjSs9EQ1f5p+aL9O9FcLo/+1ql+o6LWT/i1VLnb1C/NuZs8jTW56Obp1Hqx/youBeC3tTvTZSl4qequlRfxVtStu1bO0NNnVd7LHoW2fOtFfTZb6X5yE0LR0d/1l/3mznu8AjlWITvW9JVte7OqhavmRTZ/qc1XfS6KM8NgN/dDHKZ7LtiNk+dqRv0r7wU78mH8zOxdu8lPNj1vvEVk9tBtOlbusPqIumNXv8J7m7OZD82/n13IgHiPoVGMw4CxadMGWLxc7wnuMaw2V2JLzwRx28GBBQKefgSruaTBp9SB4/qVngkXH79tVWKPI/v3nFlR7rhX87+FDeDJFMlhxeCrEjRvXyCsc2H4CejcYye+9WoktET/bt0R8KNKNe+3WKNgaHj54CDWavQEN2Mu1JjvHvNdrVxVa9q0bkGYjBRMVfuicbvBKxRcCwpidyObPLD66bp+AWUOH9DY4w3ULPoNJfedyjyMX9oKXyhSKEujnc79Bo5Jd+PV3Wr8JbQY2iOJHf2Fs91mwaekX/PL7Hw+BAsXy6L1YDsR7UZ6s7ComzqohiveN7IUdu2o1ECnuYdVmYEN4p3VlfFSAMxqIV+Xrldxl8xNu6bEjVxSSHX8qFWdZnpi2H89ehBble/HtYpKnTAYLdk7wbxWD90UnW97s5N8L/bfzXBXu0cUDZWJlh7wqJ6r2RJaXqIP6Yy/sLT7DqqNcla8dvcQ02PGnor+ydkO2/qvKzQv9Cfa+RznonR25YJjWFfvAdyfPQ+r0KWHFoan+aMIlH5ggq/yryktWvzBdRuUar5s5q3yYhYkuPbajPyrlWlVuZrzcGogX4w8mN6v3nIp+iWnQjsPt/WZHTzDtZnbGbnhVfVHlJg5ovME+MO7FlgfWu/ULP4OJfXxtUKM+Fys9Uc2fPi3ieTD9Ff2Kx1b1CxW9dtK/pcrFrn5hvs3seaTJTZShm8dm/VPaM7wciNeegb/B9NlKXip6K6ZBO1a1K27Xs+zqO9nj6Gmf2tFfTbfEX9zSY2SnqbB/m++j2UIlnuX9IinTJof8RfNC4VeehVfeiNrHr/reki0vdvVQtfzIpk/1uarvJVG2+uNg9k3v3865bDtClq8d+au0H+zEj1zM7Fy4yU81P26/R5CdrB5ahVPlLquPmB+z+h3eM3JW+TDyb3Yt6ED81EELYdWcTTx820GNoFarSoZxoZKgQp89dYHfF2dY//nrVfj35i1IlDihf39BMZLGr3WDn76/yC+tPTWbDYD7lkg/vPMU9Kg3nF9v2acu1GtfVQzGj3GJe5yxj+6p1MkAB83tKiwPZPAPZ8TizFh00zcOh7wFcxj4Yh8mTF0Ps0Ys4ffealgOuoxqzo9Dle4e9UbA4Z0nIV2WtICzS8d0m8GfP2PTcMjzfGCajRTsU7bX/ajOvhUM3m5ZGdoNbhglnx/P+xS+/+oCv95haBM+G0Y2f1EipwuOCVg1dEhvH+E00tsT+7+BzjUHc0912lSB1v3rPwrw35HYUaLfZymK5/8urJm7BaYMnM/PGnSoDs17147iVSxr+qXpZcuTrF3FxE1/bzGsmPkJT6dde2HHrloNRIpfHi5jexClzZgqCqfy2RvCvTv3QJwRr8rXK7nL5ifc0mNHrigoO/5UKs6yPDFdnWoOgVP/fTDY74MOULZ6iSi6pV2QLW928u+F/tt5rgr36OKB8rCyQ16VE1V7IstL0z+jX6P6mR25W+kbPseqo1yVr530YRrs+FPRX1m7Ib6TndR/VbnJ6o/K+x7loHeiXHIVyAozN49ku38Fbv+FnXS1X2jHZVj0tedg7JK+/mhCnQ/Z/KvKS1a/EJRRuZbNhx+87iC69FjUH7G+JiZPpVyryk1Mh3j864+X+H6peM1swNRtuVm951T0S8yXdhxu7zdRT2TsjBjeTM8w76r6osoNB4+rFWjJxVCsdEEYvbi3JhL/70fvr4U5o5fxc6OBeCs9Uc2f23YHM2FVv1DVa7v9W6pc7OoX5tfILuD1SJMbptkLZ9U/hc9zcyBeRZ+t5KWqt3quqnZFtp6lT4d2Luo72eOYY4+18YhseTLCzC2jArb51WRv9Kv63pItL6IeWr3XVcuPbPpUn6v6XlKxb0ZyDnZNth0hy9eO/FXaD2L8MnYu3OSnmh/Z94isHsqGU+Uuq49YPozqd7L5CFbexPtBB+I/W70bRnT8gIfBAfKpG4ZBBrb0ud7hwNf7Az7klxMmTgCbvp0P8eLH4+dd3xkKx/Z8xZe3n8eWhM6SK4M/OC5TXOelDnCZdfg8kexxWMv2O4/HlsFH99fl6/DOC235LDfcCx1nuaVOl8If9v69+9Cy/KM9YVccmsZmbaSw1fHnj8TgQEsv3sK96/uzjn1tOUbNO3ZQda8zjH1A8Cu/1H1MK6hc/3V+HKp0f7L4cxjfazZ/ZuacGfjHDGkzpoZlB6ZoyfT/GinYtSvXoWahd/msepTVnG1jIKsgG9xbpkGJToAyQtl/fHIW76iTzZ8/MXQgTcCqoUN668Nqprf4xWj151pyfU+QKAEsZPbk6Uyp/bLAPZYa/r+9K4G7atriq6RQypRnKpkqVEhI6pUhiVC+EFGaPBJ6xVcoKol6SIMnXqU0vDJEKJVMycwr71chZU5zmgxJzzv/fTv32/fcc889Z69z7vSt/ft93z1nj2v919prj2fvxj0JHVO4cVZ9OPr46vHwVA8rl31LXZv3UcG47xzpYMtsh6NSbml9d/xedOdCvGl9suWNa0OC2FXQpdtrt4VLN3uhdwRSdZy9FoaG3PwovTrjbQXLg9P60alN6tgQ0f+sE0hG9Z9IL0yYq/z0/Ln4RiV3U35yjR4/coVQ/MTjdJxN8XzJagcf3t0OppoAjSua9WBa3/zwH4X++ymXg3u28IBMvOxQVPWEa09M8dJ10Pkchb1FGV4T5Vx8/eglaPATj6O/pnbDtP/Lxc1UfzjtPeTgdLpcEKZfr2XHHXPvFJo+5iX1WtT1QuoxMHZtDzwyzYcp/1x5meoXMHKr16Z8ID83ly091vVH76/pNHLqNVduOh36M44WbHlcR+VV66SjaczsIXqweg5bbl7tHEe/kgi3PHKtfdP1BPQGtTN6+lR6hny5+sLFDTTYm+ExX4Jryiruuze8lcP1ZYO6j6A/du5S724L8V56wuUvbLsDJrz6F1y99ju/xcXFr36BXze7AP98kxtojsJ5zU+hvDAX4jn67CUvrt46ceXaFdN+lpMO+13Xd/iJPS4Me2zrLU4E7Fx8Je1TaW917WNlqy3az/pzrmHY+oBfTrtll4t8gszr6Xro1a5z648pfdxyue0Sx74t/Xg5TbPGbZWrVKIOfy9y/egJ8tKd6TjCFF8/8ueMH/T8wWdQO5dN+elysZ+5/Ji2I6Z6aJqOi7upPgJnt/6dKR+23PD7UJ/YWrjuh+feQ2NtT9qFeHydiCNf7QXnCnuXp6IuLalm3aOosnV0++pv19LCuR/F7xBE5tf1bksde7XFo3KTRsyg8cOeVs84LgVftx9XpwZtWreFXp48nyaNfF6FNW3VkAY83jOWaPf/FyfNp+F9x6o3fJl++fUX0RnnnEKrvl5DL056lWZNjR0JjWOmcdw0nK6wXgZeRXb598Hri6nvtQ/EQ6odcyhd1qklVbcWqbEojS/EMTllL9gddMgBNHnhIwRsbJcJujdv3GYdR3+9tYj1p12shU8r6n5P8nHabgqGRPqJB9WPPYzaXHcB1WtYW901//KU+fT54pUqb+eduyb8xYmUB2MEvAY6orfp9XZkvwn0/JNzFP5YZL+04/nqygt0XGZZx8sv++RLFXbWBQ1o8LjbfMtJv8Kj7hm1qUtxO7Wh6MPXF1n5vkGb1m+O5+VciEeASX3i2FVdV4498UjqdNsVarPNMSccqTrsbvbCj131WojUJ1bqN65jncDRgQ4/6hD69L3P6IWJcxPaEKfd5uIbhdw5/OQSPX7kCh31E4/TcTbBc9P6LdShSc/4Jpfih29M2FwDum1X25p0x4Y+OJP65of/KPTfT7kc3LOFB8pNZ4eiqCcol2tPTPQH5aZyUdhblOU1UY5wDr5+9BJl+InH0V8TuwG64Ez7vxzcUK6J/nDae5TpdLpc7LDzi5pQk5anqw3NC6yFo6mjZ6qgsmXL0DhrE3WNmkfYUdVvJvng8M+RF0e/3Oo1h48E8LWXbOixrj/O/ppNGqdeIw+O3Gwa3H4vP7U7bVizSX0c0Pn2K+iEU2vSKY1OiEcNW25e7dz8GQvjG+qD9ovjBDsecql90/XEJjOIndHTp9IzO1+uvnBx09Of1uwkurDd2YQN3h9Y48D3rCODcZWg7dwW4r30BAspHP4isTsDJtGz/5qlWJr8zoiEj3Q4dhMZBpnf4uASRL/c7AJozTe5geYonNf8FMrTF+JbX9eCKu1b8sGCk57mbZsQ5iTh3HDn6LOXvMQee/f7gtQXTr2E3HV7ajKvpqcvdHu85KPlVNx+COGUYDeH9Yk6p9WiFm2bUvOixglRODiZ2vkgeqTTF1QPTOkDQJxykZ6j/xz71rFpr/ia3WXWet3Ng2IbT0GTlzMZR5ji60f+nPGDnr/Nc5B+J9JkS342vfpvGPzIeN17nSHsfoYtP/ZCPDL66rPv6I6Ow2jdqg12vil/m13ckO4a1YPK7VkuHgcL1j2to2O/Wf5D3A9fceqDEnxBOvjJYmtRrHY8jv1wX4/RNP/5hfZr0i92gA2dfAfVrHeUCtMVNt3ALSmz3R7vzvtEnQTw87ZfU0VR/ihz8Ljb1cSVM2Im6O595WD6z8Il8aJHzxxEJzaoGX+3H9wUDGFotPtYmw7sY33t+PovOsOjX7yX9q1SUfemoPwlJJYXIwTSDXREb0tgddPb7Vt/oT7X3B9fcC+JXfKEEzsemt6fcLeSX/flkm/Usff2NRnOdDhZ4525Hytvt4V4BAStTxy7itNEerYdRNiAoLthU+6k05rVcx34+rGrXguRG9b8pAbimAB1c43OP5UWv7tUXTXitNtcfKOQO4efXKLHj1whLz/xOB1nEzwXvbuMel0+yE2dkvyGP3s3nXxmyWR70Prmh/8o9N9PuRzcbaAyjQfKTWeHoqgnKJdrT5BHULyQJpVz65/5kbuXvqGsdAvxHHz90Aca/MTj6K+J3QBdcKb9Xw5usZKD6w+nvbfL1H91uRxknTSGTdf25mI9Hp479CyiTrdf7vRW70HrgSkfpulAJEdeHP1yq9ccPlwFYHlmQ491/XH212w6OfUaeXDkZtPg9osNJqDNdpiknrPiKfvVtf/LkZtXO3dU7WrG/eI4wY6HXGrfdD0xsTN6+lR6ZrPP1Rcubu+/toju6DDUJifhF5tAm150Bs15+i3l77YQ76UnGJdx+OPobwIj2otX/4JjN+0i/M5vcXAJol9u9hy05pvcbHzD/k03P6UvxKcrGx9l4eMsODfcOfrsJS+xxyWScev3BakvnHoJKsQep14XKZFS7AmnSj5UPJZmWx8UpXNXdb+Err/r6ng0TrtlaueD6BFHD0zpAziccpGeo/+m9m2XtdmvdZ2uqmzQgA+tcFW0H2cyjjDF14/8OeMHPX+Tfifwyob8UskpDH6Qt4zXU68zhN3PsGUZykI8MsPu1CmjXqDXrAXxnzZssfOP/+JrddyT3rJds7if/rBx3WbC/Vhzn3kzfqc7wu1dWr2HXk+HVi85JlpPi6PkJltfzc+cOC9uXBCOxft6DY+nXg90S1g0g8KeV/1q9aW4n6Nq9bL05+9XrqbH75tCK6xFtrXaJgQc416j5uF0cqM61K1vu4Qv4fX0maBb3+GCL/Of/vjRpHseQVPzGu3VkWhueOz47XeaOmomzXxqXsJE3D6V9qJW7c+jq266hLDZwemC8udML+/BEUg30EGOorfp9XaqZctmWidqbP1pe1wIOEawZbtz6Nqel1Hl/RI3ncQjeTzg9IiR/car0yQQDZuNcPQldn4fXbu6dY1G7MSOXkO70cXXnJuUk0l94thVdKCeGv4cfbZ4hdpshY1R2IBQv/GJrvbCj119ZfpbNKzXY4o3t4mm1d+tp0E3PkJffPqVWqDBnbQY+GIDV/ubW1Ons29TOznd7FQY+IYtdw4/kHcu0ONHrhCon3g4+QY7eeHGvjqUcMKC7vB10CUndFFezS9rQneOukkPpqB4/te6Fx67lv24kc8PpLqn14pHDVrf/PAfhf77KZeLO0DJBh4o18sO2XSFXU+Qbxj2JEi/FGWmcm79Mz9yT6dvjw+eQtMeix0t/u/3R7meFmFqh/zQB379xOPqb1C7ocuB0//l6GXQ+gaaOe29zjOeIRcMPOEanldfnVQ2+u4JtPST5fT7bzuV//4HVVFHG7a+7nz17vYvk3xw+DfVc/Bsql9u9Rr5cfhAejeXaT3ORL0Gnxy5ueFk+2E+A5vYv1zytTrpbtYXE+wg1/4vAjly82rnTPUrTrDLQ660b1w740fPdPa5+sLFDV/UPjrgKWvObKsiC9eVNfhrPWrTqQV9++UqGnzTSOU/ZEIxndm8vk66evbSE0Tg8MfR3yRCLY90/QuuXvud3+LgEkS/UtlzlJ9PcgO9Ubh081M9Lr07afN/Kjr0+YNUuHP02UteXL1144lrV1DvwxhviD0uTHs8qv8EmjF+jpp3xEI7Tg/GHCTmONev3kjvz19Ez46drfo60M+Z1jXAlfevFFdVTrtlUl+C2F0Qyak/JvTZwHDKRR7ZaK/1jab6adE2T16/JuMIE3z9yJ8zL8C1czZG2ZCfXbb+GyY/QdsR03bWNB345uBuoo8oM4p+BvINbSEemcFhtw3ucwfAOKYdi1cH/mV/daxxLIb3f6TfaC0Abd28Xd1hgsV3LMb4cdjxtWF1LG3l/SrRwYcf6CdZKHF+2f4rrfpmLeGIRtzHvmf5ki/+0xWQTbrT0aaHo6JvXLuZtm/7xVqIrEQHVK2iB6d8zhf+UjKQRwHpBjpOVkqL3nZv1U911K684WK6oX97Jwyu79B3XI+xbevPVNG6TwlfwJctW9Y1bhBP3MWyeeMWOuSIqvGjsIOkN6lPHLsahLaw4uKkkTXfr7MWhg5OuEfRT/5cfKOQO4efXKPHjwyijsPBMyhtJvUtaBnO+Jnkz1l2uvds4JGOJoRHUU+QL9ee5Cpe4C2IiwrfIDRw43LqFfjPRj/CRH/CaO/Br74Qf//EYgX/zt//oK8+/87a6FxRbdzYw5rM8+MyyQeHf46ec/TLDUMOH275wQ/8mYzjOLikoiVM/1yiLwq5Aauw9Qt5Zrt9g9zCtDPgyY/j6gsXN9RB2MSq1mkjUTgOf1Hpbyo+o9DrVGVxcEmVZ5j+HPoyLbegfAednwqaf6r4UeEShd5y7YpJP0vHDfon9lhHJJznbNZrfCjZpl43xUiLtn+lviO6uzI17oHpNHlU7Crgf0y9ixo0rZsUj9NuRVFfnARy6g+HPk654CHT+tG1eTGtXPYdXXtLG+rc50onjGnfQW/QcQQH37QEBYwQtp3LtPyc7IbNj0k7YtrOmqYDBhzcw9ZHUz5CX4h3Koe8CwKCQOYQyNZAJ3McBi9pwewP6J5uw1VC7ADtMaAjtencInhGkkIQEAQEAUFAEBAESh0Cpa0fkWpgX+oELwwLAoJAZAiInYkMWslYEMgpBGR+KqfE4UqM2GNXWPLaE1dM4rQJuJus+c+23Vq68vPME7PpnwNjV/CMmDGA6p2RfBWwa0LxzCsEnhs7h0bfM4H2rLAnPTHnfusE5yPyiv4wiC00O1do/IQh43zJQxbi80VSQqcg4AMBGegkg4SdXTjyb+7TC2j6mJcIVzRM+3A0+f2SKzlH8REEBAFBQBAQBASB0oJAaetHyMC+tGi28CkIZA8BsTPZw15KFgQyiYDMT2USbbOyxB6b4ZbLqXCM8yXWveA7d+ykasccSiNmDKT9D0q8TvaHr9dQz6KB1lfOP1E560Tflz8bTxX2Kp/LbAltBgjMmvI6PVj8hEqZ6hpUg2zzLkmh2blC4yfvFMoHwakW3FMl7T10lwoq88aqaX+miiT+goAgkFsIyEAnUR7rrWsy5j2zgOqcXts6mn4Fjbl3MlXYuzzN+vxJ2qPcHomR5U0QEAQEAUFAEBAEBAENgdLYj5CBvaYA8igICAKRICB2JhJYJVNBIOcQkPmpnBNJEkFij5MgKQiPYb3G0CvT31S8YA70rBYNaL8DKltHOxP9+O1a+ujNxdZVKbHlntsf/BtdeNXZBcG3MJGIAD5K69P+frp1SBc687xTEgNL0Vuh2blC46cQVVEW4gtRqsKTIOBAQAY6iYC8OGk+De87NsGzVftzqfew2H1JCQHyIggIAoKAICAICAKCgIZAaexHyMBeUwB5FAQEgUgQEDsTCaySqSCQcwjI/FTOiSSJILHHSZAUhAfkOnX0TBo/bHp8wd3JGL6Wv/bWImpe1NgZJO+CQEEhUGh2rtD4KShl282MLMQXolSFJ0HAgYAMdBIB2bR+C709+0Na9c1aKl+hHNWoVY3Obd2IypQpkxhR3gQBQUAQEAQEAUFAEHAgUFr7EUs+Wk67du2yjrGsQtWPPcyBirwKAoKAIMBHQOwMH0PJQRDIdQRkfirXJRSjT+xxfsjJhMrNG7fRp+8tpXU/bqIdv+5QJ4NWPexAOrRaVTq+/rFUtmxZk2wljSCQdwgUmp0rNH7yTqHSECwL8WkAkmBBoBAQkIFOIUhReBAEBAFBQBAQBAQBQUAQEAQEAUFAEBAEBAFBIH8RkPmp/JWdUC4ICAKCgCAgCAgCZgjIQrwZbpJKEMgrBGSgk1fiEmIFAUFAEBAEBAFBQBAQBAQBQUAQEAQEAUFAECg4BGR+quBEKgwJAoKAICAICAKCQBoEZCE+DUASLAgUAgIy0CkEKQoPgoAgIAgIAoKAICAICAKCgCAgCAgCgoAgIAjkLwIyP5W/shPKBQFBQBAQBAQBQSCzCJR5Y9W0PzNbpJQmCAgCpgjIQMcUOUknCAgCgoAgIAgIAoKAICAICAKCgCAgCAgCgoAgEAYCMj8VBoqShyAgCAgCgoAgIAiUBgT+D8OPlOYoy0RbAAAAAElFTkSuQmCC;" vertex="1" parent="1">
          <mxGeometry x="280" y="210" width="2018" height="340" as="geometry" />
        </mxCell>
      </root>
    </mxGraphModel>
  </diagram>
</mxfile>
